<?xml version="1.0" standalone="no"?>
<!DOCTYPE svg PUBLIC "-//W3C//DTD SVG 20010904//EN"
 "http://www.w3.org/TR/2001/REC-SVG-20010904/DTD/svg10.dtd">
<svg version="1.0" xmlns="http://www.w3.org/2000/svg"
 width="320.000000pt" height="445.000000pt" viewBox="0 0 320.000000 445.000000"
 preserveAspectRatio="xMidYMid meet">
<metadata>
Created by potrace 1.16, written by Peter Selinger 2001-2019
</metadata>
<g transform="translate(0.000000,445.000000) scale(0.100000,-0.100000)"
fill="#000000" stroke="none">
<path d="M1266 4423 c-3 -4 -6 -17 -6 -30 0 -26 -15 -30 -36 -8 -19 18 -34 19
-34 2 0 -10 -25 -13 -99 -14 -96 -1 -102 -2 -156 -36 -32 -20 -51 -37 -43 -40
10 -4 11 -7 1 -18 -16 -16 -17 -69 -1 -69 6 0 8 -3 5 -6 -4 -4 -18 4 -31 17
l-25 24 21 22 c12 13 17 23 11 23 -5 0 -20 -12 -34 -26 -24 -25 -24 -26 -4
-41 19 -15 19 -15 -5 -8 -25 8 -25 8 -6 -14 16 -17 16 -21 4 -21 -22 0 -28
-32 -13 -68 8 -17 11 -33 8 -35 -8 -9 8 -67 19 -67 6 0 8 9 5 20 -6 25 9 36
18 12 13 -33 16 -122 4 -122 -7 0 -9 11 -6 27 5 26 4 26 -9 8 -20 -27 -17 -45
6 -45 16 0 20 -7 20 -30 0 -16 -4 -30 -8 -30 -12 0 -9 -50 3 -51 6 0 13 -9 17
-19 4 -12 21 -22 45 -26 41 -8 64 -30 55 -52 -3 -8 5 -23 19 -33 34 -26 47
-23 21 4 -28 30 -29 46 -1 21 22 -19 22 -19 14 6 -6 20 -5 23 6 14 8 -6 23
-14 34 -17 18 -6 18 -5 -3 12 -15 13 -18 21 -10 24 8 3 7 6 -4 6 -9 1 -23 10
-32 22 -13 19 -14 20 -18 2 -3 -14 -7 -12 -21 15 -21 39 -30 41 -21 6 6 -24 5
-25 -13 -15 -28 14 -35 73 -18 146 18 74 18 89 -1 50 -13 -25 -14 -26 -9 -5 4
14 9 46 12 72 l5 46 72 -45 c39 -25 76 -51 81 -57 6 -7 25 -18 44 -26 31 -12
32 -14 15 -27 -23 -16 -37 -17 -29 0 4 6 -1 3 -9 -7 -9 -11 -16 -25 -16 -30 0
-6 -6 -3 -14 6 -11 15 -12 13 -12 -17 1 -19 5 -35 10 -35 5 0 3 -6 -3 -14 -19
-22 64 -18 85 5 9 10 21 16 25 13 5 -3 7 1 4 8 -2 7 2 21 10 31 13 18 16 18
74 -13 34 -18 61 -37 61 -43 0 -6 8 -3 18 6 10 10 22 17 27 17 8 0 -8 -20 -47
-58 -29 -27 -22 -55 20 -73 55 -25 127 -32 142 -14 17 20 52 2 43 -23 -6 -15
-5 -16 12 -2 17 14 18 13 13 -8 -6 -20 15 -92 26 -92 2 0 4 15 3 34 -1 21 -5
32 -11 29 -6 -4 -8 -2 -3 2 13 15 46 13 40 -2 -10 -26 13 -12 76 47 49 45 70
59 85 54 16 -4 18 -3 7 5 -12 8 -13 12 -1 26 7 9 23 21 34 27 19 10 20 10 7
-6 -16 -19 -17 -18 27 -33 17 -6 32 -7 32 -3 0 5 -9 12 -20 15 -27 9 -26 17
17 81 23 35 39 51 44 43 4 -7 5 -19 1 -27 -3 -10 -1 -13 6 -8 7 4 12 24 12 44
1 21 9 47 19 60 25 29 33 28 25 -3 -6 -25 10 -36 19 -12 3 8 7 6 12 -7 11 -25
-14 -40 -36 -20 -26 24 -30 1 -8 -44 22 -44 39 -47 39 -7 0 13 7 31 16 40 10
9 14 26 12 40 -4 20 -2 23 12 15 19 -10 60 -2 60 12 0 5 -4 7 -9 4 -5 -3 -12
1 -15 10 -9 23 -8 24 12 17 23 -9 42 -29 35 -37 -4 -3 1 -6 10 -6 10 0 17 11
19 33 l3 32 22 -34 22 -34 -22 -28 c-24 -34 -37 -31 -13 3 18 25 20 38 7 38
-14 0 -61 -116 -63 -154 -1 -29 -5 -36 -21 -36 -13 0 -17 -5 -13 -15 3 -8 2
-23 -2 -32 -5 -14 -8 -12 -13 12 -6 27 -7 25 -9 -15 -1 -25 -1 -49 0 -55 1 -5
3 -17 5 -27 5 -23 34 -80 53 -100 8 -10 11 -18 6 -18 -13 0 -61 80 -69 115
-11 45 -33 75 -55 75 -12 0 -20 7 -20 16 0 28 -35 11 -38 -19 -3 -26 -2 -28
17 -17 14 7 21 7 21 0 0 -5 -7 -10 -15 -10 -8 0 -15 -5 -15 -11 0 -5 -4 -7
-10 -4 -5 3 -10 18 -10 32 l0 26 -26 -24 c-14 -13 -30 -33 -36 -44 -6 -13 -1
-11 16 8 22 24 27 26 32 12 9 -23 -22 -53 -88 -86 -32 -16 -58 -31 -58 -33 0
-7 86 21 119 38 l31 17 0 -70 c0 -70 11 -94 33 -71 10 10 8 11 -8 6 -17 -6
-16 -4 5 19 21 23 26 24 36 11 6 -9 14 -13 17 -9 11 10 8 23 -5 23 -7 0 -22 8
-33 16 -20 15 -20 16 -1 29 23 18 39 10 31 -16 -4 -11 -2 -19 5 -19 6 0 8 5 4
12 -4 7 -3 8 5 4 6 -4 9 -12 6 -17 -4 -5 1 -9 10 -9 14 0 14 3 -2 33 -10 17
-22 35 -27 38 -5 4 -5 12 -1 19 4 7 16 -6 31 -35 13 -26 23 -50 22 -54 -4 -21
20 -42 64 -57 27 -9 52 -22 55 -30 3 -8 18 -14 35 -14 40 0 65 -15 83 -50 l15
-29 -34 -6 c-19 -4 -44 -4 -55 0 -12 3 -21 4 -21 2 0 -9 140 -61 146 -55 3 3
-14 13 -38 21 -42 14 -43 15 -15 22 15 4 27 11 27 16 0 5 8 5 17 2 10 -4 0 11
-22 33 l-40 39 47 3 c36 2 56 -3 85 -21 49 -31 77 -63 68 -77 -3 -6 -3 -10 2
-9 8 2 44 -14 102 -45 55 -29 26 -41 -107 -42 -147 -2 -178 -9 -212 -48 -28
-31 -30 -52 -4 -42 20 8 17 -7 -6 -27 -25 -21 -30 -21 -30 -1 0 14 -2 14 -16
3 -18 -14 -64 -84 -64 -95 0 -4 14 12 30 34 33 46 46 51 55 23 8 -25 -3 -49
-26 -56 -10 -4 -19 -14 -19 -24 0 -22 -68 -94 -81 -85 -5 3 -8 0 -7 -7 2 -6
-3 -14 -11 -17 -9 -3 -11 0 -7 7 4 6 -13 1 -38 -11 -32 -15 -42 -25 -33 -31 8
-6 4 -7 -11 -4 -14 3 -20 1 -15 -6 4 -6 -2 -8 -15 -5 -12 4 -25 1 -29 -4 -4
-8 6 -9 31 -5 38 6 73 21 132 57 l34 22 -12 -29 c-20 -47 -129 -216 -159 -248
-29 -31 -40 -57 -15 -36 11 9 12 6 8 -14 -2 -14 -8 -27 -12 -30 -8 -5 -1 -55
9 -55 3 0 6 18 6 39 1 48 36 119 83 166 36 35 43 38 113 50 21 3 42 12 49 20
13 16 0 21 -15 6 -6 -5 -21 -12 -35 -16 -24 -7 -24 -6 8 27 17 19 32 38 32 43
0 5 -7 0 -15 -12 -15 -22 -124 -98 -130 -91 -3 2 11 25 29 51 19 26 44 71 56
100 12 28 28 59 35 67 8 8 21 29 30 45 l16 30 -7 -45 c-13 -85 -3 -158 27
-202 11 -14 19 -30 19 -35 0 -17 -44 -29 -80 -23 -90 15 -129 -20 -139 -127
-4 -37 -10 -74 -15 -82 -11 -17 -16 -81 -6 -81 4 0 8 -21 8 -46 l2 -45 -42 3
c-33 2 -45 8 -54 26 -8 16 -14 20 -19 12 -12 -20 28 -49 77 -56 l47 -7 3 51
c2 42 6 50 17 42 10 -5 16 -31 19 -72 4 -56 7 -64 25 -65 27 -3 37 -20 37 -70
0 -34 -3 -41 -15 -37 -8 4 -12 10 -9 15 3 5 -2 6 -10 3 -9 -4 -18 1 -22 10 -3
9 -13 16 -21 16 -10 0 -14 7 -10 20 5 21 -7 27 -19 9 -4 -7 -24 -9 -55 -6 -53
7 -136 -11 -203 -43 -23 -11 -30 -17 -16 -14 25 7 25 7 6 -15 -24 -27 -19 -26
35 3 24 13 63 26 85 30 55 8 138 -9 174 -34 25 -18 28 -26 23 -53 -3 -18 -12
-47 -19 -65 -10 -26 -11 -33 -1 -30 11 4 47 68 63 113 16 47 15 -19 -1 -94
-19 -81 -38 -121 -58 -121 -7 1 -5 6 5 14 34 25 18 25 -28 -1 -43 -24 -58 -46
-16 -24 12 6 24 11 29 11 4 -1 -10 -10 -32 -22 -24 -13 -40 -17 -43 -10 -3 11
-75 -29 -122 -69 -23 -20 -23 -20 15 2 22 12 44 26 50 31 16 14 28 9 15 -7 -7
-8 23 5 66 30 44 25 83 45 87 45 19 0 -8 -22 -68 -56 -72 -40 -88 -56 -24 -24
46 24 66 20 22 -4 -15 -8 -23 -15 -18 -15 6 0 21 6 35 14 14 8 28 14 33 15 12
0 8 -74 -7 -124 -28 -93 -88 -146 -238 -211 l-87 -38 27 -24 c30 -26 32 -26
51 -14 17 11 6 31 -17 31 -13 0 -14 2 -3 13 11 10 14 10 18 0 3 -7 12 -13 21
-13 22 -1 52 -24 52 -40 0 -9 -5 -8 -18 3 -27 25 -35 21 -16 -8 9 -14 14 -28
11 -31 -9 -9 -27 6 -27 22 0 8 -5 14 -10 14 -7 0 -7 -6 0 -19 17 -32 12 -36
-15 -11 -14 13 -25 19 -26 14 0 -5 -4 0 -9 11 -8 18 -9 17 -9 -8 -1 -16 3 -26
8 -23 4 3 16 -3 26 -14 26 -29 2 -25 -34 6 -17 14 -31 21 -31 15 0 -5 5 -13
10 -16 6 -3 10 -11 10 -16 0 -5 -29 15 -65 46 -57 48 -85 65 -85 51 0 -2 16
-14 35 -26 36 -22 41 -35 25 -60 -7 -12 -13 -9 -30 13 -12 15 -27 27 -33 27
-6 0 4 -15 22 -34 25 -25 31 -39 26 -55 -10 -32 -20 -26 -34 19 -6 22 -16 40
-21 40 -6 0 -6 -10 0 -26 6 -14 10 -32 10 -40 0 -25 -37 6 -54 46 l-14 35 5
-50 c3 -36 2 -46 -6 -35 -9 13 -13 12 -31 -8 -11 -12 -24 -22 -27 -22 -3 0 1
8 10 18 21 23 22 36 1 28 -9 -3 -12 -2 -9 5 4 6 13 8 21 5 19 -7 18 4 -3 19
-14 10 -20 9 -32 -5 -9 -10 -27 -21 -41 -25 -24 -7 -24 -6 -6 8 19 14 18 15
-22 22 -23 3 -46 3 -53 0 -6 -4 -14 -3 -18 3 -4 7 -17 3 -35 -13 -41 -35 -58
-31 -19 5 18 16 57 37 88 45 30 9 55 18 55 20 0 8 -76 -8 -102 -22 -32 -15
-34 -10 -13 31 15 29 15 29 -3 13 -11 -10 -26 -15 -36 -11 -9 3 -17 1 -17 -5
-1 -6 -2 -15 -3 -19 -2 -13 -66 -87 -66 -77 0 6 14 30 30 54 32 48 36 61 19
78 -7 7 11 9 61 5 l71 -4 -7 26 c-8 32 -1 33 26 4 12 -13 33 -23 48 -23 25 0
27 -3 24 -34 -3 -30 -1 -33 17 -28 14 3 22 -1 26 -14 7 -21 20 -25 30 -9 3 6
-1 10 -10 10 -9 0 -13 5 -10 10 3 6 1 10 -4 10 -6 0 -11 7 -11 15 0 8 -5 15
-11 15 -6 0 -9 6 -6 14 4 9 -19 24 -71 47 -145 64 -176 84 -209 133 -36 52
-49 92 -59 176 -3 30 -9 59 -11 63 -6 10 46 67 60 67 5 0 3 -7 -4 -17 -8 -9
-14 -24 -14 -33 0 -9 -7 -25 -15 -36 -12 -14 -8 -13 18 5 34 24 45 58 15 47
-16 -5 -15 -4 1 9 10 8 22 12 27 10 4 -3 11 0 15 7 4 7 4 10 -1 6 -4 -4 -16
-3 -27 3 -14 8 -25 5 -48 -11 l-29 -21 -6 38 c-4 21 -13 63 -21 94 -23 94 -17
112 15 43 16 -34 34 -65 41 -69 10 -6 12 -3 6 11 -17 45 -29 102 -23 116 3 9
26 26 52 38 73 35 162 23 277 -38 15 -8 0 32 -18 45 -40 29 -153 56 -214 50
-45 -4 -62 -1 -75 12 -16 15 -17 15 -6 -6 15 -30 16 -30 -29 -53 l-40 -20 0
22 c1 31 36 177 45 186 4 4 4 -9 0 -29 -5 -29 -3 -39 10 -46 20 -12 113 3 134
20 12 9 13 9 7 0 -4 -7 -3 -13 2 -13 6 0 22 34 37 75 15 41 33 75 39 75 7 0
11 -23 11 -62 0 -60 1 -62 30 -70 41 -11 65 -1 65 25 -1 20 -2 20 -11 5 -6
-11 -22 -18 -39 -18 -36 0 -44 21 -35 103 4 45 3 58 -4 47 -10 -13 -12 -13
-21 0 -6 10 -10 11 -10 3 0 -7 -7 -13 -15 -13 -8 0 -15 -4 -15 -10 0 -5 4 -10
9 -10 4 0 -1 -27 -13 -59 -11 -33 -24 -57 -29 -54 -5 3 -14 -2 -20 -10 -13
-16 -98 -29 -116 -18 -6 4 -8 22 -4 45 4 28 14 43 37 57 17 10 38 19 47 19 9
0 22 7 29 15 16 20 11 19 -45 -5 -26 -11 -48 -20 -50 -20 -2 0 1 14 7 31 18
52 -1 45 -24 -9 -21 -50 -46 -75 -29 -29 16 44 21 77 12 77 -5 0 -15 -26 -21
-57 -7 -32 -18 -62 -26 -66 -8 -4 -14 -13 -14 -18 0 -6 5 -7 10 -4 11 7 13
-40 4 -97 -4 -22 -11 -35 -17 -31 -6 4 -7 1 -1 -8 14 -23 14 -41 -2 -35 -8 3
-14 1 -14 -5 0 -5 7 -12 15 -15 11 -5 13 -13 9 -28 -4 -11 -7 -32 -7 -46 1
-15 -1 -18 -4 -7 -2 9 -8 17 -12 17 -11 0 -5 331 7 368 8 25 8 32 -1 29 -20
-6 -27 -66 -27 -229 -1 -93 -5 -158 -11 -158 -5 0 -9 -8 -10 -17 0 -16 -2 -15
-10 2 -7 15 -8 12 -4 -15 l5 -35 -21 34 c-13 21 -17 36 -10 40 6 4 7 12 1 21
-8 13 -10 12 -10 -2 0 -10 -5 -18 -11 -18 -13 0 -6 297 7 354 5 19 3 27 -3 23
-11 -7 -19 -71 -29 -232 -7 -112 -13 -135 -15 -54 -2 105 -16 118 -17 16 -2
-70 -6 -103 -16 -113 -16 -15 -30 -19 -22 -5 3 4 -5 8 -17 8 -92 1 -99 3 -92
21 4 13 3 14 -5 6 -9 -9 -7 -25 4 -65 18 -59 5 -56 -14 4 -6 20 -16 37 -21 37
-12 0 -12 4 11 -59 l21 -53 -47 7 c-89 13 -106 28 -86 76 10 23 113 109 130
109 12 0 12 -3 2 -15 -7 -9 -10 -18 -7 -21 3 -3 15 13 27 36 21 41 117 287
127 325 l5 20 -15 -20 c-19 -24 -21 -11 -6 36 6 19 13 40 15 47 3 10 9 10 25
2 11 -7 18 -14 15 -17 -3 -3 -14 0 -23 8 -15 11 -15 10 1 -9 11 -12 21 -22 22
-22 2 0 7 15 12 33 8 29 6 34 -20 49 -17 11 -28 26 -28 40 -1 21 -2 21 -11 5
-6 -10 -8 -26 -4 -35 4 -11 -3 -8 -20 9 l-26 25 25 45 c26 49 44 100 29 84 -6
-5 -16 -26 -23 -45 -8 -19 -26 -50 -41 -69 -16 -19 -26 -37 -24 -41 2 -3 -1
-24 -6 -46 -6 -21 -11 -44 -11 -50 -1 -7 -19 -9 -50 -6 -47 4 -108 -12 -108
-29 0 -11 3 -11 37 1 l28 10 -31 -28 c-19 -18 -28 -34 -24 -43 21 -45 29 -54
53 -57 14 -2 35 2 46 7 13 7 22 8 26 1 3 -5 13 -10 22 -10 14 0 15 2 1 18 -16
17 -21 55 -7 46 4 -2 12 4 18 13 9 17 11 17 27 1 17 -17 17 -19 -1 -55 -29
-57 -30 -60 -7 -39 12 10 19 22 17 27 -3 4 -2 10 3 13 5 3 9 -3 9 -12 0 -9
-15 -34 -35 -54 -31 -32 -37 -35 -47 -22 -6 9 -25 17 -41 18 -16 1 -48 14 -70
29 -23 16 -52 27 -65 26 -46 -4 -79 1 -79 12 0 7 10 9 25 5 19 -5 25 -2 25 9
0 9 -4 14 -9 10 -5 -3 -12 -1 -15 4 -4 5 -2 12 4 16 5 3 10 15 10 27 0 13 5
18 14 15 9 -4 13 4 14 24 1 24 85 189 97 189 2 0 -10 -33 -25 -72 -26 -66 -31
-103 -11 -69 5 7 14 10 20 6 9 -5 7 -11 -6 -21 -16 -13 -14 -13 17 -1 21 8 43
11 55 6 11 -4 29 -8 40 -8 17 0 15 2 -7 15 -16 8 -28 16 -28 19 0 2 17 14 37
26 20 13 31 25 24 27 -9 3 -7 10 7 26 26 28 62 97 61 116 0 8 -6 -1 -13 -20
-13 -34 -13 -33 -18 45 -2 44 -10 89 -17 100 -12 20 -12 20 -6 0 12 -36 17
-190 7 -204 -8 -12 -15 -12 -40 -2 l-30 13 23 51 c13 29 26 66 30 82 5 29 5
30 -6 5 -7 -14 -23 -51 -37 -82 -14 -32 -31 -58 -39 -58 -8 0 -11 -5 -8 -10 7
-11 -43 -105 -51 -98 -2 3 10 42 26 87 34 92 37 165 7 134 -4 -3 -2 -12 4 -19
8 -10 -4 -39 -50 -121 -62 -109 -71 -112 -50 -13 6 27 9 56 6 63 -2 6 -9 -22
-16 -63 -6 -41 -16 -83 -21 -92 -6 -10 -10 -28 -10 -40 0 -12 -2 -19 -5 -16
-3 3 -8 41 -11 84 -2 44 -7 92 -9 107 -3 18 -1 26 6 21 6 -3 9 0 7 7 -1 8 4
35 11 62 10 35 18 47 33 47 15 0 18 -5 13 -22 -5 -22 -5 -21 10 2 l16 25 -5
-27 c-15 -74 -15 -79 2 -33 16 43 23 51 48 53 16 2 32 9 36 15 5 8 8 7 8 -4 0
-12 7 -15 24 -12 19 4 25 13 28 39 3 30 -10 114 -26 169 -4 11 9 -13 29 -52
19 -40 38 -73 43 -73 13 0 40 -52 48 -95 l7 -40 9 33 c7 27 5 40 -13 68 -12
19 -32 42 -45 51 -41 27 -26 33 19 8 23 -14 47 -25 53 -25 6 0 10 20 10 48 -1
36 -12 67 -50 135 -26 49 -46 90 -44 93 3 2 23 -26 47 -62 23 -37 44 -64 48
-61 3 4 -11 29 -31 57 -45 63 -46 74 -2 31 l35 -34 -5 69 c-4 52 -2 65 6 52 6
-10 12 -49 13 -88 1 -50 5 -66 12 -57 5 7 19 19 30 25 20 11 20 11 -1 12 -19
0 -23 9 -33 62 -12 70 -34 94 -136 150 -40 22 -54 34 -42 36 16 3 15 5 -4 21
-22 18 -22 18 13 17 20 -1 34 -4 32 -7 -2 -4 3 -12 12 -19 8 -7 12 -20 9 -29
-3 -8 -3 -12 1 -8 4 4 13 -1 20 -11 23 -29 16 7 -7 39 -11 16 -17 29 -12 29
12 -1 73 -87 73 -105 0 -8 4 -15 9 -15 5 0 7 9 4 20 -7 27 18 26 43 -1 17 -19
17 -22 3 -32 -13 -10 -8 -15 33 -28 26 -8 48 -12 48 -8 0 4 -9 10 -20 14 -19
6 -90 109 -90 131 0 11 64 34 97 34 12 0 19 -8 20 -21 2 -29 19 -44 47 -44 17
-1 22 4 18 17 -4 15 2 18 41 18 25 0 52 3 61 6 9 3 16 1 16 -5 0 -6 -7 -11
-15 -11 -21 0 -19 -28 3 -33 16 -4 16 -5 0 -6 -13 -1 -18 -10 -18 -33 l0 -33
22 32 c23 32 56 58 65 50 9 -10 -26 -75 -48 -91 -31 -21 -21 -20 30 2 22 10
50 30 61 45 17 22 18 29 9 51 -7 14 -20 26 -29 26 -10 0 -23 7 -30 15 -11 14
-8 15 26 14 21 -2 55 1 75 5 26 6 38 4 48 -8 11 -13 3 -24 -50 -76 -65 -64
-74 -90 -16 -46 44 33 89 98 82 117 -3 8 -21 25 -40 38 -19 13 -35 27 -35 32
0 5 -10 9 -22 9 -12 0 -32 10 -45 22 l-23 22 15 -32 c9 -18 25 -38 36 -46 20
-13 20 -13 0 -19 -11 -3 -20 -2 -19 2 1 3 -15 23 -35 44 -20 21 -37 34 -37 29
0 -5 -11 -14 -25 -20 -15 -7 -25 -8 -25 -2 0 6 4 10 9 10 5 0 12 7 15 16 7 19
-20 54 -41 54 -8 0 -24 11 -37 25 -22 24 -23 24 -21 3 1 -16 11 -25 33 -30 32
-9 41 -21 22 -33 -5 -3 -10 -1 -10 4 0 6 -5 11 -10 11 -6 0 -8 -10 -5 -22 3
-13 7 -39 9 -58 3 -19 5 -37 5 -40 1 -3 5 2 11 10 5 8 12 11 16 7 4 -3 1 -13
-6 -22 -23 -27 -47 -1 -53 59 -7 74 -21 96 -58 96 -19 0 -38 9 -53 25 -16 17
-29 23 -41 19 -16 -7 -16 -18 0 -56 6 -16 4 -17 -24 -7 -17 6 -31 17 -31 25 0
17 -7 17 -49 3 -23 -8 -31 -17 -31 -34 0 -13 5 -27 10 -30 6 -3 10 -17 10 -30
0 -19 7 -25 33 -30 18 -4 48 -5 67 -3 49 4 50 -13 4 -39 -49 -28 -52 -28 -47
1 4 20 0 24 -32 29 -40 7 -68 0 -59 -14 3 -5 14 -9 25 -9 10 0 19 -4 19 -10 0
-32 -65 6 -79 47 -7 19 -15 32 -19 29 -3 -4 -17 4 -31 16 -14 13 -9 4 12 -20
20 -23 37 -44 37 -47 0 -10 -38 14 -44 27 -4 7 -4 3 -2 -9 5 -29 -6 -29 -73 2
-30 14 -57 23 -60 20 -8 -8 34 -40 87 -66 23 -11 42 -23 42 -25 0 -11 -90 11
-133 32 -58 28 -53 28 -61 8 -4 -12 -2 -15 9 -10 8 3 15 1 15 -5 0 -6 4 -7 10
-4 5 3 20 -1 33 -10 23 -15 24 -17 11 -56 -11 -31 -12 -45 -3 -62 18 -33 35
-47 58 -47 12 0 21 -5 21 -11 0 -5 5 -7 10 -4 14 9 44 -63 41 -100 -1 -16 -11
-68 -22 -115 -12 -50 -18 -100 -14 -120 l6 -35 -19 23 c-15 20 -27 23 -73 22
-30 -1 -67 2 -83 6 -26 6 -28 5 -21 -12 14 -32 16 -78 5 -94 -9 -13 -12 -13
-24 3 -17 22 -24 14 -65 -73 -17 -36 -31 -58 -31 -49 0 23 32 113 43 120 5 4
5 9 -2 13 -11 7 -28 -26 -38 -77 -6 -30 -35 -47 -65 -39 -22 5 -23 13 -2 38
15 19 16 19 10 -1 -5 -17 -3 -16 14 5 11 14 20 29 20 34 0 6 -7 1 -16 -10 -14
-18 -15 -18 -8 6 10 39 -10 14 -47 -60 -52 -103 -42 -203 24 -230 22 -9 22 -9
-3 -11 -14 -1 -28 -1 -32 -1 -3 1 -9 -5 -12 -13 -7 -20 18 -19 49 1 15 10 32
13 42 9 16 -7 15 -9 -7 -16 -20 -6 -18 -7 15 -6 24 1 40 -2 40 -10 0 -6 3 -15
7 -19 16 -15 7 -24 -11 -12 -11 7 -18 15 -16 18 2 3 -21 7 -51 8 -30 2 -54 -1
-54 -5 0 -5 18 -8 39 -6 22 1 47 -5 57 -13 18 -14 18 -14 0 -7 -13 4 -17 3
-12 -5 4 -6 27 -9 59 -7 28 2 46 2 39 -1 -6 -3 -10 -9 -7 -13 2 -5 -7 -7 -20
-5 -14 1 -25 -2 -25 -7 0 -5 11 -9 25 -9 22 0 25 -4 25 -35 0 -21 -6 -38 -14
-41 -19 -7 -67 18 -104 55 l-30 30 -5 -37 c-4 -20 -3 -39 1 -42 16 -12 -3
-103 -21 -97 -24 8 -80 135 -82 188 -5 78 2 87 37 47 17 -18 28 -28 26 -23
-13 35 -45 92 -58 102 -11 8 -15 32 -15 91 0 45 -1 79 -3 77 -2 -1 -12 -43
-22 -91 -10 -49 -19 -83 -19 -76 -1 17 -21 15 -21 -3 0 -8 5 -15 11 -15 8 0 8
-4 -1 -15 -13 -16 -29 -122 -31 -217 -1 -35 -5 -67 -9 -73 -4 -5 -10 -25 -14
-44 -6 -33 -6 -33 17 -19 20 14 22 25 28 154 7 157 6 147 18 140 5 -4 11 -3
14 1 2 5 2 2 0 -5 -1 -8 -3 -20 -3 -28 0 -9 -4 -12 -10 -9 -13 8 -13 11 10
-63 11 -35 20 -84 20 -108 0 -24 3 -44 8 -44 4 0 6 19 3 42 l-4 43 44 -38 c90
-76 82 -65 64 -94 -23 -35 -13 -133 14 -133 22 0 51 -30 51 -53 0 -9 -16 -29
-35 -44 -44 -35 -50 -83 -11 -83 24 0 54 -25 43 -37 -4 -3 -13 0 -22 7 -19 16
-45 6 -45 -17 0 -13 3 -14 12 -5 16 16 28 15 28 -3 0 -8 -4 -15 -10 -15 -5 0
-10 -5 -10 -11 0 -5 4 -8 9 -4 5 3 13 0 16 -5 4 -6 19 -10 33 -8 23 3 30 -4
52 -49 14 -29 30 -51 35 -50 10 4 38 55 62 117 14 35 14 35 9 -24 -4 -45 0
-66 15 -95 10 -19 19 -46 19 -59 0 -27 29 -82 43 -82 5 0 6 8 2 18 -5 14 -4
15 6 5 17 -17 29 -16 29 2 0 23 25 18 61 -13 26 -21 31 -23 26 -8 -6 15 -3 18
18 14 30 -6 31 -4 4 33 -21 30 -19 49 7 49 9 0 14 -11 14 -36 0 -28 3 -35 18
-32 10 2 16 11 14 22 -2 12 1 16 9 10 8 -4 10 -3 5 4 -4 7 -1 12 9 12 12 0 15
-5 11 -17 -6 -15 -4 -15 14 2 15 14 17 21 9 32 -17 20 -35 16 -60 -14 -20 -26
-21 -26 -16 -6 7 31 -7 38 -82 38 -42 0 -66 4 -68 13 -8 21 232 10 254 -12 2
-2 -2 -19 -10 -37 -23 -57 -28 -86 -14 -92 8 -3 13 8 15 32 1 20 11 48 22 63
11 15 20 29 20 32 0 14 -113 36 -182 36 -55 0 -78 4 -79 13 0 6 -4 33 -8 59
-7 43 -6 46 10 38 12 -7 21 -5 29 5 10 11 10 15 1 15 -8 0 -7 6 3 16 23 22 20
47 -9 78 -30 33 -84 37 -92 6 -6 -23 -14 -25 -31 -8 -9 9 -12 9 -12 -1 0 -7
10 -21 22 -30 18 -16 19 -18 5 -24 -10 -4 -16 -2 -14 5 1 6 -4 13 -12 16 -9 3
-11 0 -6 -9 5 -8 4 -10 0 -6 -13 11 -16 38 -8 72 5 27 7 28 14 10 7 -18 8 -18
8 -2 1 14 6 17 23 12 17 -6 20 -4 15 9 -14 36 66 5 101 -39 22 -28 32 -32 32
-12 0 23 -74 86 -109 93 -27 6 -32 10 -27 28 3 12 6 24 6 27 0 4 17 1 38 -7
20 -7 47 -13 59 -14 39 0 51 -11 64 -56 7 -24 16 -44 19 -44 3 0 5 46 4 103
l-3 102 22 -27 c12 -15 33 -47 47 -72 l24 -45 -21 -23 c-12 -13 -25 -42 -29
-64 -5 -35 -2 -45 19 -67 16 -18 23 -36 21 -54 -2 -16 -1 -21 2 -11 6 17 34
33 34 19 0 -5 -6 -12 -12 -14 -9 -4 -9 -6 -1 -6 6 -1 21 11 32 26 12 14 24 23
28 20 3 -4 -2 -17 -13 -29 -10 -12 -13 -18 -6 -14 8 5 12 0 13 -16 1 -23 1
-23 9 2 10 31 11 28 16 -43 4 -48 -1 -70 -27 -134 -18 -42 -44 -89 -58 -105
-34 -37 -103 -51 -169 -32 -177 49 -162 42 -162 77 0 18 -8 41 -16 52 -16 19
-16 18 -10 -20 3 -22 9 -55 12 -74 6 -27 4 -32 -6 -26 -8 5 -11 4 -7 -2 4 -6
-3 -19 -16 -29 -12 -11 -16 -12 -10 -4 8 11 8 28 -1 68 l-12 53 -14 -38 c-22
-57 -23 -60 -6 -39 19 24 20 10 2 -23 l-13 -23 -6 23 c-11 41 -8 65 13 92 24
30 25 41 5 33 -13 -4 -14 -2 -5 14 6 12 7 20 1 20 -5 0 -11 -6 -14 -12 -3 -7
-12 4 -21 25 -14 31 -21 37 -47 37 -38 0 -91 53 -88 90 1 14 -2 33 -6 43 -7
16 -11 13 -26 -20 l-19 -38 5 34 c3 19 8 79 12 133 5 79 3 102 -8 108 -7 5
-10 12 -6 17 5 4 12 1 17 -7 5 -8 12 -11 16 -7 4 4 2 13 -4 19 -7 7 -12 38
-12 70 0 51 -2 58 -20 58 -11 0 -20 7 -20 15 0 8 -4 15 -10 15 -5 0 -7 -7 -4
-15 6 -15 -30 -21 -98 -16 -23 2 -28 -2 -34 -33 -3 -20 -3 -48 2 -63 4 -16 7
-31 6 -35 -2 -10 15 -10 20 0 2 4 19 19 39 34 l36 27 20 -28 21 -27 -36 -1
c-34 -1 -35 0 -17 13 10 8 14 14 9 14 -6 0 -19 -6 -29 -14 -18 -13 -18 -14 3
-20 13 -4 19 -12 16 -18 -5 -7 -1 -9 9 -5 32 12 21 -73 -27 -195 -45 -118 -76
-215 -76 -241 0 -9 16 -30 35 -48 19 -18 43 -54 55 -81 24 -57 35 -62 26 -13
-6 29 -4 35 11 35 10 0 35 5 56 11 32 9 36 13 24 22 -8 7 -25 32 -38 57 -23
42 -24 49 -13 105 l11 60 2 -70 c1 -61 5 -75 28 -104 23 -27 33 -31 54 -26 21
5 26 11 22 28 -4 20 -3 20 9 5 8 -9 25 -18 38 -20 14 -1 25 -8 25 -15 0 -6 3
-15 7 -19 5 -4 8 -25 8 -46 0 -27 -4 -38 -15 -38 -12 0 -11 -6 7 -30 14 -19
22 -45 23 -70 0 -25 5 -40 13 -40 18 0 15 -14 -11 -36 -12 -11 -36 -37 -54
-58 -18 -21 -34 -33 -38 -27 -3 6 -2 11 4 11 5 0 5 12 -2 30 -6 17 -15 30 -19
30 -11 0 -10 -7 4 -29 9 -15 7 -25 -11 -54 -19 -31 -20 -37 -6 -50 8 -9 15
-21 15 -27 0 -6 5 -8 10 -5 10 6 49 -32 50 -48 0 -5 -12 -7 -27 -5 -21 2 -29
11 -37 38 l-10 35 -4 -32 c-4 -40 -11 -41 -41 -7 -16 19 -20 29 -12 37 18 18
13 46 -14 73 l-25 25 32 14 c18 8 27 14 20 15 -7 0 -22 -5 -33 -11 -17 -8 -24
-7 -35 8 -14 17 -14 17 -5 -4 8 -16 8 -23 -2 -26 -6 -2 0 -8 16 -12 17 -4 27
-14 27 -25 0 -11 4 -21 10 -25 14 -9 0 -34 -16 -28 -20 7 -18 -3 8 -38 29 -38
65 -62 108 -69 30 -4 35 -10 43 -43 5 -21 15 -37 23 -37 8 0 14 5 14 11 0 6 7
8 17 5 9 -4 20 -1 25 6 11 19 10 30 -4 22 -7 -5 -8 -3 -4 5 6 9 12 9 25 -3 10
-9 21 -13 24 -9 4 3 7 1 7 -5 0 -7 -7 -12 -17 -12 -14 0 -14 -2 -2 -17 22 -27
38 -65 41 -98 2 -19 9 -31 21 -33 26 -5 21 29 -13 79 -16 24 -30 47 -30 51 0
4 17 4 37 2 29 -4 35 -3 23 5 -13 10 -10 16 16 40 39 36 49 83 30 139 -16 45
-16 44 -16 68 0 8 -4 13 -9 10 -5 -4 -7 3 -4 14 6 22 -14 53 -28 44 -5 -3 -7
1 -4 8 3 8 -12 23 -36 36 -53 31 -44 40 12 11 101 -51 135 -97 142 -190 2 -30
13 -74 25 -99 12 -25 21 -54 21 -65 0 -11 -10 6 -21 37 -23 61 -42 80 -44 43
-2 -31 -35 -79 -44 -65 -12 19 -19 -3 -9 -28 8 -20 13 -22 62 -16 60 7 92 -4
102 -36 7 -22 41 -27 48 -7 6 17 44 -19 68 -64 l18 -37 -24 -6 c-13 -3 -54
-26 -91 -51 -37 -25 -69 -43 -72 -40 -3 3 14 26 39 51 l44 45 -50 -3 c-48 -3
-50 -4 -61 -43 -7 -22 -13 -35 -14 -30 0 6 -6 3 -13 -6 -7 -9 -27 -26 -46 -37
-18 -11 -28 -22 -23 -26 5 -3 24 6 43 20 54 40 66 45 72 30 3 -8 -2 -20 -11
-28 -15 -12 -16 -11 -3 5 17 21 9 22 -29 2 -17 -9 -30 -22 -30 -30 0 -8 -8
-15 -19 -15 -13 0 -18 -7 -18 -25 0 -14 3 -25 8 -25 5 0 4 -11 -1 -25 -13 -36
2 -31 18 5 18 41 91 112 166 162 l61 41 -37 -39 c-20 -21 -51 -69 -69 -106
-17 -38 -37 -68 -43 -68 -8 0 -11 -22 -11 -64 1 -49 -2 -63 -12 -59 -29 11
-10 -15 25 -35 l38 -21 28 34 c15 18 27 37 26 41 -1 4 4 10 10 14 14 9 0 41
-33 78 -11 12 -16 22 -11 22 5 0 2 5 -6 10 -13 9 -11 13 10 30 16 12 26 15 29
8 2 -7 -1 -14 -8 -16 -8 -3 -5 -9 8 -19 14 -9 21 -26 22 -51 2 -34 2 -34 6 -7
3 16 -1 48 -8 70 -7 22 -11 47 -10 55 1 9 -4 6 -14 -7 -22 -31 -37 -29 -23 2
6 14 18 25 26 25 8 0 12 6 9 14 -7 16 68 90 101 100 20 7 20 7 -5 57 -25 47
-55 79 -99 105 -15 9 -16 14 -7 26 19 22 27 92 14 117 -7 11 -9 21 -6 21 10 0
78 -114 96 -160 16 -39 18 -41 19 -17 0 35 9 34 47 -3 19 -18 34 -27 38 -20 3
5 2 10 -2 10 -5 0 -15 20 -22 45 -14 46 -70 133 -121 188 -17 18 -30 37 -30
42 1 6 9 0 19 -12 26 -31 37 -29 17 2 -15 23 -15 26 3 44 21 21 37 122 26 170
-8 39 16 43 33 7 13 -29 45 -41 69 -26 16 9 15 10 -5 5 -29 -8 -62 19 -62 52
0 24 -15 31 -24 11 -3 -9 -10 -7 -21 7 -18 22 -18 27 1 -61 10 -49 -7 -134
-33 -165 -39 -46 -82 -41 -141 18 -26 26 -39 41 -29 33 17 -12 18 -11 15 14
-2 19 -24 49 -68 92 -36 35 -60 64 -53 64 7 0 34 -22 62 -49 l49 -48 9 48 c6
27 6 46 1 43 -4 -3 -8 -14 -8 -25 0 -27 -11 -24 -48 14 -23 24 -29 36 -22 47
12 19 13 33 1 25 -5 -3 -12 -1 -16 5 -8 13 18 12 85 -4 l55 -13 -38 -8 c-20
-4 -40 -11 -43 -16 -7 -12 29 -12 41 0 11 9 261 71 288 71 8 0 22 6 29 13 17
16 48 21 48 7 0 -6 -4 -8 -10 -5 -6 4 -10 -6 -10 -22 0 -23 4 -28 25 -28 26 0
33 9 15 20 -14 9 0 35 20 35 10 0 24 -8 31 -17 12 -15 12 -16 -8 -11 -16 4
-21 2 -20 -12 1 -16 3 -17 24 -3 13 9 26 13 29 11 7 -8 -45 -40 -56 -33 -4 3
-19 -9 -31 -27 l-23 -31 -13 34 -13 34 7 -35 c13 -63 8 -222 -9 -264 -8 -21
-19 -41 -24 -45 -13 -9 -64 -78 -64 -87 0 -4 11 3 24 15 18 17 26 19 32 10 10
-16 6 -76 -6 -98 -10 -20 3 -50 14 -32 4 6 2 11 -5 11 -9 0 -9 3 0 14 7 8 16
27 21 43 l8 28 2 -30 c1 -16 1 -36 0 -44 -1 -8 3 -24 8 -35 6 -12 16 -36 22
-54 7 -18 21 -37 31 -43 11 -5 19 -18 19 -27 0 -10 25 -43 55 -75 57 -60 69
-65 34 -16 -17 24 -18 29 -5 29 19 0 39 -36 33 -60 -3 -10 9 -46 25 -80 16
-35 38 -101 48 -149 12 -54 19 -75 20 -56 2 17 2 33 1 38 0 4 4 7 9 7 6 0 10
-16 10 -35 0 -19 -4 -35 -10 -35 -5 0 -10 -10 -11 -22 0 -13 -9 6 -20 42 -22
70 -45 108 -28 46 6 -20 9 -51 7 -69 l-4 -32 -12 28 c-6 15 -16 27 -22 27 -17
0 -11 -22 13 -49 l22 -24 -27 19 c-31 21 -68 106 -69 157 0 18 -3 27 -5 21
-10 -23 -55 -2 -73 34 -12 24 -29 39 -52 46 -23 8 -44 26 -66 61 -37 56 -43
54 -13 -5 19 -38 62 -70 93 -70 13 0 32 -28 24 -36 -1 -2 -22 7 -45 18 -31 16
-45 19 -54 10 -8 -8 -5 -9 11 -5 12 3 21 1 21 -6 0 -6 -11 -13 -24 -17 -14 -3
-32 -14 -41 -24 -19 -21 -37 -90 -24 -90 5 0 9 9 9 21 0 31 53 79 88 79 36 0
82 -34 82 -61 0 -21 -42 -69 -59 -69 -7 0 -7 9 1 25 10 21 8 30 -8 52 -28 37
-39 38 -69 9 -30 -30 -32 -66 -5 -91 11 -10 18 -20 15 -23 -2 -3 -14 6 -25 19
l-20 24 -19 -23 c-11 -12 -22 -18 -25 -13 -4 5 0 11 6 14 7 2 10 8 6 12 -12
13 -29 -6 -22 -27 5 -17 3 -19 -16 -13 -15 5 -26 2 -31 -6 -7 -11 -9 -11 -9
-1 0 8 -11 11 -30 10 -21 -2 -30 -7 -28 -18 2 -8 10 -15 18 -15 8 0 23 -7 32
-15 23 -21 310 -137 368 -149 25 -6 62 -17 83 -26 35 -15 37 -14 37 4 0 11 -5
21 -12 23 -13 5 -2 28 13 28 6 0 7 -5 4 -10 -3 -6 -2 -10 4 -10 5 0 11 6 14
13 2 6 8 9 12 4 5 -4 3 -13 -3 -19 -18 -18 -14 -46 7 -58 31 -16 39 -12 34 17
-3 27 -3 27 14 -5 21 -40 34 -44 148 -40 l90 3 -31 17 c-34 18 -70 66 -58 76
4 4 9 1 11 -6 4 -10 8 -10 21 0 9 7 13 8 9 2 -8 -13 81 -18 102 -5 7 5 28 5
45 1 30 -7 32 -5 28 15 -3 16 2 24 18 28 17 4 20 2 15 -11 -4 -9 -9 -34 -12
-54 -4 -27 -11 -38 -27 -41 -11 -3 28 -3 89 0 156 6 311 38 415 85 111 50 242
186 224 232 -3 9 -3 28 1 43 5 21 8 24 16 12 10 -15 10 -14 14 18 2 19 -1 21
-16 12 -11 -5 -19 -17 -19 -26 0 -14 -2 -15 -12 -4 -11 10 -7 17 15 35 28 22
28 25 24 103 l-4 81 43 37 c38 31 43 40 37 63 -6 24 -5 26 10 13 11 -9 17 -10
17 -2 0 6 -4 11 -10 11 -5 0 -10 8 -10 18 0 14 -2 15 -10 2 -7 -12 -12 -12
-29 4 -27 24 -26 38 0 55 19 11 21 11 16 -3 -4 -9 -2 -16 4 -16 18 0 22 31 8
58 -8 14 -26 39 -41 55 -26 29 -45 73 -27 61 5 -3 9 -11 9 -17 0 -7 27 -40 60
-74 50 -52 60 -68 60 -98 0 -20 -5 -35 -12 -35 -6 0 -9 -3 -5 -6 6 -6 77 33
77 43 0 14 -85 131 -90 123 -3 -5 -5 21 -5 58 0 60 4 73 31 110 17 23 35 38
40 34 4 -4 3 0 -4 9 -10 14 -10 18 2 22 8 3 18 -4 24 -18 10 -22 14 -23 41
-14 17 6 33 20 37 31 5 16 8 17 14 8 6 -9 10 -2 13 21 8 58 7 99 -3 99 -5 0
-7 -7 -4 -15 4 -8 -1 -17 -10 -21 -13 -5 -14 -10 -5 -20 14 -17 3 -34 -22 -34
-23 0 -23 -2 1 54 12 30 28 50 45 56 14 5 25 15 25 21 0 6 -7 8 -16 5 -14 -5
-15 -4 -4 9 7 8 16 12 21 9 5 -3 6 3 2 13 -3 10 -2 15 2 10 5 -4 24 7 42 25
36 34 68 47 59 22 -3 -9 -1 -12 4 -9 6 3 11 -6 11 -22 1 -23 3 -24 6 -6 5 25
-14 66 -26 59 -5 -3 -16 12 -26 34 -21 47 -29 47 -15 0 8 -29 6 -37 -17 -64
-14 -17 -29 -31 -34 -31 -11 0 -59 -43 -59 -53 0 -5 -18 -20 -40 -35 -22 -14
-40 -22 -40 -17 0 5 4 11 9 14 5 3 14 27 20 52 7 26 19 60 27 76 8 16 10 28 4
28 -5 0 -12 -11 -16 -25 -3 -14 -10 -22 -15 -20 -9 6 -59 -67 -59 -87 0 -18
16 1 40 47 11 22 18 29 14 16 -9 -34 -54 -128 -55 -116 -1 6 -2 19 -3 29 -1
13 -25 32 -76 58 -89 47 -123 74 -69 55 19 -7 39 -15 44 -19 6 -3 24 0 40 8
17 7 23 13 15 13 -34 -2 -51 1 -46 10 3 5 -1 12 -10 15 -24 9 -31 7 -14 -4 11
-7 12 -10 2 -10 -23 0 -58 34 -54 53 3 15 6 15 22 -5 21 -25 27 -9 9 24 -8 15
-8 19 0 14 6 -4 11 -2 11 3 0 6 9 11 20 11 21 0 26 16 10 40 -7 12 -11 10 -18
-10 l-9 -24 -6 23 c-6 23 31 92 61 116 7 6 15 30 18 55 6 52 6 52 36 54 20 1
22 6 22 51 -1 80 -14 197 -25 217 -6 11 -6 18 0 18 5 0 11 -6 14 -12 3 -9 13
-5 31 11 33 31 35 55 2 47 -28 -7 -40 2 -24 21 8 10 8 17 -1 26 -9 9 -14 9
-21 -3 -15 -24 -12 -6 6 29 l16 31 18 -22 c23 -28 26 -11 4 20 -13 19 -19 21
-30 11 -23 -19 -38 -51 -40 -84 -4 -56 -6 -60 -14 -20 -5 25 -4 45 2 53 6 7
11 20 12 30 4 35 29 108 62 180 19 40 34 79 33 85 0 7 -3 5 -7 -4 -12 -28 -63
-82 -70 -75 -4 4 1 12 11 17 9 6 24 23 32 39 14 27 14 29 -2 23 -14 -6 -13 0
6 30 12 20 21 43 19 49 -6 18 32 45 69 51 26 4 32 1 37 -17 10 -38 7 -49 -11
-42 -17 7 -17 6 -1 -10 37 -37 45 17 18 122 -7 28 -5 31 10 27 10 -3 18 -12
18 -21 -1 -10 2 -42 5 -72 6 -50 5 -56 -17 -72 -21 -15 -25 -15 -30 -3 -7 20
-22 19 -30 -1 -6 -15 22 -74 34 -74 4 0 17 11 30 25 21 23 27 39 29 86 1 9 16
22 34 29 17 6 44 18 59 26 14 8 33 11 41 8 9 -3 17 1 20 10 4 13 5 12 3 -1 -1
-10 -10 -18 -21 -19 -45 -2 -48 -7 -10 -15 21 -5 50 -19 62 -31 18 -17 23 -18
23 -6 0 8 -12 20 -26 27 -25 11 -25 13 -11 35 13 19 14 31 5 65 -11 44 -22 49
-52 26 -26 -20 -46 -18 -75 6 -29 24 -23 34 12 18 22 -10 31 -8 61 10 22 14
33 27 29 36 -4 12 -11 10 -35 -11 -20 -16 -36 -23 -47 -18 -9 4 -27 8 -41 10
-36 3 -93 29 -128 59 l-31 26 11 -33 c6 -18 17 -40 25 -48 14 -13 14 -12 4 8
-14 27 0 29 23 3 16 -17 16 -24 5 -55 -11 -30 -18 -36 -41 -36 -24 0 -28 4
-28 29 0 16 6 32 13 34 7 3 5 6 -5 6 -10 1 -30 -12 -45 -29 -20 -23 -35 -30
-64 -30 -44 0 -54 11 -38 42 13 26 59 78 69 78 3 0 4 -26 3 -57 -3 -42 -1 -54
7 -43 12 19 13 90 0 110 -13 21 -64 -30 -101 -102 -32 -63 -38 -85 -13 -50 18
27 34 20 34 -14 0 -22 -3 -24 -27 -18 -16 4 -37 13 -49 20 -17 12 -23 11 -42
-2 -12 -8 -22 -23 -22 -32 0 -12 3 -13 8 -5 6 9 17 6 45 -13 38 -25 48 -44 23
-44 -8 0 -16 -5 -18 -12 -5 -14 -57 21 -58 39 0 7 -7 16 -16 21 -14 8 -14 11
-1 24 8 8 16 23 19 34 2 15 11 18 43 18 33 -1 34 0 8 3 -40 5 -42 21 -8 61 28
33 105 82 129 82 8 0 18 5 22 12 4 7 3 8 -5 4 -6 -4 -18 -3 -25 3 -7 6 -20 9
-28 6 -8 -3 -25 -2 -38 3 -23 9 -22 9 12 16 35 6 73 36 63 49 -3 4 -2 5 2 2
13 -10 33 19 33 49 0 23 -9 41 -33 64 -32 31 -55 43 -42 22 4 -6 -5 -7 -24 -4
-16 3 -37 1 -48 -5 -16 -9 -16 -11 7 -12 35 -3 41 -4 75 -18 27 -11 28 -13 12
-23 -14 -7 -23 -5 -38 8 -10 9 -19 12 -19 6 0 -18 37 -33 65 -26 19 5 25 2 25
-10 0 -30 -34 -37 -70 -14 -33 20 -35 20 -67 3 -41 -22 -42 -34 -3 -31 24 2
29 -1 25 -14 -4 -12 1 -16 19 -15 13 0 28 3 32 8 10 10 24 9 24 -2 0 -5 -14
-14 -31 -22 -24 -9 -39 -10 -60 -2 -16 6 -29 8 -29 3 0 -14 29 -32 72 -45 l43
-12 -42 -21 c-43 -22 -85 -70 -97 -108 -5 -15 -18 -23 -44 -28 -66 -11 -90 -7
-106 16 -19 26 -32 18 -17 -10 9 -17 7 -24 -15 -41 -24 -19 -24 -26 -1 -22 4
1 3 -7 -2 -16 -25 -48 -33 -107 -29 -202 2 -55 9 -106 15 -112 8 -8 9 19 6 98
l-6 110 52 32 c48 29 52 30 46 10 -7 -20 -6 -21 12 -2 24 22 18 51 -11 55 -17
2 -20 9 -18 33 2 17 6 32 7 34 8 7 36 -29 30 -39 -3 -5 -1 -10 4 -10 6 0 11
-7 11 -16 0 -13 3 -14 13 -5 14 11 27 5 27 -11 0 -5 -4 -7 -9 -3 -11 6 -31
-26 -31 -49 0 -23 14 -20 25 6 12 26 25 31 45 18 12 -8 13 -11 1 -19 -16 -10
3 -26 19 -16 6 3 10 1 10 -5 0 -7 7 -10 15 -6 18 7 19 -5 3 -24 -7 -8 -3 -6
10 5 21 17 21 21 8 31 -14 10 -14 13 2 28 10 9 30 16 44 16 15 0 28 6 31 13 4
9 7 9 18 0 10 -10 3 -17 -35 -34 -26 -11 -45 -23 -42 -26 3 -3 -4 -23 -14 -43
l-20 -39 29 -23 c16 -13 36 -27 44 -33 11 -7 17 -28 19 -65 3 -50 1 -55 -17
-52 -11 2 -27 11 -37 20 -20 20 -59 148 -51 168 3 8 0 14 -6 14 -13 0 -14 -15
-2 -56 6 -22 4 -48 -6 -85 -21 -77 -30 -207 -22 -319 1 -19 -1 -64 -6 -100 -6
-54 -5 -63 6 -52 7 6 16 12 20 12 8 0 3 -259 -5 -268 -3 -3 -6 2 -6 11 0 10
-4 17 -10 17 -5 0 -10 -25 -10 -56 0 -74 -12 -94 -54 -92 l-34 1 20 56 c10 31
22 88 25 126 3 39 11 76 17 84 9 12 8 12 -11 0 -20 -12 -23 -22 -23 -75 0 -56
-19 -142 -38 -172 -7 -10 -112 -25 -112 -16 0 2 9 18 19 36 30 50 61 153 61
198 0 39 1 40 23 29 16 -8 14 -4 -8 15 -16 14 -33 25 -36 26 -11 0 -19 29 -13
44 3 8 26 31 51 50 26 20 40 36 31 36 -8 0 -25 -11 -38 -25 -13 -14 -25 -24
-26 -22 -2 2 3 24 11 50 8 26 19 74 25 106 9 51 17 65 65 113 30 30 55 61 55
68 0 7 -9 2 -20 -11 l-21 -24 3 42 c1 23 -1 45 -5 49 -4 4 -7 -17 -7 -47 0
-49 -4 -59 -33 -87 -18 -18 -42 -32 -54 -32 -29 0 -76 57 -120 143 -42 84 -45
124 -14 212 26 72 27 97 2 36 l-18 -45 -10 40 c-7 32 -9 20 -8 -66 1 -99 3
-109 38 -182 20 -42 37 -90 37 -106 0 -62 -13 -151 -22 -146 -5 3 -6 15 -2 27
5 17 4 19 -6 10 -7 -6 -19 -9 -26 -6 -12 4 -12 0 -5 -20 8 -20 7 -25 -3 -21
-10 4 -15 52 -19 192 -7 186 -26 326 -48 346 -9 8 -10 5 -5 -14 4 -14 9 -40
13 -58 5 -28 3 -32 -13 -26 -17 5 -16 3 3 -13 28 -24 42 -103 19 -103 -9 0
-16 2 -16 4 0 18 -53 203 -61 210 -16 17 -10 29 8 15 15 -13 16 -12 7 6 -5 11
-9 46 -8 78 0 80 24 111 88 115 26 2 53 -1 60 -7 9 -7 19 -6 34 5 13 9 31 13
42 9 18 -6 17 -1 -10 41 -50 80 -63 161 -37 236 12 34 14 35 25 17 10 -16 10
-19 -3 -19 -8 0 -15 -4 -15 -10 0 -12 52 -5 82 11 12 7 26 13 30 14 3 0 10 3
14 8 4 4 -11 7 -34 7 -57 0 -99 48 -56 64 22 9 24 8 24 -9 0 -22 46 -41 63
-26 8 6 23 8 33 4 17 -6 18 -5 4 12 -32 42 -55 55 -87 52 -18 -2 -33 0 -33 3
0 17 65 91 84 96 13 3 74 7 137 10 63 2 124 4 137 5 22 1 21 3 -13 36 -24 23
-43 56 -57 99 -11 35 -19 66 -17 69 15 14 49 -12 68 -52 12 -25 24 -43 27 -40
3 3 -4 24 -16 48 -22 41 -22 43 -4 56 11 7 27 20 36 28 10 8 20 10 23 5 4 -6
1 -10 -4 -10 -6 0 -11 -5 -11 -12 0 -6 3 -9 6 -6 5 6 44 -26 44 -36 0 -2 -9
-6 -20 -9 -11 -3 -20 -10 -20 -16 0 -7 9 -6 23 4 13 8 27 12 32 8 4 -5 5 2 2
15 -6 27 -1 28 13 2 9 -17 6 -21 -25 -34 -19 -8 -35 -17 -35 -20 0 -3 20 3 44
14 l44 18 30 -46 c52 -82 64 -111 57 -145 -5 -27 -4 -29 6 -14 17 28 3 76 -43
153 -48 80 -92 122 -167 160 -44 23 -56 25 -72 16 -21 -13 -26 -3 -7 16 9 9 9
12 1 12 -7 0 -20 -13 -29 -29 -28 -47 -139 -86 -170 -60 -9 7 -21 6 -41 -4
-22 -11 -36 -11 -65 -3 -40 12 -91 54 -82 67 3 5 -1 9 -9 9 -7 0 -23 10 -35
23 -24 25 -57 97 -44 97 4 0 13 -15 20 -34 13 -36 44 -69 68 -72 12 -2 13 1 4
11 -7 8 -17 13 -22 12 -6 -1 -13 4 -16 12 -3 8 0 11 7 7 8 -5 8 0 1 19 -13 34
-13 58 0 50 5 -3 18 -1 29 4 14 8 29 7 56 -5 60 -25 52 -8 -11 24 -33 17 -67
39 -77 50 -17 19 -17 20 18 41 43 25 65 72 65 140 0 27 5 53 10 56 22 13 9 44
-24 60 -18 9 -45 28 -60 43 l-26 28 60 42 c63 45 70 44 44 -7 -10 -21 -13 -42
-9 -64 l7 -32 -24 20 c-13 11 -11 7 6 -9 28 -27 30 -28 37 -10 13 36 32 215
23 224 -5 4 -18 10 -29 12 -11 2 -24 13 -30 26 -9 21 -35 31 -92 35 -13 1 -23
4 -23 8 0 4 -47 7 -105 7 -58 1 -110 4 -116 7 -6 4 -13 -2 -16 -14 -3 -11 -9
-18 -14 -15 -5 3 -7 10 -4 15 4 5 -5 9 -18 9 -21 0 -24 -4 -19 -27 4 -27 4
-28 -12 -8 -12 14 -19 16 -22 8 -3 -7 -11 -13 -17 -13 -7 1 -2 9 10 19 18 15
20 20 9 24 -8 3 -17 1 -20 -6 -3 -9 -8 -8 -16 3 -10 12 -11 11 -7 -8 3 -12 1
-20 -4 -16 -5 3 -9 12 -9 20 0 8 -4 14 -10 14 -5 0 -10 -9 -10 -19 0 -14 -5
-18 -20 -14 -11 3 -20 12 -20 19 0 11 -7 13 -26 8 -21 -5 -25 -4 -19 6 6 10 4
12 -9 7 -10 -4 -24 -7 -32 -7 -11 0 -9 -7 6 -32 23 -39 26 -62 4 -33 -8 11
-23 20 -32 21 -9 1 -27 2 -39 3 -13 0 -23 6 -23 12 0 7 12 10 30 7 24 -4 27
-2 19 9 -7 7 -18 13 -27 13 -8 0 -12 3 -9 6 3 4 2 15 -3 25 -15 27 -112 21
-138 -9 -24 -27 -42 -28 -42 -3 0 11 -4 23 -10 26 -5 3 -10 0 -10 -7 0 -9 -3
-9 -8 -2 -9 14 -38 24 -46 17z m43 -69 c-12 -15 -11 -16 11 -10 23 7 23 6 -5
-14 -24 -17 -25 -20 -8 -15 16 4 25 0 33 -14 6 -12 16 -18 26 -14 9 3 27 -6
44 -22 17 -16 32 -26 35 -23 4 3 -6 15 -21 27 -24 19 -24 26 -1 22 20 -3 -4
27 -38 47 -11 6 -14 12 -7 12 7 0 30 -16 50 -36 20 -20 52 -43 70 -51 18 -7
30 -18 27 -23 -3 -5 -1 -11 5 -15 5 -3 10 -10 10 -15 0 -4 -14 5 -31 21 -39
37 -54 37 -33 2 11 -19 11 -22 1 -10 -18 21 -27 22 -27 2 0 -8 -5 -15 -11 -15
-5 0 -7 -5 -3 -12 4 -6 3 -8 -4 -5 -5 4 -8 15 -5 26 6 25 -24 36 -36 12 -7
-12 -6 -22 1 -29 7 -7 9 -12 4 -12 -19 0 -37 30 -27 48 8 15 1 22 -44 47 -30
16 -52 31 -50 34 6 11 -67 3 -77 -7 -14 -14 1 -35 22 -29 18 5 46 -28 30 -38
-5 -3 -13 2 -18 11 -9 16 -12 15 -41 -5 -30 -22 -43 -17 -19 7 17 17 2 27 -24
14 -13 -6 -17 -11 -10 -11 22 -2 13 -21 -10 -22 -20 -1 -19 -2 5 -9 28 -9 57
-4 67 11 3 4 14 1 25 -7 11 -9 15 -17 9 -23 -11 -11 -125 4 -133 17 -3 5 -15
12 -26 15 -19 5 -19 5 3 12 15 5 21 13 18 22 -7 17 25 48 71 69 42 18 67 17
28 -2 l-30 -14 30 6 c17 4 43 8 58 9 15 1 33 7 39 13 18 18 32 14 17 -4z
m-949 -1661 c0 -15 2 -15 9 -4 8 12 14 10 35 -10 30 -28 35 -51 6 -24 -18 16
-25 17 -54 7 -18 -7 -41 -12 -52 -13 -11 0 -14 -3 -6 -6 7 -3 19 -20 27 -39 8
-19 24 -38 36 -42 29 -11 69 8 69 33 0 14 3 16 11 8 6 -6 17 -9 24 -7 8 4 15
-7 18 -28 3 -18 8 -43 12 -56 7 -22 6 -22 -34 -16 -28 4 -41 3 -41 -5 0 -6 -4
-11 -10 -11 -5 0 -9 6 -7 12 1 7 -24 26 -57 43 -32 17 -65 40 -73 52 -20 30
-9 87 20 108 30 21 67 20 67 -2z m212 -288 c-3 -5 2 -4 11 4 15 12 22 10 56
-13 23 -16 44 -24 55 -20 12 5 15 2 10 -11 -4 -10 -1 -21 7 -26 16 -10 -8 -13
-73 -11 -29 2 -38 -2 -38 -14 0 -11 5 -14 16 -10 9 3 25 -1 37 -10 l22 -16
-24 7 c-17 5 -21 4 -16 -5 5 -8 25 -11 61 -8 33 3 55 0 57 -6 3 -7 -9 -10 -33
-8 -21 2 -40 0 -44 -6 -3 -5 6 -7 22 -4 27 5 27 5 8 -17 -22 -25 -107 -67
-153 -76 -25 -5 -33 -3 -33 8 0 8 7 17 15 21 8 3 15 1 15 -5 0 -6 5 -7 10 -4
6 4 8 10 5 15 -3 5 4 27 16 49 19 38 19 61 -1 61 -5 0 -7 -7 -4 -15 4 -8 1
-15 -5 -15 -6 0 -11 7 -11 15 0 8 -7 15 -15 15 -9 0 -15 9 -15 25 l0 25 83 -5
c52 -3 75 -2 62 4 -11 4 -23 7 -27 4 -5 -2 -8 5 -8 16 0 24 -17 26 -44 6 -27
-20 -76 -20 -76 1 0 9 5 13 13 9 6 -4 4 0 -5 8 -26 21 -22 26 16 24 20 -1 31
-6 28 -12z m-245 -98 c-2 -7 6 -19 17 -28 30 -22 126 -60 126 -48 0 5 -5 9
-11 9 -26 0 -117 52 -122 70 -7 26 -2 25 29 -3 14 -13 48 -30 75 -37 40 -11
48 -17 43 -32 -4 -14 0 -18 16 -18 12 0 18 -4 15 -10 -3 -5 -1 -10 6 -10 6 0
-1 -10 -16 -22 l-27 -21 23 -13 c13 -7 20 -13 16 -14 -5 0 -16 4 -25 9 -9 5
-46 10 -82 12 -60 4 -67 6 -92 38 -32 38 -33 42 -16 59 6 6 11 27 10 47 -1 22
2 33 9 29 5 -3 8 -11 6 -17z m1748 -827 c4 -6 11 -8 16 -5 5 4 9 1 9 -6 0 -8
11 -10 35 -6 47 8 104 -13 176 -65 62 -46 66 -53 46 -77 -7 -9 -19 -38 -26
-66 -6 -27 -14 -51 -15 -53 -2 -2 -21 4 -42 13 l-38 16 23 -25 c13 -14 18 -26
12 -30 -5 -4 -15 3 -21 14 -15 27 -25 25 -60 -10 -34 -34 -45 -68 -36 -105 5
-18 2 -25 -9 -25 -8 0 -15 -4 -15 -9 0 -18 29 -32 87 -42 57 -10 62 -9 122 21
58 30 62 34 59 63 -2 22 -10 35 -25 42 -22 9 -32 35 -15 35 5 0 14 17 20 37 9
28 9 39 -1 45 -6 4 -8 10 -4 14 3 4 13 2 20 -4 21 -17 30 -1 11 19 -19 21 -10
46 11 29 32 -27 58 -115 62 -211 3 -91 2 -99 -21 -126 -14 -16 -52 -40 -85
-54 -34 -13 -61 -26 -61 -29 0 -4 -38 -7 -84 -9 -97 -2 -125 7 -205 68 -62 46
-61 49 2 22 45 -20 194 -47 204 -37 3 2 -12 8 -33 11 -119 20 -249 71 -261
101 -3 8 5 26 18 40 17 19 19 23 6 18 -23 -8 -22 8 4 40 11 14 17 26 13 26 -4
0 7 15 25 34 22 23 29 36 21 41 -6 4 -17 2 -23 -5 -9 -10 -9 -11 2 -5 9 5 12
4 7 -3 -4 -7 -13 -12 -20 -12 -20 0 -66 24 -66 35 0 25 22 33 110 39 74 4 101
2 124 -9 27 -14 28 -14 15 2 -7 10 -20 24 -28 30 -13 11 -11 17 15 44 31 33
84 65 84 51 0 -4 -5 -13 -10 -18 -6 -6 -7 -20 -3 -32 8 -21 8 -21 20 4 6 13 7
22 2 18 -16 -9 -10 13 7 27 14 12 14 14 -3 20 -10 3 -32 -1 -49 -9 -30 -14
-33 -13 -55 7 -12 11 -26 21 -29 21 -3 0 -21 11 -40 25 -19 14 -29 25 -23 25
7 0 15 -5 18 -10z m-641 -185 c-7 -17 -121 -115 -135 -115 -11 0 -32 -40 -25
-48 4 -3 24 13 47 36 42 45 63 53 57 25 -2 -10 -18 -26 -37 -35 -19 -9 -41
-24 -50 -33 -14 -13 -14 -15 1 -15 9 0 20 5 23 10 4 6 11 7 17 4 7 -5 8 -2 3
6 -6 10 -4 12 9 7 9 -4 14 -3 11 2 -3 5 -1 12 5 16 5 3 10 -1 10 -9 0 -8 4
-17 9 -20 5 -3 9 9 9 28 0 43 14 68 46 86 35 18 41 9 21 -31 -12 -22 -19 -28
-25 -19 -5 9 -9 9 -14 1 -4 -6 0 -14 9 -17 13 -5 15 -14 10 -43 -4 -20 -10
-38 -15 -41 -4 -3 -2 -11 6 -18 8 -7 14 -8 14 -2 0 5 5 10 10 10 5 0 9 -3 9
-7 -4 -26 3 -34 27 -31 17 2 31 -3 38 -14 14 -23 0 -35 -24 -20 -11 7 -26 12
-34 12 -7 0 -19 7 -26 15 -7 8 -16 12 -21 9 -5 -3 -2 -13 7 -21 15 -15 14 -17
-7 -26 l-24 -9 26 -10 c31 -11 39 -32 39 -110 0 -75 -26 -108 -90 -115 -44 -5
-46 -4 -62 31 -10 20 -22 36 -28 36 -15 0 -12 15 10 40 28 33 34 58 16 76 -9
8 -20 13 -25 10 -5 -3 -13 11 -18 33 -8 28 -7 42 3 56 24 32 15 42 -10 11 -15
-18 -26 -24 -30 -17 -11 17 -58 1 -83 -28 -12 -14 -25 -46 -29 -70 -9 -57 13
-100 70 -138 22 -15 43 -29 45 -30 2 -2 2 -5 -1 -8 -8 -9 -136 26 -146 39 -9
11 -37 97 -35 106 1 3 5 14 9 24 5 13 4 17 -3 13 -16 -10 -21 76 -8 127 6 22
23 61 37 85 l26 44 22 -43 c12 -23 23 -40 25 -38 2 1 0 22 -4 45 l-8 42 32
-25 c17 -13 36 -24 40 -24 5 0 0 7 -11 15 -10 8 -14 15 -9 15 18 0 34 -21 28
-37 -4 -11 -1 -12 21 -2 14 7 26 18 26 24 0 19 -27 37 -47 31 -13 -4 -22 2
-30 21 -21 44 2 51 52 15 19 -13 19 -14 -4 -7 -16 5 -21 4 -17 -4 4 -6 16 -11
27 -11 10 0 19 -6 20 -12 0 -9 2 -9 6 1 3 7 25 33 50 57 35 35 49 43 68 38 12
-3 26 -1 29 5 10 16 16 13 10 -4z m936 -410 c0 -2 -12 -12 -27 -20 -16 -9 -19
-13 -8 -10 48 17 55 17 55 3 0 -8 -6 -20 -12 -27 -11 -10 -8 -11 12 -7 14 3
42 8 63 11 25 4 41 13 45 25 5 14 11 17 21 10 10 -6 12 -12 5 -22 -12 -15 -12
-67 -1 -85 4 -7 14 -10 21 -7 8 3 16 -4 19 -15 3 -15 -3 -27 -20 -41 -14 -11
-30 -20 -34 -20 -5 0 -22 -21 -39 -47 -16 -27 -30 -42 -30 -34 0 20 49 101 60
101 6 0 10 7 10 15 0 10 -10 15 -32 15 -17 0 -50 8 -72 19 -23 10 -78 36 -123
56 -46 21 -83 41 -83 44 0 3 12 7 28 7 50 3 77 8 102 21 26 13 40 16 40 8z
m-77 -173 c29 0 55 4 58 9 3 6 16 6 32 0 15 -6 35 -8 44 -5 12 4 10 -1 -7 -15
-30 -25 -59 -29 -40 -6 20 24 -6 18 -36 -7 -14 -13 -31 -32 -36 -43 -8 -14 -1
-11 21 9 17 16 34 27 37 23 8 -7 -57 -66 -74 -67 -9 0 -8 -7 5 -24 18 -24 61
-31 74 -12 4 5 10 -1 13 -12 8 -24 -19 -72 -40 -72 -8 0 -3 10 13 26 14 14 23
28 19 31 -3 3 -22 -11 -43 -31 -21 -20 -40 -36 -44 -36 -4 0 -10 16 -13 35
-11 56 -45 124 -69 136 l-22 10 21 -18 c12 -10 28 -38 37 -63 20 -57 41 -179
33 -187 -3 -4 -6 3 -6 14 0 36 -32 123 -43 116 -6 -3 -7 -2 -4 4 4 6 -9 47
-28 92 -19 46 -35 84 -35 87 0 2 14 4 32 4 l31 0 -19 22 -19 22 28 -21 c21
-16 42 -22 80 -21z m-795 5 c32 -1 39 -11 23 -36 -5 -8 -16 -11 -30 -6 -12 3
-18 11 -15 17 4 6 -2 5 -15 -1 -17 -10 -19 -15 -11 -31 6 -11 13 -20 16 -20 3
0 2 5 -1 10 -3 6 1 10 9 10 20 0 20 -5 0 -24 -8 -9 -11 -16 -5 -16 6 0 11 -14
11 -31 0 -17 -4 -28 -10 -24 -5 3 -10 -3 -10 -14 0 -13 5 -18 13 -15 10 3 13
-3 9 -25 -10 -71 42 -192 82 -191 6 0 1 8 -12 18 -13 10 -25 32 -28 50 -4 25
1 38 28 67 21 22 46 37 68 41 l35 7 -26 -21 c-29 -24 -43 -63 -34 -93 11 -33
23 -20 18 19 -6 44 14 68 48 59 16 -4 19 -2 15 10 -5 13 -4 14 9 3 20 -17 19
-1 -2 22 -10 11 -30 18 -55 18 -37 0 -38 1 -38 38 0 56 10 82 31 82 13 0 21
-11 28 -38 12 -41 60 -122 74 -122 5 0 -3 16 -18 36 -26 35 -60 122 -50 132 2
2 11 2 20 -2 10 -4 14 -13 10 -29 -3 -12 -2 -34 4 -47 8 -21 10 -14 12 40 1
36 4 52 6 35 10 -75 36 -165 65 -228 22 -48 28 -71 21 -78 -8 -8 -13 -1 -18
22 l-7 33 -19 -35 c-10 -18 -18 -30 -19 -25 0 5 -6 3 -14 -4 -8 -6 -35 -12
-59 -13 -25 -1 -43 -6 -40 -10 3 -5 -4 -4 -15 2 -32 17 -40 13 -14 -7 22 -17
22 -18 2 -19 -11 -1 -20 4 -20 11 0 10 -39 36 -55 36 -9 0 3 -32 14 -39 10 -6
9 -10 -4 -14 -9 -4 -13 -3 -10 3 3 6 1 10 -5 10 -6 0 -10 6 -9 13 4 20 -13 67
-21 62 -5 -3 -6 3 -4 12 3 10 1 36 -5 58 l-9 40 -1 -50 c-1 -27 -6 -57 -12
-65 -7 -11 -9 26 -5 128 6 142 6 144 -19 177 -19 24 -22 34 -13 38 7 3 -45 6
-117 8 -87 1 -114 4 -80 8 28 3 95 4 150 2 55 -2 115 -4 133 -4z m496 -26 c12
-45 16 -95 7 -81 -6 8 -11 20 -11 27 0 18 -20 66 -25 61 -3 -2 2 -25 11 -50
16 -49 15 -52 -33 -103 -7 -8 -13 -26 -14 -42 l-1 -28 -8 25 c-4 14 -9 54 -10
90 -3 93 -18 134 -19 52 -1 -92 45 -292 68 -292 5 0 3 12 -5 28 -7 15 -14 51
-14 81 0 50 3 57 36 88 30 27 44 33 82 33 49 0 125 -37 136 -66 6 -15 5 -15
-18 0 -41 27 -44 18 -3 -11 21 -15 40 -37 43 -49 8 -30 1 -69 -11 -69 -5 -1
-20 -6 -32 -13 -19 -11 -21 -10 -16 11 4 18 3 19 -6 7 -6 -8 -11 -24 -11 -35
0 -12 -3 -16 -8 -9 -25 38 -103 45 -126 12 -9 -12 -16 -18 -16 -13 0 6 -4 5
-8 -2 -6 -9 -15 -8 -39 7 -24 15 -30 24 -26 42 4 19 3 20 -7 8 -10 -13 -11
-11 -7 7 3 12 1 37 -3 55 l-8 33 -3 -35 c-9 -121 -14 -109 73 -175 43 -33 78
-61 78 -63 0 -1 -12 4 -27 12 -50 27 -127 91 -140 116 -7 14 -13 21 -13 16 0
-5 -7 -3 -16 5 -8 7 -13 21 -10 32 2 10 2 16 -1 13 -4 -3 -12 -1 -20 5 -21 18
-15 -3 12 -43 30 -44 32 -55 6 -31 -20 19 -57 98 -41 88 15 -9 12 12 -7 48
-20 39 -32 227 -14 227 6 0 11 -6 12 -12 0 -10 2 -10 6 0 3 8 28 12 74 12 l69
0 2 -82 2 -83 3 75 c2 41 5 80 8 87 5 16 43 4 49 -16z m-52 -356 c16 -14 34
-23 39 -19 5 3 8 0 7 -7 -2 -6 3 -14 11 -17 9 -3 11 0 6 8 -5 9 -4 11 4 6 6
-4 9 -11 6 -16 -3 -5 19 -28 50 -51 39 -30 60 -39 72 -34 10 5 23 7 28 6 6 0
-8 15 -30 35 l-40 36 55 -36 c58 -38 93 -49 70 -21 -7 8 -9 15 -5 15 4 0 1 7
-6 17 -13 15 -12 15 8 2 18 -11 21 -20 17 -48 -11 -68 -22 -84 -54 -79 -16 2
-27 1 -25 -3 5 -7 -31 -19 -70 -24 -11 -2 -38 -8 -59 -14 -22 -6 -41 -9 -41
-8 -1 1 -7 16 -12 32 -6 17 -14 39 -19 49 -6 16 -4 18 9 13 9 -3 17 -3 17 1 0
13 84 32 95 21 12 -12 28 -12 20 1 -3 5 -49 41 -101 80 -51 38 -94 72 -94 75
0 10 13 4 42 -20z"/>
<path d="M1440 3435 c-7 -9 -16 -12 -19 -7 -3 5 -23 -13 -44 -40 -20 -26 -33
-47 -28 -46 5 2 8 -1 7 -7 0 -5 -9 -9 -19 -8 -27 4 -70 -21 -106 -62 -28 -32
-35 -35 -66 -29 -23 4 -35 2 -35 -5 0 -6 14 -11 30 -11 33 0 34 -2 20 -33 -9
-20 -9 -20 2 -3 48 70 81 105 112 120 33 15 38 15 66 1 16 -8 30 -11 30 -6 0
5 -6 12 -12 15 -9 3 -5 11 11 26 30 26 64 20 104 -18 15 -14 27 -21 27 -15 0
5 -9 18 -20 28 -20 19 -20 19 10 31 22 10 30 20 30 39 0 33 -5 32 -41 -10 -36
-41 -53 -45 -47 -11 5 23 4 24 -18 10 -24 -16 -38 -7 -23 16 7 13 9 13 9 1 0
-10 8 -7 25 9 28 26 42 22 26 -8 -6 -12 -11 -24 -11 -28 0 -10 40 28 51 48 8
16 5 18 -24 18 -19 0 -40 -7 -47 -15z"/>
<path d="M1102 3365 c-15 -11 -22 -26 -22 -49 0 -20 -8 -40 -20 -51 -10 -9
-27 -40 -36 -67 -25 -75 -28 -50 -4 30 12 39 20 81 18 94 -3 18 -7 12 -18 -24
-8 -27 -17 -48 -20 -48 -3 0 -18 9 -35 20 -16 11 -36 20 -44 20 -22 0 8 -31
45 -46 31 -13 31 -13 28 -84 -1 -38 2 -70 7 -70 5 0 9 6 9 13 0 27 52 117 68
118 11 0 12 2 5 6 -15 5 -18 43 -4 43 5 0 12 16 15 35 4 19 12 35 18 35 5 0 7
-7 4 -16 -3 -9 -6 -29 -6 -45 0 -17 -4 -28 -8 -25 -4 2 -6 -12 -3 -32 l4 -37
17 55 c28 91 30 106 17 124 -11 15 -14 15 -35 1z"/>
<path d="M1713 3348 c1 -13 7 -26 12 -31 6 -4 4 -11 -6 -17 -24 -14 -34 -78
-15 -99 8 -9 29 -47 46 -84 45 -94 47 -186 6 -274 -15 -34 -37 -70 -47 -79
-22 -20 -26 -42 -4 -24 20 17 19 1 -1 -22 -14 -15 -15 -23 -6 -50 l12 -33 -5
33 c-9 63 68 112 126 82 17 -10 19 -7 19 28 0 22 -7 56 -15 75 -19 45 -19 57
0 57 9 0 12 6 8 16 -3 9 0 20 8 25 11 7 11 9 -3 9 -10 0 -18 5 -18 11 0 6 6 9
14 6 8 -3 20 0 26 8 6 7 20 11 30 8 25 -7 38 23 21 49 -7 12 -8 17 -2 13 6 -3
11 0 11 8 0 8 -20 33 -44 55 l-45 41 31 16 c25 12 34 13 47 2 8 -6 5 3 -8 21
-18 26 -20 36 -11 47 12 15 6 35 -11 35 -5 0 -21 -11 -34 -24 -22 -22 -26 -23
-69 -12 -54 14 -74 29 -25 20 34 -7 34 -7 14 13 -11 11 -21 16 -23 12 -2 -5
-10 -9 -19 -9 -12 0 -12 3 2 16 13 14 14 19 3 25 -9 6 -3 9 17 10 l30 1 -27
10 c-16 5 -28 14 -28 19 0 5 -4 9 -10 9 -5 0 -9 -10 -7 -22z"/>
<path d="M483 3169 c-36 -17 -43 -26 -43 -50 0 -17 12 -42 30 -62 17 -19 30
-40 30 -46 0 -6 4 -11 9 -11 5 0 7 9 4 20 -8 28 4 25 37 -11 l29 -32 33 21
c18 12 28 22 21 22 -6 0 -15 -4 -18 -10 -13 -21 -46 -10 -56 19 -5 15 -21 34
-35 41 -16 9 -21 17 -14 24 6 6 16 3 30 -9 11 -10 20 -13 20 -7 0 7 -4 12 -10
12 -5 0 -10 4 -10 9 0 11 50 11 72 0 9 -5 19 -21 21 -37 3 -15 3 -5 1 22 -2
27 1 57 7 67 12 22 1 24 -25 4 -10 -8 -23 -12 -29 -8 -5 3 -3 10 4 15 10 7 7
8 -11 4 -14 -3 -33 -6 -42 -6 -12 0 -18 -8 -19 -22 -1 -18 -2 -19 -6 -5 -2 9
-8 15 -13 12 -5 -3 -11 -1 -14 4 -8 13 6 20 56 30 36 7 38 9 13 10 -16 0 -49
-8 -72 -20z"/>
<path d="M1213 3033 c0 -40 4 -73 8 -73 5 0 9 -11 9 -25 0 -32 63 -107 115
-137 14 -8 13 -3 -8 21 -15 18 -27 36 -27 41 0 5 -3 15 -6 23 -5 13 1 14 36 6
31 -7 47 -6 71 7 37 19 33 29 -5 14 -50 -19 -92 -13 -111 16 -16 24 -16 27 1
45 19 22 63 25 83 7 11 -10 13 -10 7 0 -11 18 8 15 36 -8 14 -10 28 -17 31
-13 4 3 13 0 22 -7 9 -7 18 -10 21 -7 3 3 -8 13 -25 22 -17 8 -31 20 -31 26 0
6 -7 9 -15 6 -8 -4 -17 -2 -20 3 -3 4 1 11 7 13 15 6 -64 -1 -102 -8 l-25 -5
23 19 c12 11 22 22 22 25 0 13 -16 5 -50 -24 -50 -43 -58 -39 -63 28 -3 51 -4
50 -4 -15z"/>
<path d="M929 3067 c-22 -20 -27 -34 -32 -102 -6 -84 6 -126 40 -139 15 -6 14
-4 -3 16 l-19 23 23 -19 c29 -25 28 -32 -8 -39 -26 -6 -30 -11 -30 -39 0 -18
-3 -43 -6 -54 -4 -17 1 -26 25 -40 33 -19 34 -29 14 -98 -3 -10 -1 -16 4 -13
5 4 23 46 39 94 16 48 37 94 47 101 18 14 23 57 7 67 -5 3 -10 -1 -10 -9 0 -9
-5 -16 -11 -16 -6 0 -9 -9 -6 -20 3 -11 -2 -25 -10 -32 -14 -11 -15 -8 -9 22
4 19 16 47 26 61 24 34 10 61 -28 53 -48 -10 -64 35 -37 100 7 16 5 18 -9 13
-14 -6 -16 -3 -10 16 3 12 15 34 26 50 23 33 12 35 -23 4z"/>
<path d="M1155 2957 c2 -37 13 -88 25 -114 25 -57 25 -61 -2 -37 -13 12 -18
13 -13 4 29 -49 59 -85 92 -112 35 -27 81 -97 83 -124 0 -18 -53 -4 -80 22
-35 32 -83 41 -115 20 -13 -9 -26 -16 -29 -16 -9 0 29 124 40 127 6 2 19 -15
29 -37 10 -22 24 -45 32 -51 19 -16 16 -2 -5 29 -25 36 -61 125 -66 159 -7 53
-18 83 -31 83 -8 0 -21 7 -30 16 -12 13 -19 14 -28 5 -8 -8 -6 -15 9 -26 10
-8 14 -15 9 -15 -6 0 -16 5 -23 12 -9 9 -15 9 -24 0 -9 -9 -8 -16 6 -31 9 -10
16 -25 14 -32 -3 -15 -1 -15 50 -6 24 5 32 3 32 -8 0 -9 -6 -12 -15 -9 -8 4
-15 2 -15 -2 1 -12 30 -50 30 -39 0 5 5 4 10 -1 8 -8 7 -19 -1 -38 l-12 -26
-16 47 c-12 35 -21 48 -35 48 -27 0 -33 -25 -7 -32 27 -7 34 -35 28 -115 -6
-82 -10 -101 -22 -110 -19 -14 4 -20 35 -10 16 6 57 14 90 18 40 4 57 10 53
18 -4 7 -1 6 8 -1 8 -7 44 -15 80 -18 35 -4 79 -10 97 -15 31 -8 32 -7 32 23
l0 31 -16 -22 c-13 -18 -19 -21 -30 -11 -17 14 -19 55 -2 65 7 4 8 3 4 -4 -4
-7 -2 -12 4 -12 8 0 10 9 6 25 -5 18 -2 27 9 31 12 5 13 9 4 20 -6 8 -18 14
-25 14 -8 0 -14 5 -14 11 0 8 12 10 35 6 33 -5 35 -4 35 22 0 26 -2 27 -52 27
-29 0 -62 4 -73 9 -19 8 -19 8 1 -16 53 -62 74 -129 40 -129 -21 0 -114 128
-131 180 -19 58 -30 63 -14 7 5 -20 30 -66 54 -102 42 -63 43 -65 14 -48 -41
24 -88 66 -67 59 12 -3 7 9 -16 39 -38 49 -65 122 -77 205 -8 54 -8 54 -4 -13z"/>
<path d="M2322 2881 c-9 -5 -11 -17 -6 -35 5 -20 2 -30 -11 -40 -22 -16 -14
-31 26 -51 26 -14 34 -14 80 1 29 10 57 27 66 40 14 22 13 25 -17 51 -43 36
-60 46 -60 35 0 -6 7 -13 16 -16 31 -12 8 -15 -31 -5 -28 8 -35 13 -24 20 11
7 10 9 -6 9 -11 0 -26 -4 -33 -9z"/>
<path d="M1570 2793 c-41 -5 -60 -19 -60 -42 0 -22 23 -71 33 -71 4 0 3 10 -4
21 -9 17 -8 20 3 17 21 -8 12 -80 -12 -97 -19 -13 -28 -41 -12 -41 4 0 15 -14
24 -30 10 -18 13 -30 6 -30 -7 0 -9 -23 -4 -76 10 -104 18 -124 56 -124 16 0
30 5 30 10 0 6 -13 10 -29 10 -25 0 -29 4 -35 38 -10 63 -7 134 5 126 12 -7
12 -6 -10 38 -11 22 -12 30 -1 43 7 8 20 15 29 15 9 0 22 13 28 31 10 26 10
30 -3 25 -9 -4 -14 1 -14 14 0 11 -4 20 -10 20 -16 0 -12 32 9 73 10 20 16 36
12 35 -3 0 -22 -3 -41 -5z"/>
<path d="M2910 2193 c-13 -78 -11 -385 3 -376 6 3 8 -10 5 -31 -2 -20 -1 -36
3 -36 7 0 18 -25 23 -54 8 -39 100 -206 114 -206 4 0 13 10 21 22 17 27 33 80
22 74 -4 -3 -14 6 -21 19 -10 19 -10 30 -2 47 l11 23 0 -25 c1 -19 3 -22 10
-10 6 8 7 19 3 24 -6 11 -4 70 4 101 3 11 -6 1 -21 -23 -17 -27 -24 -49 -20
-62 3 -11 3 -25 0 -31 -11 -16 -54 54 -61 98 -3 21 -10 43 -15 50 -7 7 -6 13
0 17 6 4 15 -1 20 -11 27 -47 28 -47 56 -17 22 23 28 26 36 14 8 -11 9 -5 7
23 -3 30 -1 37 14 37 10 0 18 1 18 3 0 2 4 28 10 58 23 129 21 172 -15 254
-43 100 -50 105 -18 14 23 -68 45 -239 30 -239 -7 0 -52 145 -66 210 -7 35 -8
24 -4 -51 4 -66 2 -98 -6 -103 -7 -5 -8 -13 -2 -24 8 -14 4 -17 -22 -17 -37 0
-44 17 -23 50 19 29 33 32 39 8 3 -12 5 -9 6 8 0 14 -2 28 -5 32 -6 6 -50 -37
-57 -56 -9 -25 -17 2 -23 74 -3 41 -8 81 -11 89 -3 8 -5 26 -4 40 2 14 -1 21
-6 17 -4 -5 -7 -72 -5 -150 2 -130 1 -144 -17 -167 l-21 -25 -1 80 c-3 117 2
215 11 258 4 20 4 37 0 37 -4 0 -13 -30 -20 -67z"/>
<path d="M1279 2162 c-45 -40 -45 -94 -1 -133 43 -39 84 -38 123 0 36 36 39
76 7 86 -20 6 -20 8 -5 12 26 7 21 21 -15 43 -45 27 -72 25 -109 -8z"/>
<path d="M1818 2161 c-27 -24 -33 -36 -33 -71 0 -35 6 -46 30 -66 35 -28 64
-30 105 -9 35 18 50 43 50 84 0 29 -14 49 -23 34 -2 -5 -2 -2 0 5 5 20 -38 51
-69 52 -17 0 -41 -12 -60 -29z"/>
<path d="M1595 2028 c-11 -6 -34 -24 -51 -40 -17 -16 -37 -28 -45 -26 -7 2
-13 -3 -14 -11 0 -8 -5 -16 -12 -18 -18 -6 -9 28 12 43 10 8 16 14 12 14 -7 0
-152 -97 -199 -134 -15 -12 -27 -25 -27 -30 -1 -5 5 -3 13 3 8 6 20 10 27 9 8
-2 13 2 12 9 -3 16 23 36 50 37 12 1 22 7 22 16 0 14 6 16 36 12 6 -1 -20 -26
-59 -54 -38 -29 -68 -55 -67 -56 2 -2 47 28 100 67 53 40 100 69 106 65 5 -3
-31 -35 -81 -70 -49 -36 -90 -67 -90 -70 0 -9 34 14 145 95 61 44 115 79 120
78 6 -1 21 9 34 22 l23 23 -22 -7 c-15 -5 -20 -4 -16 4 4 6 2 11 -4 11 -6 0
-8 5 -5 10 8 12 5 12 -20 -2z"/>
<path d="M2817 1978 c2 -24 7 -54 10 -68 4 -14 5 -29 4 -34 -1 -4 3 -13 8 -20
5 -6 17 -40 26 -76 9 -36 23 -82 31 -103 8 -21 10 -36 5 -33 -5 4 -15 22 -21
41 -8 23 -18 35 -30 35 -24 0 -34 15 -55 78 -9 29 -19 52 -21 50 -8 -8 33
-134 49 -150 18 -19 32 -24 22 -9 -3 5 -2 12 3 15 5 3 26 -31 48 -75 42 -86
61 -110 50 -63 -5 24 -4 26 5 11 6 -10 8 -25 4 -34 -3 -9 -2 -19 2 -22 5 -3
16 -18 26 -33 12 -19 26 -28 43 -28 36 0 28 31 -13 49 -18 8 -34 20 -37 28 -4
9 3 8 21 -4 30 -20 27 -7 -7 32 -10 11 -21 30 -25 43 -3 12 -10 20 -15 17 -9
-6 -25 33 -22 52 2 7 -9 35 -23 62 -29 59 -75 211 -75 252 0 16 -4 29 -9 29
-5 0 -7 -19 -4 -42z"/>
<path d="M1645 1976 c-16 -13 -33 -22 -38 -19 -4 2 -6 0 -5 -5 2 -6 -42 -42
-96 -81 -54 -39 -102 -73 -105 -77 -13 -14 47 21 123 73 76 51 104 64 91 43
-3 -5 0 -7 8 -4 8 3 14 -2 14 -11 0 -18 -2 -18 -27 -5 -14 8 -30 1 -78 -34
-63 -47 -95 -81 -46 -50 16 10 31 21 34 24 3 3 14 6 25 8 20 3 20 2 1 -13 -11
-8 -23 -15 -28 -15 -4 0 -8 -4 -8 -10 0 -5 23 5 50 22 28 17 48 33 45 36 -2 3
-11 -1 -20 -8 -9 -7 -18 -10 -22 -7 -3 4 2 10 11 13 13 5 14 9 5 14 -7 5 -2 7
14 7 14 -1 23 -6 19 -11 -3 -5 3 -6 14 -2 21 8 19 6 -48 -47 -31 -25 -56 -56
-73 -94 -36 -74 -30 -116 22 -160 21 -18 48 -43 60 -54 19 -18 23 -19 29 -6 3
8 17 20 32 27 45 19 77 68 76 115 -1 53 -47 141 -85 164 l-30 19 78 48 c43 27
93 59 112 71 18 13 37 20 42 17 15 -9 4 -18 -80 -68 -45 -26 -84 -53 -88 -59
-4 -7 5 -4 20 6 33 21 44 22 26 1 -7 -9 13 -2 45 15 32 18 63 30 69 28 6 -2
-12 -16 -41 -32 -29 -15 -50 -30 -48 -32 2 -2 47 19 100 48 100 53 145 63 59
14 -54 -32 -109 -75 -95 -75 5 0 20 8 33 19 13 10 67 44 119 75 107 65 145 96
56 47 -32 -18 -60 -30 -63 -27 -3 2 13 14 35 25 23 11 44 26 48 32 3 6 -37
-12 -90 -41 -54 -29 -100 -50 -103 -47 -3 4 6 12 21 18 14 7 26 15 26 19 0 5
6 7 13 6 6 0 12 4 12 9 0 6 -3 9 -7 8 -4 -2 -23 4 -42 12 -35 15 -37 15 -100
-25 -71 -45 -73 -46 -73 -25 0 8 7 14 16 13 9 -2 15 2 14 9 -2 7 3 10 10 8 6
-3 26 7 42 21 29 25 29 25 3 10 -32 -19 -73 -23 -48 -5 13 10 13 10 0 6 -8 -3
-24 -9 -34 -13 -13 -5 -17 -4 -12 4 5 8 1 10 -11 5 -16 -6 -16 -5 -4 10 19 23
11 21 -24 -7z m-95 -315 c0 -17 4 -32 8 -35 4 -2 6 10 4 27 l-4 32 64 2 c73 2
88 -7 88 -53 0 -25 -9 -42 -37 -69 -20 -19 -45 -35 -55 -35 -13 0 -17 -4 -12
-12 14 -22 -84 62 -100 86 -15 24 -11 65 8 78 23 16 36 7 36 -21z"/>
</g>
</svg>
