<?xml version="1.0" standalone="no"?>
<!DOCTYPE svg PUBLIC "-//W3C//DTD SVG 20010904//EN"
 "http://www.w3.org/TR/2001/REC-SVG-20010904/DTD/svg10.dtd">
<svg version="1.0" xmlns="http://www.w3.org/2000/svg"
 width="425.000000pt" height="528.000000pt" viewBox="0 0 425.000000 528.000000"
 preserveAspectRatio="xMidYMid meet">
<metadata>
Created by potrace 1.16, written by Peter Selinger 2001-2019
</metadata>
<g transform="translate(0.000000,528.000000) scale(0.100000,-0.100000)"
fill="#000000" stroke="none">
<path d="M1040 5193 c0 -49 -4 -93 -8 -100 -4 -6 -32 -13 -62 -15 -60 -3 -67
-14 -25 -38 16 -9 31 -22 35 -30 18 -36 51 -200 50 -245 0 -28 1 -83 3 -124 2
-40 -2 -96 -8 -125 l-12 -51 -66 2 c-37 0 -67 -2 -67 -6 0 -3 26 -12 58 -18
31 -7 80 -19 107 -27 44 -12 53 -12 73 1 17 10 38 13 75 8 108 -12 142 -13
159 -4 10 6 18 6 18 1 0 -14 102 -21 122 -8 14 8 20 8 26 -1 4 -7 31 -11 65
-11 53 1 70 9 47 23 -5 3 -10 12 -9 18 0 9 2 9 6 0 7 -19 23 -16 24 5 0 14 2
14 8 -3 5 -11 6 -24 3 -29 -3 -5 38 -7 98 -3 63 3 98 2 89 -4 -8 -5 -28 -9
-46 -9 -31 0 -32 -1 -26 -37 3 -21 14 -53 24 -72 19 -36 17 -54 -5 -45 -8 3
-16 -3 -19 -15 -5 -19 -14 -20 -278 -21 -347 -3 -444 -5 -458 -14 -6 -4 -55
-2 -108 4 -54 5 -164 11 -245 12 -89 1 -152 6 -161 13 -12 9 -16 35 -18 111
-2 56 -9 110 -16 124 -9 17 -11 43 -7 79 4 36 3 52 -4 48 -5 -4 -15 0 -22 8
-7 8 -18 15 -26 15 -13 0 -64 45 -64 57 0 4 7 15 17 25 9 10 14 19 12 21 -2 1
-15 12 -29 24 l-26 23 0 -69 c-1 -71 -10 -103 -24 -82 -5 8 -26 2 -72 -22 -49
-26 -76 -34 -114 -33 -57 1 -67 19 -35 63 16 22 18 35 12 63 -6 30 -1 78 15
129 8 27 34 -10 34 -49 0 -37 20 -67 38 -56 5 3 15 33 22 66 11 53 11 62 -4
78 -10 12 -16 36 -16 65 0 48 12 62 25 30 10 -26 26 -123 25 -157 0 -15 5 -35
11 -42 19 -23 39 3 40 50 2 59 12 99 27 104 9 3 12 -14 12 -62 0 -37 4 -66 10
-66 9 0 14 14 11 32 0 4 5 25 13 45 23 60 28 94 16 107 -7 9 -7 22 0 43 6 17
10 34 9 39 -5 29 7 30 244 27 231 -3 241 -2 212 14 -20 11 -47 15 -85 13 -30
-1 -109 -2 -175 -1 -259 5 -317 2 -337 -16 -11 -10 -16 -24 -12 -35 7 -23 -3
-26 -89 -31 -37 -2 -70 -7 -74 -10 -13 -13 21 -37 53 -37 27 0 34 -4 34 -20 0
-14 -7 -20 -24 -20 -13 0 -35 -9 -50 -21 l-26 -21 -11 30 c-6 17 -20 32 -32
36 -27 7 -34 0 -20 -23 7 -11 8 -23 2 -32 -13 -20 -11 -63 3 -77 10 -10 10
-17 0 -32 -15 -25 -15 -72 0 -106 10 -22 10 -28 0 -32 -9 -3 -12 -312 -12
-1465 l1 -1462 43 -130 c43 -130 43 -130 76 -133 50 -5 82 6 76 26 -3 9 -6 42
-7 72 -3 64 -8 82 -20 74 -5 -3 -9 -1 -9 5 0 5 4 11 10 13 10 3 -5 346 -19
421 -5 27 -4 50 1 55 9 9 55 4 62 -7 8 -13 17 -275 16 -458 l-1 -193 43 0 c52
0 423 28 458 35 14 2 60 6 103 7 65 2 77 5 77 20 0 9 4 19 9 22 4 3 6 17 4 31
-4 17 0 27 12 31 21 8 37 -14 29 -39 -3 -9 -2 -31 1 -48 6 -26 10 -30 31 -25
15 4 24 2 24 -5 0 -6 11 -25 25 -41 21 -24 25 -37 19 -62 -3 -17 -12 -38 -20
-47 -18 -20 -18 -34 1 -49 8 -7 15 -18 15 -24 0 -6 -7 -2 -16 9 -11 14 -24 19
-52 16 -39 -3 -66 -20 -44 -28 6 -3 12 -11 12 -19 0 -7 8 -13 18 -12 35 3 52
-2 52 -16 0 -11 10 -13 40 -9 26 4 40 2 40 -6 0 -6 -14 -11 -32 -11 -30 0 -31
-1 -12 -15 18 -14 18 -14 -8 -15 -20 0 -28 5 -28 18 0 34 -16 45 -54 38 -41
-8 -40 -26 1 -26 15 0 24 -3 20 -6 -9 -10 17 -32 47 -40 14 -3 24 -10 21 -14
-6 -10 24 -22 35 -15 5 3 11 1 15 -5 3 -5 -1 -10 -9 -10 -9 0 -16 -5 -16 -11
0 -8 12 -10 35 -6 21 3 33 2 30 -4 -4 -5 8 -9 24 -9 20 0 31 5 31 14 0 8 -8
12 -22 9 -32 -5 -48 9 -41 35 4 16 13 22 35 22 17 0 27 -4 23 -10 -3 -5 -15
-10 -26 -10 -10 0 -19 -4 -19 -10 0 -5 10 -10 23 -10 12 -1 33 -7 47 -15 36
-20 46 -18 25 5 -10 11 -25 20 -33 20 -9 0 -6 7 11 20 14 11 32 20 40 20 27 0
28 17 2 28 -14 7 -25 18 -25 27 0 8 -7 15 -16 15 -8 0 -13 4 -10 8 6 10 74 3
81 -8 2 -4 -7 -5 -21 -2 -17 3 -24 0 -22 -9 2 -8 22 -17 48 -20 36 -5 41 -7
23 -13 -13 -5 -19 -14 -16 -22 3 -7 -3 -32 -14 -54 -16 -36 -21 -40 -47 -37
-19 3 -37 -2 -49 -14 -11 -10 -33 -21 -48 -24 -43 -10 -45 -25 -4 -25 20 0 34
-4 31 -8 -3 -5 18 -9 47 -9 28 0 53 -6 55 -11 4 -12 32 -5 32 8 0 4 -10 12
-22 18 -23 11 -23 11 -2 11 22 1 48 -21 38 -32 -10 -9 35 -19 59 -12 21 7 21
6 3 -7 -10 -8 -29 -13 -41 -10 -13 2 -31 -1 -42 -6 -16 -10 -15 -12 11 -22 20
-7 32 -8 40 0 5 5 17 10 25 10 9 -1 4 -7 -12 -16 -18 -10 -39 -13 -58 -9 -31
7 -64 -9 -53 -26 7 -12 54 -12 54 0 0 5 9 7 20 4 26 -7 26 -23 1 -23 -11 0
-22 -4 -25 -8 -3 -5 34 -9 81 -8 64 0 80 2 64 10 -12 5 -20 15 -17 23 4 9 -2
8 -20 -3 -13 -9 -27 -14 -31 -10 -3 3 0 6 8 6 10 1 9 3 -3 11 -25 14 -23 32 2
24 11 -3 35 -7 52 -7 18 -1 27 -3 21 -5 -21 -7 -14 -26 7 -20 11 3 18 1 14 -4
-3 -5 5 -9 17 -9 21 0 20 2 -9 30 -18 17 -40 30 -50 30 -10 0 -27 7 -38 16
-19 15 -19 16 0 9 106 -34 117 -39 112 -51 -3 -8 -2 -14 2 -14 5 0 17 -8 28
-18 11 -11 26 -22 34 -25 8 -4 0 -4 -17 -1 -25 4 -32 2 -28 -8 4 -9 24 -13 65
-13 67 0 67 3 -11 42 -31 16 -54 34 -51 41 4 12 -22 44 -30 36 -3 -2 -11 3
-19 13 -13 15 -12 16 6 9 11 -5 25 -9 32 -9 7 0 10 -4 7 -8 -7 -11 85 -77 121
-87 20 -6 29 -14 27 -25 -4 -21 18 -22 44 -2 19 14 18 14 -3 15 -13 0 -23 3
-23 8 0 4 21 5 48 3 26 -3 39 -6 29 -9 -16 -3 -16 -6 4 -33 14 -20 18 -36 13
-51 -6 -19 -4 -21 7 -11 10 8 20 9 29 3 8 -6 22 -9 30 -9 8 0 3 5 -12 11 -18
6 -28 17 -28 29 0 11 -5 17 -10 14 -6 -3 -10 3 -10 14 0 12 5 21 11 21 5 0 8
4 5 9 -3 5 16 11 42 14 26 3 48 1 50 -4 7 -18 32 -9 37 14 4 13 15 29 26 36
19 11 20 10 14 -8 -5 -15 -2 -21 9 -21 14 0 22 26 17 54 -1 5 18 6 43 3 32 -5
47 -2 56 8 10 12 9 15 -4 15 -10 0 -14 5 -11 10 4 6 15 8 25 5 11 -4 23 1 32
12 10 14 28 18 78 19 51 1 60 -1 43 -9 -13 -5 -23 -14 -23 -19 0 -4 -7 -8 -15
-8 -8 0 -15 4 -15 9 0 5 -9 11 -21 14 -15 4 -30 -5 -57 -35 -20 -23 -36 -45
-35 -50 4 -12 -35 -10 -39 3 -4 12 -38 1 -38 -12 0 -4 7 -6 15 -3 8 4 21 1 29
-5 10 -8 21 -8 40 -1 34 12 36 12 36 0 0 -5 -6 -10 -13 -10 -8 0 -24 -9 -37
-20 l-23 -20 24 -1 c13 -1 30 -1 37 0 17 3 15 -16 -3 -23 -12 -4 -71 10 -84
21 -3 2 4 10 15 18 10 8 14 15 8 15 -6 0 -19 -9 -28 -19 -10 -11 -24 -17 -31
-15 -7 3 -31 -5 -53 -16 -44 -23 -67 -19 -59 11 6 22 -11 26 -19 4 -4 -8 -15
-15 -26 -15 -10 0 -16 -4 -13 -10 3 -5 19 -10 35 -10 23 0 28 -4 23 -16 -3 -9
0 -20 8 -25 23 -14 36 -10 16 6 -18 13 -18 14 2 24 17 10 20 9 15 -4 -5 -13
-2 -14 22 -5 20 8 29 8 34 0 4 -7 24 -13 45 -15 21 -2 43 -9 48 -14 13 -13 27
-14 27 -2 0 5 -9 13 -20 16 -11 4 -17 11 -14 17 5 7 0 9 -12 6 -10 -3 -23 -7
-29 -8 -5 -2 -26 4 -45 13 -19 9 -32 17 -27 18 25 5 34 4 49 -9 12 -10 21 -11
37 -3 29 16 39 14 46 -10 6 -19 12 -21 56 -15 31 4 49 3 49 -4 0 -5 7 -10 15
-10 12 0 12 5 -3 35 -14 27 -26 36 -64 46 -59 16 -51 33 13 27 56 -6 69 1 37
19 -22 11 -22 12 -3 13 11 1 39 3 63 6 46 4 54 -2 20 -16 -21 -8 -20 -9 9 -9
17 -1 38 5 45 12 14 13 52 16 64 5 3 -4 20 -5 38 -2 31 5 31 5 7 -9 l-24 -15
22 -11 c12 -7 35 -10 52 -6 18 4 29 3 29 -4 0 -6 -11 -11 -25 -11 -14 0 -25
-5 -25 -11 0 -12 20 -11 143 7 34 5 47 3 47 -6 0 -7 -7 -10 -16 -6 -21 8 -55
-11 -48 -27 2 -7 -4 -24 -16 -37 -11 -13 -20 -27 -20 -31 0 -21 -67 -38 -155
-40 -79 -2 -97 1 -120 18 l-28 20 -110 -24 c-130 -27 -149 -28 -187 -8 -24 13
-34 13 -74 1 -31 -9 -65 -12 -104 -7 -50 6 -64 13 -96 44 -37 38 -38 38 -101
32 -57 -6 -67 -4 -102 19 -37 25 -39 25 -90 10 -47 -14 -55 -14 -84 2 -18 9
-51 22 -73 28 -48 14 -58 38 -25 65 37 30 19 46 -67 59 -43 7 -82 16 -87 21
-9 9 1 41 13 41 15 0 -65 73 -122 112 -56 38 -70 62 -48 84 7 7 0 22 -20 44
l-31 35 7 -150 c3 -82 10 -158 15 -167 5 -9 9 -36 9 -59 0 -36 5 -46 37 -73
120 -103 132 -116 135 -159 l3 -42 65 -21 65 -21 3 -46 c2 -25 8 -49 15 -54 7
-5 44 -22 84 -37 55 -22 83 -28 121 -24 39 4 54 1 74 -16 14 -12 28 -29 29
-38 2 -9 39 -53 82 -97 l78 -80 112 4 c62 3 236 7 389 9 l276 5 45 48 c24 26
57 63 73 81 l29 33 65 -10 c153 -24 472 -61 480 -56 6 4 10 15 10 26 0 27 25
34 82 22 37 -7 62 -6 108 6 57 15 62 14 95 -3 32 -18 42 -18 137 -7 98 12 103
14 139 51 20 21 40 52 44 69 3 17 11 33 16 36 5 4 9 18 8 33 l-1 27 -9 -25
c-9 -26 -8 -15 7 143 4 37 11 70 17 74 9 6 2 -109 -9 -149 -7 -23 15 -23 23 0
3 9 19 29 35 44 24 23 28 35 28 80 0 29 3 97 7 151 5 83 4 97 -9 97 -9 0 -18
-8 -21 -19 -3 -12 -17 -20 -46 -25 -38 -6 -44 -3 -77 29 -19 19 -30 35 -25 35
5 0 13 -4 16 -10 3 -5 14 -10 23 -10 13 0 12 5 -8 20 -20 15 -21 20 -8 20 9 0
20 -5 23 -10 8 -12 72 -13 79 -1 8 12 -99 23 -127 12 -13 -5 -31 -17 -40 -26
-21 -20 -59 -11 -50 11 3 10 8 12 12 5 4 -7 15 -5 31 4 14 8 34 18 44 23 18 8
18 9 -4 25 -13 9 -26 13 -30 9 -5 -7 -9 -8 -55 -10 -14 -1 -33 -11 -42 -22
-21 -25 -36 -25 -59 -2 -17 16 -18 16 -11 -1 5 -14 0 -19 -23 -24 -17 -3 -30
-11 -30 -18 0 -7 -10 -15 -22 -19 -18 -4 -20 -8 -10 -18 17 -17 15 -26 -5 -31
-13 -3 -14 -5 -3 -6 8 0 22 4 30 9 13 9 13 11 0 19 -8 6 -11 13 -7 17 3 4 13
1 22 -6 8 -7 27 -10 41 -7 33 6 82 -19 96 -49 10 -22 28 -33 28 -18 0 15 -35
64 -46 64 -6 0 -18 8 -25 17 -13 15 -12 16 6 8 11 -5 34 -9 52 -9 36 -1 58
-16 23 -16 -19 0 -20 -2 -10 -15 13 -16 40 -20 40 -7 0 5 14 7 30 4 17 -2 30
-10 30 -18 0 -9 12 -14 33 -15 27 0 29 -2 12 -9 -19 -8 -19 -9 2 -9 12 -1 23
4 25 10 2 5 11 7 22 3 16 -6 17 -14 11 -63 -7 -57 -16 -71 -47 -71 -16 0 -23
17 -19 42 0 4 -11 3 -25 -2 -14 -6 -36 -10 -50 -10 -13 0 -24 -4 -24 -10 0 -8
41 -6 77 5 12 4 28 -48 19 -63 -3 -5 -43 -12 -88 -16 -46 -3 -99 -9 -119 -12
-30 -5 -41 -2 -59 16 -20 20 -25 21 -92 10 -90 -14 -142 1 -133 37 3 13 1 23
-5 23 -5 0 -10 -11 -10 -25 0 -18 -5 -25 -20 -25 -11 0 -20 -7 -20 -15 0 -9
-16 -23 -35 -32 -32 -15 -46 -16 -128 -5 -51 7 -148 17 -217 22 -69 6 -142 15
-162 21 -33 8 -38 14 -38 39 0 28 2 30 40 30 42 0 43 4 17 58 -12 26 -39 31
-30 5 5 -15 3 -16 -8 -6 -21 21 5 42 31 25 25 -15 57 -16 62 0 5 15 28 1 28
-16 0 -9 -9 -12 -24 -9 -13 3 -27 0 -30 -6 -5 -7 8 -11 38 -11 25 0 46 -4 46
-10 0 -5 -4 -10 -9 -10 -5 0 -11 -6 -14 -13 -3 -8 1 -14 9 -14 8 0 14 4 14 9
0 4 5 8 11 8 5 0 7 -5 3 -11 -5 -8 6 -9 37 -4 36 6 42 5 32 -6 -21 -21 -15
-31 10 -17 12 7 26 11 30 10 5 -1 6 2 2 8 -3 5 1 10 9 10 9 0 16 5 16 11 0 7
10 9 25 7 14 -3 22 -1 18 4 -3 6 4 5 16 -2 12 -6 30 -9 39 -7 16 4 16 5 0 6
-38 2 -13 34 36 47 19 5 27 3 22 -4 -4 -6 1 -8 14 -5 11 3 27 2 37 -1 14 -6
13 -9 -10 -21 -21 -10 -34 -11 -57 -4 -16 6 -35 9 -42 6 -7 -3 -3 -6 9 -6 20
-1 45 -21 26 -21 -14 0 -72 -57 -66 -64 4 -3 14 1 24 10 14 13 24 13 58 4 41
-11 61 -7 61 11 0 5 -18 9 -40 9 -22 0 -40 5 -40 10 0 6 6 10 14 10 8 0 23 3
33 6 15 5 15 4 3 -5 -13 -9 -12 -11 3 -11 14 0 17 5 12 20 -4 14 -2 20 9 20 8
0 22 3 30 6 12 5 15 2 10 -10 -4 -11 -1 -16 10 -16 9 0 16 5 16 10 0 17 38 11
49 -7 5 -10 13 -15 17 -11 9 10 -15 38 -33 38 -8 0 -11 5 -8 10 3 6 2 10 -4
10 -5 0 -12 -4 -15 -9 -3 -5 -16 -7 -28 -3 -30 7 -76 32 -61 32 6 0 19 3 29 7
12 4 15 3 10 -5 -6 -9 -1 -9 18 -1 20 10 30 9 50 -5 34 -22 46 -20 19 3 -18
15 -20 20 -8 25 20 7 19 36 0 36 -8 0 -15 -6 -15 -13 0 -16 -58 -39 -62 -25
-3 7 -17 4 -36 -6 -33 -17 -72 -14 -72 6 0 6 10 8 25 4 19 -5 23 -3 19 9 -8
20 -28 19 -49 -1 -14 -15 -14 -17 2 -29 15 -11 14 -13 -15 -20 -17 -3 -42 -4
-54 -1 -13 3 -17 3 -10 0 13 -6 17 -25 5 -22 -5 1 -18 -3 -29 -10 -20 -10 -23
-9 -28 13 -4 14 -10 25 -15 25 -4 0 -25 16 -45 35 -21 19 -44 35 -52 35 -8 0
-14 5 -14 10 0 6 -5 10 -12 10 -6 0 -20 8 -30 17 -11 10 -29 18 -40 18 -12 0
-23 6 -26 14 -6 18 44 7 65 -14 8 -8 19 -15 25 -15 6 0 -1 11 -16 25 -15 14
-32 25 -37 25 -6 0 -7 5 -3 11 3 6 -8 3 -25 -5 -17 -9 -31 -21 -31 -26 0 -15
-35 -29 -56 -24 -11 3 -21 14 -21 26 -2 19 -1 19 11 3 7 -9 21 -15 32 -13 24
4 20 23 -5 22 -10 0 -18 6 -18 13 0 15 23 18 32 3 3 -5 11 -10 16 -10 6 0 7 5
4 10 -4 6 5 10 21 10 15 0 24 3 21 6 -8 8 -96 9 -122 1 -11 -3 -33 0 -50 8
-29 13 -29 13 23 10 29 -1 55 1 58 6 3 5 -3 9 -13 9 -15 0 -16 2 -3 10 10 7
18 5 26 -5 6 -8 14 -12 18 -8 10 10 46 11 46 1 0 -4 7 -8 15 -8 8 0 12 6 10
13 -4 8 9 13 41 14 38 1 51 -3 69 -23 12 -13 25 -24 29 -24 13 0 5 21 -15 41
-11 11 -18 23 -15 27 4 3 12 0 18 -6 16 -16 62 -16 52 -1 -4 7 -1 10 6 7 24
-8 21 -24 -7 -36 -26 -11 -24 -11 20 -8 48 4 49 3 42 -23 -10 -39 -24 -51 -64
-52 -31 -2 -32 -3 -8 -6 22 -4 28 -9 24 -23 -3 -11 5 -27 19 -41 14 -13 24
-35 25 -53 1 -17 3 -23 6 -14 3 13 12 15 40 11 26 -4 34 -3 29 5 -4 7 -18 12
-31 12 -15 0 -26 7 -30 20 -3 11 -10 20 -15 20 -19 0 -17 43 3 74 12 19 27 40
32 49 8 12 20 13 55 7 44 -7 44 -8 10 -10 l-35 -2 30 -8 c30 -8 30 -8 -8 -9
-23 -1 -36 3 -32 9 3 6 -1 7 -9 4 -36 -14 -13 -26 44 -22 45 2 60 0 60 -10 0
-10 -15 -13 -60 -10 -42 3 -64 0 -72 -9 -8 -10 -2 -12 31 -9 30 3 40 1 37 -7
-3 -7 -9 -20 -12 -30 -4 -9 -13 -17 -20 -17 -8 0 -14 -4 -14 -10 0 -5 12 -10
28 -10 16 0 22 3 15 8 -26 16 2 31 41 22 40 -9 66 -4 66 11 0 12 -17 11 -22
-1 -1 -5 -13 -7 -25 -4 -14 4 -20 11 -16 18 4 6 -2 4 -12 -4 -17 -14 -18 -14
-8 4 6 11 22 20 36 20 14 1 23 -2 21 -6 -3 -4 6 -8 20 -8 14 0 26 5 26 10 0 6
-7 10 -15 10 -25 0 -17 17 11 23 17 3 28 0 31 -10 4 -10 14 -13 32 -9 14 3 20
3 14 0 -29 -13 -9 -19 57 -19 38 0 70 -4 70 -10 0 -5 5 -4 11 2 14 14 2 36
-13 27 -6 -4 -18 2 -26 12 -8 10 -16 14 -18 9 -6 -16 -89 -8 -126 11 -22 12
-33 13 -36 5 -5 -16 -29 -14 -36 4 -4 11 1 15 17 15 16 0 30 11 44 38 19 32
20 41 9 67 -20 47 -40 58 -91 53 -25 -3 -45 -2 -45 2 0 16 32 33 66 36 36 2
49 -4 82 -39 9 -9 21 -17 26 -17 6 0 5 5 -2 12 -7 7 -12 19 -12 28 0 19 -63
42 -88 33 -14 -5 -13 -2 3 17 14 15 16 24 8 27 -7 2 -9 11 -6 19 4 10 0 12
-13 7 -20 -7 27 54 99 130 35 37 37 43 37 104 0 36 6 79 14 96 8 18 16 39 19
47 4 13 51 20 238 38 129 12 270 25 314 28 44 4 88 11 97 15 10 6 20 29 25 61
l8 53 133 -3 132 -3 0 73 c0 66 -2 74 -22 83 -19 8 -24 19 -26 63 -3 43 0 53
15 59 24 9 33 23 33 55 0 20 -4 26 -15 22 -8 -3 -24 1 -37 10 -12 9 -31 16
-42 16 -18 0 -18 1 -3 18 21 23 12 35 -13 20 -14 -9 -22 -9 -32 -1 -7 6 -28
10 -46 9 -27 -2 -32 1 -32 21 0 18 6 23 25 23 23 0 25 4 25 46 0 46 0 46 -30
41 -17 -4 -30 -3 -31 1 0 4 -2 31 -4 60 -3 52 -3 54 28 67 31 13 32 13 38 -13
l7 -27 1 26 c1 25 -40 79 -60 79 -5 0 -9 7 -9 15 0 13 15 16 87 14 48 -1 100
-5 115 -10 23 -6 28 -4 28 9 0 34 -14 42 -43 27 -22 -11 -29 -11 -40 -1 -6 7
-17 11 -22 10 -6 -2 -35 2 -65 9 -60 14 -74 35 -45 67 15 17 15 20 0 44 -20
30 -13 76 10 76 21 0 19 17 -5 37 -21 18 -27 58 -10 68 16 10 12 41 -9 66 -15
19 -16 27 -7 42 8 15 8 21 -1 24 -8 3 -13 21 -13 43 0 40 -13 59 -26 39 -4 -7
-9 -42 -12 -79 l-4 -67 -59 15 -58 14 1 177 c0 108 6 200 14 238 8 34 11 68 8
77 -7 17 11 46 29 46 6 0 7 -20 3 -55 -3 -31 -2 -64 4 -75 5 -11 14 -29 20
-40 5 -10 7 -26 4 -33 -7 -18 22 -47 46 -47 11 0 23 -8 29 -17 9 -17 10 -17
16 0 4 9 1 24 -6 33 -11 13 -10 17 4 25 21 12 22 38 2 45 -12 5 -15 21 -12 73
1 36 8 76 15 87 6 12 8 25 4 29 -4 4 3 4 15 1 26 -8 43 13 19 26 -11 6 -14 17
-10 33 6 26 -11 65 -29 65 -7 0 -17 -10 -22 -22 -17 -36 -41 -45 -64 -24 -20
18 -21 18 -32 -8 -7 -15 -17 -25 -23 -23 -13 5 -12 33 3 97 6 25 8 66 4 92 -9
77 6 193 28 220 16 18 22 20 28 9 13 -21 60 -5 71 24 10 27 40 34 40 10 0 -22
49 -43 59 -26 6 9 14 1 27 -28 15 -36 21 -40 43 -34 36 8 41 12 41 31 0 9 7
26 15 36 13 17 15 79 15 383 l0 363 -22 0 c-13 0 -97 7 -188 15 -141 12 -176
12 -240 0 -41 -7 -73 -14 -70 -15 3 -1 32 -4 65 -6 96 -7 89 11 81 -207 -3
-106 -11 -219 -16 -252 -5 -33 -10 -105 -10 -160 0 -76 -4 -106 -16 -123 -10
-15 -14 -35 -11 -55 4 -33 -25 -87 -49 -87 -22 0 -24 -29 -2 -32 12 -2 30 -15
41 -29 18 -25 18 -32 7 -97 -10 -56 -10 -80 -1 -115 10 -33 10 -54 2 -85 -7
-23 -9 -64 -5 -96 5 -41 2 -67 -9 -94 -21 -51 -36 -201 -21 -210 13 -8 25
-100 13 -107 -9 -6 -99 15 -116 28 -8 5 -10 19 -7 33 4 15 2 24 -6 24 -6 0
-10 8 -9 18 2 9 -1 32 -5 50 -9 37 11 135 25 126 11 -6 12 20 2 30 -17 17 -29
81 -19 98 8 14 6 22 -11 38 -12 11 -27 20 -33 20 -19 0 -10 19 16 33 26 14 26
14 7 28 -16 12 -19 28 -21 97 -2 75 -1 82 17 82 29 0 43 23 31 54 -9 24 -22
32 -45 26 -5 -2 -23 -2 -40 -2 -57 3 -85 -41 -85 -132 0 -49 5 -69 20 -87 l20
-24 6 22 c3 13 10 20 15 17 11 -6 8 -54 -3 -54 -4 0 -8 -7 -8 -15 0 -9 -7 -15
-16 -13 -10 2 -19 -2 -21 -8 -5 -16 49 -72 77 -79 24 -6 25 -9 24 -83 -1 -42
-7 -90 -13 -107 -7 -16 -11 -43 -8 -60 6 -40 -11 -85 -31 -85 -40 0 -60 13
-68 43 -11 35 -26 44 -45 24 -20 -19 -47 -28 -54 -17 -9 15 18 131 30 127 5
-2 11 -17 13 -34 3 -32 28 -51 45 -34 5 5 5 17 -2 29 -6 11 -11 31 -11 44 0
13 -7 37 -16 53 -10 18 -16 51 -15 80 l1 50 -23 -27 c-12 -16 -27 -28 -32 -28
-6 0 -18 -7 -28 -14 -17 -13 -17 -16 -3 -45 20 -37 20 -41 1 -41 -9 0 -12 -6
-9 -15 4 -10 -4 -18 -23 -26 -15 -6 -44 -20 -64 -30 -20 -11 -48 -19 -63 -19
-14 0 -26 -4 -26 -10 0 -5 -16 -16 -35 -24 -24 -10 -35 -22 -35 -35 0 -25 -9
-27 -25 -4 -10 14 -16 15 -27 5 -10 -7 -28 -10 -48 -5 -28 5 -32 4 -27 -10 9
-23 -11 -32 -31 -14 -9 9 -46 23 -82 32 -99 24 -96 22 -70 50 25 27 42 32 38
13 -2 -6 5 -14 14 -16 25 -5 44 38 29 66 -9 17 -7 29 10 62 20 38 21 45 9 100
-15 70 -61 124 -136 159 -48 23 -48 23 -113 5 -66 -17 -143 -61 -159 -90 -11
-19 -32 75 -32 141 0 23 -9 68 -20 101 -11 32 -20 69 -20 82 0 30 -38 66 -120
116 l-65 39 35 10 c19 5 39 13 45 18 5 5 16 9 26 9 9 0 28 9 42 20 14 11 37
20 51 20 14 0 26 5 26 10 0 6 -42 10 -105 10 -63 0 -105 4 -105 10 0 6 6 11
13 11 6 1 19 2 27 3 12 1 16 18 18 74 3 71 2 72 -22 72 -13 0 -31 3 -40 6 -11
4 -16 1 -16 -10 0 -9 -9 -25 -20 -36 -10 -10 -26 -44 -35 -74 -9 -31 -21 -58
-26 -61 -5 -4 -9 -14 -9 -23 0 -13 2 -13 16 4 14 18 15 16 9 -21 -6 -36 -18
-54 -37 -55 -4 0 -5 8 -2 18 4 12 0 11 -15 -6 -15 -18 -24 -21 -38 -13 -24 13
-79 72 -86 93 -7 19 15 30 41 21 14 -5 14 -3 -4 18 -31 36 -53 105 -47 143 4
25 1 35 -11 39 -14 6 -16 -5 -16 -84 0 -58 -4 -88 -10 -84 -17 11 -11 -26 10
-60 23 -38 85 -88 147 -121 7 -3 27 3 45 13 25 15 32 26 30 44 -1 17 1 20 7
10 7 -11 9 -11 14 0 3 8 6 9 6 3 1 -10 -31 -56 -69 -101 -8 -10 -7 -13 5 -13
8 0 15 -9 15 -19 0 -11 5 -23 10 -26 13 -8 13 25 0 45 -5 8 -5 17 -1 20 5 3
20 22 35 44 l26 38 10 -28 c6 -15 10 -34 8 -42 -3 -13 -5 -13 -20 1 -25 25
-31 20 -11 -9 9 -15 20 -49 23 -78 7 -49 -4 -116 -18 -116 -4 1 -34 41 -67 90
-33 50 -67 92 -75 95 -22 7 -128 129 -140 161 -11 27 -7 92 11 193 5 30 9 57
9 60 0 2 -9 -5 -20 -17 -12 -12 -28 -22 -38 -22 -12 0 -10 4 7 13 14 6 33 26
43 43 l18 31 -117 -19 c-103 -16 -235 -20 -247 -7 -11 13 -23 251 -14 291 6
27 7 64 2 98 -8 47 -13 57 -40 70 -29 14 -30 17 -20 50 6 19 17 35 24 35 6 0
12 3 12 8 0 4 0 12 0 17 0 6 -15 10 -32 10 -23 0 -43 10 -65 30 -18 17 -34 30
-37 30 -13 0 -56 49 -56 64 0 9 -6 16 -14 16 -8 0 -16 7 -20 15 -3 10 -14 13
-33 10 -15 -3 -35 -1 -43 5 -13 9 -12 12 5 25 11 9 26 13 35 9 34 -14 56 -14
75 0 18 14 8 15 -112 16 -96 0 -133 -3 -136 -12 -4 -10 -7 -10 -18 0 -7 6 -23
12 -36 12 -22 0 -23 -3 -23 -87z m-668 -973 c27 0 36 -4 32 -14 -3 -7 9 -25
27 -40 33 -28 63 -28 86 1 14 18 68 10 95 -14 12 -11 35 -14 80 -12 35 1 83
-1 108 -4 25 -4 83 -8 129 -10 67 -4 87 -1 100 12 22 22 97 26 108 6 5 -9 26
-18 46 -22 31 -5 40 -1 68 26 l32 32 166 5 c91 2 200 6 242 9 l75 4 1 -34 c1
-28 -3 -35 -18 -35 -11 0 -22 7 -25 15 -4 8 -19 15 -35 15 -21 0 -27 -4 -23
-15 4 -8 12 -15 20 -15 23 0 16 -27 -12 -45 -22 -14 -28 -15 -35 -4 -12 19
-11 56 1 64 23 14 -4 25 -61 25 -42 0 -58 -3 -53 -11 3 -6 -6 -22 -22 -35 -30
-24 -18 -33 16 -12 15 10 22 10 32 0 6 -6 20 -12 30 -12 10 0 19 -7 19 -15 2
-23 4 -29 10 -40 4 -5 0 -46 -8 -90 -10 -60 -11 -86 -2 -105 9 -22 7 -27 -18
-47 -15 -13 -42 -28 -60 -33 -17 -6 -38 -22 -47 -35 -24 -36 -20 -39 17 -11
44 34 57 33 25 -1 -31 -34 -78 -114 -78 -134 0 -33 -52 -122 -104 -178 -78
-85 -73 -111 21 -111 60 0 131 24 209 72 64 38 65 45 29 152 -30 89 -31 106
-6 134 26 31 55 27 95 -13 49 -49 68 -93 64 -151 -3 -45 -5 -49 -30 -52 -16
-2 -28 -9 -28 -17 0 -8 -21 -47 -47 -87 -26 -40 -66 -113 -90 -163 -81 -168
-77 -165 -209 -165 -109 0 -223 20 -356 62 l-97 30 -187 -11 c-168 -10 -188
-10 -198 5 -11 14 -16 14 -50 -7 -36 -21 -43 -22 -127 -12 -60 7 -94 15 -102
26 -7 9 -22 17 -35 19 -32 4 -28 23 6 23 15 0 26 -4 25 -10 -1 -6 29 -10 73
-10 53 0 74 4 74 13 0 6 -6 12 -13 12 -15 0 -17 30 -38 630 -6 173 -8 326 -5
341 6 31 -6 39 -57 39 -36 1 -67 20 -67 42 0 26 14 30 80 24 36 -3 82 -6 102
-6z m2273 -730 c-5 -15 -3 -18 9 -14 9 3 16 2 16 -3 0 -6 11 -15 25 -21 31
-14 31 -32 1 -91 -14 -25 -27 -54 -30 -63 -3 -10 -15 -18 -26 -18 -12 0 -19 4
-16 9 3 5 -10 23 -31 41 -35 31 -62 84 -63 124 0 15 3 16 15 6 12 -10 15 -10
16 1 0 11 2 11 6 1 3 -9 15 -3 36 18 36 35 51 39 42 10z m-105 -340 c0 -5 10
-10 21 -10 16 0 19 -3 11 -13 -6 -7 -9 -22 -7 -32 2 -11 4 -22 4 -24 1 -3 6 0
13 7 16 16 28 15 28 -1 0 -7 -16 -21 -36 -30 -20 -10 -60 -41 -90 -69 -54 -51
-55 -51 -74 -32 -20 19 -20 20 1 74 25 66 83 140 110 140 10 0 19 -4 19 -10z
m1367 -121 c1 -13 7 -46 12 -74 13 -65 14 -277 1 -309 -5 -14 -16 -26 -25 -26
-13 0 -16 22 -16 153 0 83 -1 170 -1 192 -2 76 2 97 15 93 6 -3 13 -16 14 -29z
m-259 -89 c12 -12 22 -27 22 -35 0 -8 7 -15 15 -15 8 0 24 -9 35 -20 16 -16
20 -33 20 -89 0 -39 -4 -73 -10 -76 -6 -4 -10 16 -10 54 0 77 -6 94 -30 79
-15 -9 -24 -5 -54 24 -26 25 -34 41 -30 53 7 16 -2 17 -131 14 -101 -3 -139
-1 -142 8 -5 13 42 18 203 21 79 2 93 -1 112 -18z m-3497 -111 c8 -39 16 -179
25 -459 4 -107 11 -201 16 -207 8 -10 2 -13 -23 -13 l-34 0 -3 65 c-1 39 2 65
8 65 5 0 10 7 10 15 0 8 -7 15 -15 15 -11 0 -14 11 -13 48 1 26 -2 74 -5 107
-4 33 -9 134 -12 224 -4 126 -2 167 7 173 21 13 32 4 39 -33z m3130 -144 c57
-14 107 -29 111 -31 11 -7 -14 -55 -26 -50 -6 3 -42 14 -81 26 -38 13 -95 31
-125 40 -30 10 -90 24 -133 31 -43 7 -71 16 -63 19 33 11 216 -9 317 -35z
m622 -165 c-1 -56 -6 -86 -15 -92 -8 -6 -9 -11 -3 -14 37 -16 37 -19 37 -200
-1 -195 -8 -247 -35 -252 -15 -3 -17 14 -19 190 -2 260 0 428 7 446 3 7 11 12
18 9 8 -3 11 -28 10 -87z m-841 34 c-1 -10 -4 -61 -5 -113 -3 -78 0 -97 15
-116 10 -13 18 -28 18 -33 0 -12 24 -22 52 -22 11 0 28 -10 38 -22 10 -13 22
-20 26 -16 4 4 2 14 -4 21 -7 8 -9 17 -5 20 10 11 53 8 53 -3 0 -15 19 -12 36
5 16 15 47 9 41 -8 -2 -7 -14 -14 -28 -17 l-24 -6 28 -18 c26 -18 29 -18 73
-1 26 10 55 14 70 11 14 -4 40 -1 58 5 25 9 41 9 65 1 44 -16 91 7 91 43 0 20
5 25 24 25 13 0 27 -6 30 -12 3 -10 9 -8 19 5 8 9 21 17 30 17 8 0 18 -8 22
-17 6 -17 7 -17 20 1 14 18 35 14 35 -7 0 -6 -12 -24 -27 -40 l-28 -30 28 5
c23 5 27 2 27 -19 0 -13 -4 -22 -9 -18 -16 9 -23 -15 -26 -89 -3 -61 -21 -140
-25 -111 -6 32 1 160 9 169 6 7 5 18 -3 29 -17 22 -25 22 -42 0 -12 -17 -14
-17 -31 0 -17 17 -17 19 -1 31 13 10 15 15 6 24 -17 17 -31 15 -45 -8 -16 -25
-70 -39 -108 -28 -19 5 -40 4 -58 -3 -15 -6 -41 -9 -58 -5 -19 4 -42 0 -61
-10 -35 -18 -82 -13 -110 13 -15 13 -21 14 -31 4 -9 -11 -9 -14 1 -18 18 -7
15 -43 -4 -50 -11 -4 -22 1 -31 13 -14 19 -15 18 -30 -3 -11 -16 -16 -55 -19
-129 -3 -106 5 -144 30 -144 15 0 28 -47 15 -52 -4 -2 -9 -10 -11 -17 -3 -13
-46 -61 -54 -61 -1 0 4 12 12 28 19 37 19 92 -1 92 -8 0 -15 8 -15 18 0 10 -9
28 -20 40 -23 25 -27 57 -6 49 10 -4 17 4 21 24 7 30 -4 56 -12 32 -7 -20 -23
-15 -23 7 0 13 7 20 20 20 13 0 20 7 20 20 0 13 -7 20 -20 20 -15 0 -20 7 -20
25 0 27 17 34 26 10 4 -8 9 -13 13 -11 5 4 6 23 2 94 0 12 -6 22 -12 22 -7 0
-9 -10 -7 -25 6 -29 -10 -45 -23 -24 -4 7 -10 11 -12 9 -2 -3 -7 -74 -10 -158
-4 -136 -3 -153 11 -147 8 3 19 0 24 -7 12 -19 10 -110 -2 -103 -5 3 -10 15
-10 25 0 10 -5 31 -11 47 l-11 28 -13 -42 c-7 -23 -10 -54 -7 -69 4 -20 1 -25
-9 -22 -8 3 -14 13 -15 24 -1 10 -2 21 -3 24 -2 3 -4 104 -6 226 l-2 220 -37
48 c-39 51 -44 72 -23 100 11 15 18 16 34 7 18 -9 22 -7 27 15 4 14 4 29 1 35
-4 5 1 29 10 54 10 24 15 52 11 60 -4 11 -2 15 6 12 7 -2 12 -13 10 -23z
m-925 -54 c8 -33 12 -83 10 -125 -4 -55 -1 -74 12 -89 13 -14 15 -33 11 -95
-2 -42 -4 -129 -4 -193 0 -85 -3 -114 -11 -108 -11 9 -35 226 -38 348 -1 34
-4 62 -7 62 -3 0 -6 59 -7 131 -2 142 9 165 34 69z m538 -210 c3 -5 14 -10 24
-10 10 0 30 -11 45 -25 27 -25 34 -45 16 -45 -5 0 -10 -11 -10 -25 0 -14 5
-25 10 -25 6 0 10 8 10 19 0 10 7 24 15 31 8 7 15 19 15 26 0 8 10 14 25 14
16 0 25 -6 25 -15 0 -8 -9 -15 -21 -15 -16 0 -19 -4 -14 -22 12 -42 28 -68 47
-74 25 -8 24 -50 -2 -57 -13 -3 -18 -10 -14 -21 7 -18 -8 -21 -34 -7 -9 4 -29
11 -44 15 -27 6 -28 5 -28 -39 0 -38 3 -45 20 -45 12 0 20 7 20 17 0 15 1 15
18 0 24 -22 38 -21 55 3 8 11 17 17 20 13 4 -3 1 -13 -7 -22 -23 -27 -30 -61
-12 -61 23 0 20 -37 -3 -45 -21 -6 -34 -31 -25 -46 3 -6 14 -7 25 -4 17 6 19
3 13 -22 -10 -41 -31 -80 -47 -86 -13 -5 -18 -32 -34 -187 -6 -62 -21 -80 -68
-80 -46 0 -63 25 -62 88 0 33 -4 56 -12 61 -7 5 -10 18 -6 33 9 35 -7 42 -39
17 -26 -21 -27 -43 -2 -33 10 4 16 -5 21 -26 8 -38 3 -45 -23 -31 -11 6 -42 8
-72 4 -43 -5 -52 -3 -48 8 3 8 -1 26 -8 41 -8 15 -11 29 -6 31 4 3 35 8 70 12
34 4 65 11 68 16 3 5 14 9 25 9 15 0 19 7 19 31 0 34 -11 58 -48 107 -21 28
-26 30 -36 17 -13 -18 -46 -11 -46 9 0 13 -28 30 -67 41 -33 9 -31 45 2 45 18
0 25 -5 25 -20 0 -20 1 -20 30 -5 39 20 40 45 1 45 -35 0 -51 19 -27 32 9 5
16 16 16 23 0 19 -10 19 -24 1 -18 -23 -56 -30 -56 -11 0 26 30 64 46 58 17
-6 19 18 2 35 -17 17 -25 15 -31 -10 -9 -34 -17 -17 -23 51 -5 62 5 79 25 44
6 -10 11 -12 11 -5 0 6 11 12 25 12 17 0 29 7 35 23 5 12 9 16 9 10 1 -22 16
-14 34 17 12 19 26 30 41 30 13 0 31 9 41 20 20 22 40 26 50 10z m253 -49 c2
-7 -5 -15 -17 -18 -21 -5 -26 -14 -15 -26 9 -9 64 34 64 50 0 19 27 16 34 -4
4 -11 1 -22 -8 -29 -20 -14 -21 -34 -1 -34 18 0 20 -41 4 -57 -8 -8 -7 -16 2
-30 13 -22 7 -53 -11 -53 -5 0 -10 11 -10 25 0 14 -4 25 -9 25 -11 0 -21 -25
-21 -51 0 -22 -29 -26 -48 -7 -19 19 -14 34 13 46 32 15 32 30 -1 38 -19 5
-24 12 -21 25 3 13 -1 19 -16 21 -33 5 -31 32 4 67 31 32 49 36 57 12z m-1748
-12 c0 -5 6 -9 14 -9 24 0 36 -91 36 -274 0 -181 -7 -266 -21 -266 -5 0 -11
10 -14 23 -8 38 -36 489 -31 503 3 7 1 16 -4 19 -16 10 -11 25 5 19 8 -4 15
-10 15 -15z m-40 -140 c0 -10 -7 -19 -15 -19 -8 0 -15 -5 -15 -11 0 -7 -7 -17
-15 -23 -13 -10 -13 -13 5 -24 17 -10 20 -10 20 2 0 8 5 18 10 21 6 4 10 -7
10 -25 0 -23 -4 -31 -14 -27 -17 7 -26 -33 -27 -121 0 -35 -4 -73 -10 -85 -7
-18 -8 -16 -3 10 3 17 1 34 -4 37 -11 7 -9 106 2 125 9 14 -20 51 -41 51 -7 0
-13 -6 -13 -14 0 -24 -20 -29 -40 -11 -23 21 -18 35 12 35 21 0 20 1 -6 29
-25 26 -26 29 -8 33 11 3 27 1 37 -4 11 -7 21 -6 28 1 8 8 5 11 -11 11 -13 0
-22 6 -22 15 0 18 41 20 59 3 11 -11 15 -10 24 3 13 21 37 13 37 -12z m543
-414 c11 -16 16 -37 14 -59 -5 -46 0 -50 27 -19 18 21 30 25 71 25 61 -1 97
-11 88 -24 -3 -6 0 -9 8 -6 21 7 44 -20 30 -36 -8 -10 -5 -16 14 -26 14 -7 25
-17 25 -21 0 -8 -44 -22 -108 -35 -50 -10 -36 -35 26 -49 36 -7 42 -24 12 -32
-13 -3 -20 -14 -20 -28 0 -25 -14 -40 -45 -48 -11 -3 5 -3 35 0 30 3 72 12 94
19 47 17 53 17 38 2 -7 -7 -12 -26 -12 -43 0 -17 -6 -39 -14 -50 -7 -11 -16
-32 -20 -47 -3 -16 -11 -28 -17 -28 -7 0 -9 9 -6 21 3 12 0 22 -9 26 -8 3 -14
11 -14 19 0 24 -30 16 -42 -11 -9 -19 -9 -28 0 -37 7 -7 12 -21 12 -32 0 -12
7 -34 15 -50 8 -15 15 -36 15 -45 0 -9 7 -26 15 -38 13 -19 13 -20 -10 -20
-14 0 -25 3 -25 7 0 3 -20 29 -45 56 -37 40 -47 46 -55 34 -5 -8 -10 -18 -10
-21 0 -13 73 -89 86 -89 7 0 21 -14 29 -31 13 -24 14 -34 4 -45 -14 -17 -2
-18 35 -4 14 5 26 6 26 1 0 -9 -23 -18 -85 -31 -49 -11 -174 0 -135 11 24 7
23 7 -6 8 -50 2 -95 21 -92 40 2 9 7 19 13 23 6 4 1 19 -13 37 -12 17 -22 34
-22 39 0 5 -7 27 -16 48 -9 22 -18 57 -20 79 l-3 40 14 -33 c8 -18 11 -40 8
-49 -4 -11 -3 -14 6 -9 8 6 10 21 6 50 -4 30 -3 37 4 26 6 -8 11 -10 11 -5 0
17 -38 46 -43 32 -2 -7 -7 4 -11 23 -15 70 -16 72 -48 68 -16 -2 -29 2 -29 7
1 6 11 10 21 9 11 0 20 3 20 7 0 3 17 1 38 -6 20 -7 73 -15 117 -18 44 -3 68
-3 52 0 -31 5 -42 22 -52 77 -7 33 -11 37 -31 33 -27 -5 -31 5 -9 23 8 7 15
22 15 34 0 11 7 30 15 40 14 18 12 21 -25 43 -41 25 -46 49 -8 37 20 -6 21 -4
14 50 -7 61 -1 68 27 31z m624 -1167 l-2 -42 -52 -3 c-32 -1 -53 1 -53 7 0 7
-7 7 -17 2 -10 -5 -39 -8 -64 -8 -39 1 -45 -2 -41 -17 6 -22 -27 -60 -45 -53
-7 3 -13 -1 -13 -10 0 -13 3 -13 29 0 15 8 36 26 45 40 20 31 40 34 31 6 -7
-23 4 -26 24 -7 12 10 13 9 7 -7 -6 -16 -4 -17 10 -6 13 11 17 11 24 1 5 -9
10 -10 14 -2 11 18 36 13 36 -8 0 -25 -12 -28 -100 -26 -46 1 -83 -4 -95 -12
-13 -8 -25 -9 -35 -3 -8 5 -27 10 -42 10 -15 0 -30 4 -33 10 -8 12 35 70 52
70 17 0 17 -27 1 -33 -9 -4 -8 -6 3 -6 8 -1 26 10 39 24 l23 25 -51 0 c-35 0
-52 4 -53 13 0 10 -2 10 -6 0 -6 -16 -33 -17 -33 -1 0 6 -9 3 -20 -7 -11 -10
-23 -16 -26 -13 -9 10 17 43 50 63 48 30 49 30 42 -1 -7 -28 -7 -28 13 -10 23
21 26 16 10 -17 -9 -19 -8 -20 3 -6 17 20 48 32 48 17 0 -6 6 -5 17 3 13 11
17 11 20 1 3 -6 10 -9 16 -5 7 4 41 8 77 8 36 1 71 5 78 9 7 4 16 5 21 2 4 -3
16 3 26 14 10 11 19 20 21 20 1 0 2 -19 1 -42z m-157 -198 c0 -7 6 -7 18 -2
28 15 47 0 47 -38 0 -33 -2 -35 -35 -35 -19 -1 -48 -5 -63 -9 -20 -6 -33 -4
-45 8 -14 12 -35 15 -95 12 -42 -2 -77 -2 -77 0 0 1 4 14 10 28 9 24 12 25 77
22 39 -2 69 -8 71 -15 2 -6 8 -11 13 -11 6 0 7 5 4 10 -4 6 -3 10 2 9 27 -5
53 3 53 16 0 8 5 15 10 15 6 0 10 -5 10 -10z"/>
<path d="M2037 4815 c-3 -8 -7 -59 -8 -115 -1 -88 -4 -100 -19 -100 -9 0 -29
9 -43 20 -27 21 -72 27 -82 10 -11 -18 -24 -11 -53 33 -53 76 -91 107 -134
107 -45 0 -50 -16 -8 -25 22 -5 41 -22 69 -63 47 -69 134 -142 170 -142 5 0
23 12 40 26 19 15 29 20 25 10 -5 -13 -1 -13 23 -4 28 10 109 -2 178 -26 20
-8 20 -7 1 8 -11 9 -15 16 -10 16 6 0 20 -10 32 -23 21 -23 21 -23 4 -70 -10
-26 -28 -55 -41 -63 -13 -9 -20 -22 -17 -31 3 -8 1 -11 -4 -8 -6 3 -10 -3 -10
-14 0 -12 6 -21 13 -21 16 0 57 70 57 98 0 19 6 19 219 16 l219 -3 6 42 c3 23
2 58 -4 77 -5 19 -10 79 -10 132 0 107 -7 118 -49 75 -23 -26 -30 -67 -17
-106 7 -19 5 -23 -7 -18 -9 3 -18 1 -20 -6 -3 -8 -11 -6 -25 6 -15 14 -25 16
-38 9 -14 -8 -28 -5 -57 9 -41 21 -45 42 -9 47 12 2 22 9 22 15 -1 28 -17 36
-65 34 -41 -3 -52 -7 -60 -26 -7 -15 -18 -21 -35 -20 -57 3 -60 1 -60 -40 0
-30 -6 -44 -22 -55 -12 -9 -24 -13 -27 -10 -3 3 1 9 9 14 13 8 13 10 0 10 -9
0 -21 -4 -28 -10 -9 -7 -9 -7 -2 2 6 7 10 28 10 48 l0 35 -44 -3 c-37 -3 -46
-8 -49 -25 -2 -14 -6 -3 -11 26 -5 30 -5 57 2 72 7 16 7 26 -1 34 -15 15 -24
14 -30 -4z"/>
<path d="M3348 4215 c-3 -3 -81 -6 -174 -6 -93 0 -176 -4 -184 -9 -10 -6 -11
-10 -2 -10 18 0 15 -18 -5 -23 -13 -3 -11 -5 7 -7 44 -4 84 -2 107 5 17 6 22
2 25 -17 3 -21 7 -23 48 -20 25 2 57 3 72 3 15 0 30 4 33 9 10 17 33 11 61
-15 19 -17 31 -22 39 -15 18 15 25 1 14 -27 -7 -19 -6 -30 4 -42 7 -9 14 -27
15 -41 1 -27 21 -70 33 -70 4 0 12 13 17 29 6 16 20 32 32 36 l22 7 -23 24
c-12 13 -28 24 -35 24 -18 0 -36 65 -32 115 2 31 -1 46 -10 50 -18 7 -57 6
-64 0z"/>
<path d="M2356 874 c-3 -8 -10 -12 -16 -9 -5 3 -10 2 -10 -3 0 -15 -51 -11
-57 4 -7 19 -23 18 -23 -2 0 -13 -7 -15 -32 -10 -33 6 -33 6 -10 -10 17 -12
36 -15 65 -11 41 6 34 -1 -18 -18 -19 -6 -19 -7 -3 -16 12 -7 31 -6 55 0 40
11 63 1 63 -28 0 -14 -2 -14 -10 -1 -5 8 -12 11 -16 7 -15 -15 12 -28 38 -18
15 5 30 6 39 0 23 -15 30 -10 17 11 -14 22 -44 27 -51 8 -3 -7 -6 -4 -6 8 -1
11 -7 26 -13 32 -10 10 -10 15 2 22 20 13 47 13 55 0 5 -9 -16 -15 -38 -11 -5
1 -6 -3 -3 -8 3 -5 22 -9 42 -9 41 0 55 -9 34 -22 -8 -5 -11 -13 -6 -17 5 -4
11 -3 13 4 3 9 10 9 28 1 13 -6 30 -8 37 -6 18 7 34 5 31 -4 -2 -5 2 -8 7 -8
6 0 10 9 10 20 0 17 -7 20 -48 20 -39 0 -49 4 -57 23 -6 12 -20 26 -32 32 -13
5 -23 13 -23 16 0 4 -9 5 -20 2 -11 -3 -20 0 -20 6 0 16 -17 13 -24 -5z"/>
</g>
</svg>
