<?xml version="1.0" standalone="no"?>
<!DOCTYPE svg PUBLIC "-//W3C//DTD SVG 20010904//EN"
 "http://www.w3.org/TR/2001/REC-SVG-20010904/DTD/svg10.dtd">
<svg version="1.0" xmlns="http://www.w3.org/2000/svg"
 width="650.000000pt" height="800.000000pt" viewBox="0 0 650.000000 800.000000"
 preserveAspectRatio="xMidYMid meet">
<metadata>
Created by potrace 1.16, written by Peter Selinger 2001-2019
</metadata>
<g transform="translate(0.000000,800.000000) scale(0.100000,-0.100000)"
fill="#000000" stroke="none">
<path d="M0 7850 c0 -116 3 -150 13 -150 7 0 17 4 23 9 5 5 25 13 44 18 33 9
35 12 35 53 0 43 1 44 60 78 69 41 81 54 56 64 -10 3 -21 14 -25 23 -5 13 -14
15 -46 10 -36 -6 -41 -4 -51 19 -11 23 -18 26 -61 26 l-48 0 0 -150z"/>
<path d="M1073 7958 c3 -29 0 -49 -10 -60 -9 -10 -12 -25 -8 -37 9 -31 71 -28
115 4 27 20 45 25 85 24 55 -1 131 20 127 36 -1 6 -10 10 -20 10 -9 0 -23 4
-30 8 -7 5 -22 8 -35 7 -41 -4 -54 0 -91 25 -27 18 -50 25 -87 25 l-50 0 4
-42z"/>
<path d="M5255 7970 l-29 -30 30 -32 c56 -60 89 -87 101 -83 6 2 26 -12 43
-32 21 -24 34 -32 39 -24 5 7 23 9 54 5 26 -4 44 -10 42 -14 -7 -11 15 -17 43
-12 18 4 20 7 10 13 -10 7 -10 9 0 9 6 0 12 6 12 13 0 16 54 57 75 57 12 0 15
6 10 21 -4 13 0 27 11 40 17 18 16 19 -14 19 -24 0 -32 5 -32 18 -1 24 -35 68
-44 54 -4 -6 -14 -8 -22 -5 -8 3 -26 0 -40 -7 -18 -10 -24 -22 -24 -46 0 -45
-30 -63 -66 -39 -14 9 -22 21 -18 26 3 6 -4 17 -15 26 -15 10 -20 21 -16 34 6
17 1 19 -57 19 -58 0 -67 -3 -93 -30z"/>
<path d="M5730 7990 c0 -6 6 -13 14 -16 8 -3 17 -16 20 -30 4 -13 13 -24 20
-24 15 0 56 -75 56 -101 0 -8 7 -24 15 -35 12 -16 14 -17 15 -2 0 29 28 48 60
41 41 -8 100 5 100 22 0 8 -11 22 -25 31 -14 9 -25 23 -25 30 0 19 59 18 84
-1 13 -10 32 -13 58 -9 33 6 38 4 38 -14 0 -11 -7 -23 -16 -26 -9 -4 -14 -9
-11 -13 4 -3 2 -12 -5 -20 -8 -10 -8 -17 0 -25 17 -17 15 -49 -2 -42 -7 3 -26
-6 -42 -20 -25 -22 -27 -27 -16 -45 16 -27 16 -26 -15 -28 -16 0 -31 4 -35 10
-10 17 -59 -8 -52 -27 8 -21 34 -28 51 -15 10 9 17 9 25 1 17 -17 41 -15 60 6
26 27 46 42 57 42 6 0 10 10 8 22 -1 17 4 24 21 26 24 4 87 -21 97 -38 10 -16
68 -11 97 8 24 16 25 19 13 42 -10 18 -10 30 -3 45 16 31 69 75 90 75 16 0 18
9 18 70 l0 71 -232 -1 c-147 -1 -238 -6 -246 -13 -9 -7 -16 -7 -24 1 -15 15
-268 17 -268 2z"/>
<path d="M3636 7251 c47 -21 72 -48 34 -36 -12 4 -34 8 -49 10 -14 1 -35 6
-46 10 -11 4 6 -9 39 -29 32 -20 63 -33 69 -29 5 3 7 2 4 -4 -6 -9 74 -96 87
-94 3 1 6 -1 6 -4 0 -28 -1 -29 -13 -15 -7 8 -21 22 -32 30 -19 14 -19 14 -5
-5 8 -11 25 -30 37 -42 40 -42 110 -196 123 -273 16 -93 1 -223 -21 -188 -6 9
-9 5 -9 -12 0 -22 -52 -99 -72 -108 -5 -2 -8 -13 -8 -23 0 -26 18 -15 31 18 5
14 12 23 15 20 10 -9 -24 -99 -52 -141 l-26 -38 21 -50 c12 -28 21 -59 21 -68
0 -12 10 -19 29 -22 27 -4 28 -3 17 16 -6 12 -15 24 -21 28 -7 5 -6 8 1 8 5 0
15 -5 20 -10 16 -16 73 -30 79 -20 3 5 23 14 44 20 22 6 42 17 45 25 7 19 1
19 -19 -1 -26 -26 -29 -8 -4 25 13 17 26 27 29 21 7 -11 60 42 60 60 0 5 14
44 31 87 35 89 35 130 1 203 -12 25 -19 35 -16 23 11 -44 -5 -22 -51 71 -26
52 -54 97 -62 100 -8 3 -11 10 -8 16 3 5 1 10 -5 10 -7 0 -9 8 -5 20 4 11 2
20 -4 20 -6 0 -11 5 -11 12 0 27 -34 98 -46 98 -8 0 -14 5 -14 10 0 6 5 10 10
10 6 0 10 6 10 14 0 9 -7 12 -20 9 -13 -4 -20 0 -20 10 0 8 -7 21 -17 28 -15
13 -15 12 -3 -11 l13 -25 -22 19 c-11 11 -20 25 -19 32 2 7 -17 27 -40 44 -24
17 -41 34 -38 37 3 4 16 -3 29 -14 38 -34 51 -39 33 -11 -9 14 -27 31 -41 38
-14 8 -28 24 -31 36 -4 16 -20 27 -52 38 -63 22 -86 20 -36 -3z"/>
<path d="M3575 7099 c30 -36 69 -109 62 -116 -3 -2 -17 12 -32 31 -15 20 -32
36 -38 36 -6 0 -1 -10 11 -23 12 -13 22 -27 22 -32 0 -5 8 -17 17 -27 9 -10
17 -26 18 -36 0 -9 4 -22 8 -29 4 -6 13 -35 21 -64 12 -48 16 -54 42 -57 36
-5 54 -19 54 -43 0 -22 -8 -23 -34 -4 -10 7 -15 19 -11 25 6 9 2 9 -12 2 -12
-7 -25 -7 -35 -1 -36 20 -119 -58 -118 -109 1 -13 7 -9 25 13 22 26 25 27 25
10 1 -28 26 -70 34 -57 3 5 14 8 24 6 9 -2 25 3 36 11 24 18 14 49 -14 42 -12
-3 -20 0 -20 8 0 33 60 21 73 -15 4 -11 7 -9 12 8 16 49 35 16 35 -59 0 -31 4
-48 10 -44 14 9 12 57 -5 148 -18 93 -19 110 -5 102 6 -3 10 -15 10 -26 0 -11
4 -17 10 -14 15 9 25 -42 25 -129 l0 -78 13 43 c11 36 11 60 1 129 -6 47 -18
102 -25 124 -17 46 -17 49 -4 41 15 -9 12 11 -3 27 -14 14 -17 21 -17 40 0 6
-3 8 -6 5 -4 -4 -19 13 -35 36 -41 62 -58 81 -65 74 -4 -3 2 -19 12 -34 26
-38 45 -75 41 -79 -1 -2 -14 15 -27 36 -14 22 -30 40 -36 40 -6 0 -32 16 -57
35 -57 43 -77 45 -42 4z"/>
<path d="M3373 7100 c9 -14 29 -45 44 -70 15 -25 31 -48 36 -51 5 -3 8 -9 8
-13 -1 -3 10 -31 24 -62 14 -30 29 -85 34 -122 8 -61 9 -63 10 -21 1 42 4 48
31 59 27 11 41 30 22 30 -4 0 -14 15 -21 32 -8 18 -34 58 -57 88 -45 59 -159
172 -131 130z"/>
<path d="M3147 7017 c-13 -34 -7 -181 11 -267 10 -47 17 -97 15 -112 -1 -15 2
-30 8 -33 11 -8 12 -25 1 -25 -5 0 -21 27 -37 60 -35 74 -46 71 -15 -4 29 -72
39 -80 75 -58 25 15 28 24 30 70 1 28 -1 52 -5 52 -7 0 -44 151 -63 260 -9 49
-15 68 -20 57z"/>
<path d="M3026 6755 c7 -61 31 -155 56 -213 10 -24 14 -41 9 -38 -5 3 -14 19
-21 36 -7 16 -16 30 -21 30 -12 0 -12 -1 7 -45 8 -20 13 -39 11 -41 -4 -4 -20
31 -52 110 -8 22 -17 37 -19 35 -7 -6 27 -144 36 -147 5 -2 8 -11 8 -21 0 -9
5 -22 12 -29 9 -9 9 -12 0 -12 -8 0 -5 -9 8 -22 11 -12 20 -28 20 -35 0 -7 5
-13 11 -13 6 0 9 -6 6 -14 -3 -8 15 -33 45 -60 48 -44 94 -96 85 -96 -2 0 -24
18 -48 41 -79 73 -79 73 -79 61 0 -7 8 -19 18 -27 9 -7 28 -23 42 -34 l25 -21
-32 11 c-43 14 -113 82 -148 143 -16 27 -30 45 -32 39 -6 -16 44 -141 67 -170
11 -14 20 -31 20 -37 -1 -9 -26 17 -58 59 -10 13 -49 105 -55 130 -4 15 -5 14
-6 -7 -1 -25 22 -138 35 -173 4 -10 2 -15 -6 -13 -20 5 -41 -71 -45 -164 -4
-91 3 -108 24 -61 l13 28 13 -32 c16 -39 50 -73 71 -73 14 0 15 2 3 17 -12 15
-12 16 3 10 15 -5 16 2 12 66 l-5 72 21 -51 c21 -53 61 -104 80 -104 6 0 8 5
5 11 -14 22 -15 164 -1 209 13 44 13 43 12 -53 -1 -100 7 -125 19 -60 10 56
16 59 35 16 9 -21 27 -47 39 -57 20 -18 21 -18 21 -1 0 14 4 13 21 -9 11 -14
23 -26 27 -26 4 0 7 30 8 68 0 37 4 80 8 97 7 26 9 27 17 12 6 -9 7 -21 4 -27
-3 -5 -3 -21 1 -36 7 -26 8 -26 20 -9 13 17 14 16 14 -13 0 -41 14 -41 31 1 7
17 25 59 41 91 15 33 28 61 28 62 0 4 -64 22 -102 29 -20 3 -60 21 -88 40 -41
28 -56 33 -71 25 -22 -12 -63 -4 -80 16 -9 11 -6 14 19 14 25 0 30 4 29 20 -1
11 -7 18 -13 16 -7 -3 -10 2 -7 13 2 9 -14 52 -37 94 -37 71 -86 197 -124 322
l-15 50 5 -50z"/>
<path d="M3233 6571 c-33 -37 -39 -46 -41 -75 -1 -16 -8 -36 -15 -44 -10 -13
-9 -14 3 -10 8 3 25 2 36 -3 18 -6 21 -5 17 12 -3 10 -2 31 2 46 l7 28 13 -31
c8 -21 22 -33 39 -36 20 -4 24 -2 16 8 -9 9 -7 11 9 7 13 -3 23 2 31 16 14 27
4 44 -22 38 -14 -4 -18 -1 -16 11 2 10 16 19 33 22 29 6 30 6 8 18 -34 19
-100 15 -120 -7z"/>
<path d="M2891 6571 c-1 -8 -9 -23 -18 -34 -16 -17 -16 -20 -2 -30 24 -18 25
-22 9 -42 -8 -11 -10 -16 -3 -12 16 10 27 -11 14 -26 -5 -7 -8 -22 -5 -34 3
-11 1 -24 -5 -27 -7 -5 -6 -15 5 -30 14 -22 12 -33 -21 -147 -43 -146 -52
-247 -28 -309 l16 -41 18 68 c9 38 17 106 17 153 1 65 7 99 24 145 20 49 23
75 21 145 -2 71 -39 266 -42 221z"/>
<path d="M3548 6379 c-41 -20 -58 -35 -58 -49 0 -23 37 -60 59 -59 11 0 9 4
-6 11 -13 6 -23 15 -23 20 0 13 22 9 41 -8 17 -15 21 -15 54 0 40 19 54 54 36
92 -14 31 -33 30 -103 -7z"/>
<path d="M4090 5645 c-8 -16 -19 -24 -28 -20 -10 4 -13 0 -9 -15 4 -16 0 -20
-21 -20 -21 0 -24 -2 -12 -10 13 -8 12 -10 -2 -10 -10 0 -18 -5 -18 -11 0 -5
-8 -9 -17 -8 -31 3 -38 -1 -23 -12 11 -8 9 -9 -10 -3 -34 9 -37 13 -20 25 12
9 13 10 1 7 -17 -5 -28 -23 -36 -60 -3 -16 -10 -28 -15 -28 -5 0 -7 7 -4 15 4
8 2 15 -4 15 -8 0 -42 -177 -45 -234 -1 -10 -35 -50 -77 -89 -51 -48 -61 -61
-32 -40 56 40 122 101 122 113 0 5 16 17 36 26 l35 17 -6 81 c-5 74 -5 79 9
56 8 -14 22 -55 31 -90 31 -118 57 -138 30 -24 -9 38 -23 79 -31 92 -9 13 -12
32 -9 45 4 15 3 18 -3 9 -6 -10 -9 -5 -8 16 l1 30 40 -36 c22 -20 55 -54 74
-77 18 -22 34 -41 36 -43 1 -1 0 9 -2 23 -4 19 -1 25 13 25 35 0 154 33 154
42 0 6 -8 7 -17 3 -54 -23 -203 -11 -203 16 0 4 -13 10 -30 14 -42 9 -39 29 4
21 28 -5 36 -3 50 19 9 14 27 30 39 36 18 8 22 18 22 59 0 28 0 50 -1 50 0 0
-7 -11 -14 -25z"/>
<path d="M4605 4592 c-5 -6 -27 -19 -48 -30 -32 -17 -35 -21 -19 -26 10 -4 18
-14 16 -24 -5 -36 -17 -62 -29 -62 -7 0 -18 -7 -25 -15 -9 -11 -35 -14 -111
-13 -86 1 -99 3 -99 18 0 12 16 22 58 34 31 10 66 22 77 27 20 10 20 10 0 4
-82 -25 -233 -36 -405 -32 -171 5 -195 8 -320 41 -145 39 -147 38 -166 -17 -8
-23 -17 -32 -33 -31 -14 0 -21 -5 -21 -17 0 -42 -76 -45 -86 -4 -3 13 -12 26
-20 29 -10 4 -12 14 -8 30 7 31 -10 42 -33 19 -10 -10 -42 -35 -71 -56 -28
-21 -52 -40 -52 -42 0 -1 15 -1 33 1 l32 3 -50 -44 c-56 -51 -46 -62 12 -12
21 17 32 24 24 15 -11 -14 -11 -21 -1 -33 16 -19 46 -4 56 27 7 22 7 22 15 3
6 -16 8 -17 8 -3 1 9 5 19 9 22 5 3 8 -21 7 -53 -1 -46 -8 -67 -33 -102 -16
-25 -37 -51 -45 -58 -9 -7 -18 -38 -22 -74 -4 -34 -15 -120 -26 -190 -10 -71
-22 -183 -25 -250 -7 -134 3 -317 17 -317 5 0 9 15 9 33 0 18 7 59 15 90 8 32
15 73 15 92 0 19 9 50 21 69 12 20 18 36 14 36 -4 0 -2 6 4 14 9 10 9 15 1 18
-8 2 -8 11 -1 30 5 14 7 36 4 48 -4 15 -2 21 4 17 7 -5 10 6 7 30 -9 97 -11
206 -4 288 6 76 12 98 38 139 17 26 34 62 38 80 3 17 11 39 16 49 8 16 11 16
24 2 18 -18 35 -20 31 -4 -1 6 4 14 10 16 18 6 74 -58 135 -155 29 -45 134
-205 233 -356 l181 -274 17 -98 c24 -132 47 -203 64 -197 17 6 17 30 1 36 -8
4 -4 8 10 13 21 6 23 12 19 52 l-4 45 36 -39 c20 -21 59 -66 86 -98 61 -72
195 -190 260 -229 l30 -18 -25 21 c-14 12 -46 42 -72 67 -42 39 -47 47 -37 65
9 16 8 19 -2 13 -9 -6 -11 -3 -6 9 4 10 3 15 -3 11 -6 -3 -10 -2 -10 3 0 8
-35 57 -70 99 -5 7 -10 16 -10 21 0 4 -8 17 -17 28 -10 10 -31 38 -47 61 -23
35 -26 46 -16 57 8 10 15 12 23 5 7 -5 43 -30 81 -55 47 -30 76 -42 89 -38 13
4 17 2 13 -5 -4 -6 -3 -11 3 -11 26 0 14 22 -50 92 -71 78 -80 95 -54 95 9 0
14 -6 11 -14 -3 -8 -2 -12 3 -9 5 3 24 -9 43 -27 213 -207 310 -286 350 -287
9 0 18 -6 21 -12 4 -10 7 -10 18 0 10 9 10 12 0 12 -16 0 -174 120 -167 127 3
3 26 -4 51 -16 24 -11 49 -21 55 -21 6 0 22 -7 36 -16 54 -36 30 23 -28 67
-48 36 -82 69 -72 69 5 0 41 -18 79 -41 39 -23 80 -43 92 -45 19 -4 20 -1 13
23 -12 36 -40 147 -40 156 0 4 14 7 30 7 26 0 30 4 30 26 0 43 -44 104 -75
104 -25 0 -38 67 -27 145 6 43 6 77 0 88 -5 9 -6 22 -3 27 3 5 2 18 -4 27 -7
13 -3 29 12 58 17 33 21 60 22 150 2 98 1 107 -11 80 -7 -16 -13 -26 -14 -21
0 5 -7 3 -15 -4 -20 -16 -19 -1 1 21 26 29 25 97 -2 151 -13 26 -24 64 -24 83
0 43 -15 39 -24 -6 -4 -22 -10 -29 -20 -26 -8 3 -17 1 -20 -6 -2 -7 -5 -5 -5
5 -1 9 -10 20 -21 23 -16 5 -18 10 -9 26 13 24 8 54 -6 41z"/>
<path d="M2460 2311 c0 -27 5 -31 83 -61 109 -41 218 -71 238 -65 17 6 39 46
39 73 0 15 -12 17 -84 19 -67 1 -100 8 -162 32 -101 39 -114 39 -114 2z"/>
<path d="M2437 2163 c-4 -3 -7 -33 -7 -65 0 -59 0 -59 38 -74 20 -8 51 -21 67
-29 17 -8 71 -19 120 -24 50 -5 100 -13 112 -16 19 -6 25 1 51 53 17 33 28 63
24 66 -3 3 -16 6 -29 6 -13 0 -23 6 -23 14 0 23 -19 29 -79 27 -33 -1 -97 9
-156 24 -111 28 -109 28 -118 18z"/>
<path d="M427 2015 c-4 -8 -11 -15 -17 -15 -6 0 -8 5 -4 12 4 7 3 8 -4 4 -7
-4 -8 -13 -3 -24 32 -64 34 -73 27 -168 -4 -53 -12 -106 -18 -118 -6 -11 -12
-48 -12 -81 -1 -51 6 -74 43 -150 23 -49 48 -93 53 -97 6 -3 15 -48 19 -100 7
-87 22 -152 39 -171 4 -5 1 16 -7 45 -8 29 -11 69 -8 88 14 85 -5 160 -40 160
-8 0 -17 10 -20 23 -4 12 -20 50 -37 83 -32 67 -33 94 -4 209 8 33 17 76 19
95 2 20 7 41 11 48 4 7 2 12 -5 12 -8 0 -10 14 -7 45 3 24 2 43 -2 40 -4 -2
-12 7 -19 22 -10 21 -9 24 3 20 8 -3 13 0 12 8 -3 22 -13 27 -19 10z"/>
<path d="M3064 785 c-35 -24 -84 -93 -84 -120 0 -5 -11 -32 -25 -60 -13 -27
-24 -63 -24 -80 l-1 -30 19 24 c16 21 23 23 67 17 27 -4 72 -13 100 -21 49
-14 50 -16 47 -47 -3 -31 -2 -31 8 -10 13 24 38 30 40 10 1 -7 1 -24 0 -38 -1
-25 -1 -25 15 4 14 26 17 27 26 12 12 -22 -17 -70 -38 -62 -8 3 -14 0 -14 -5
0 -7 -11 -9 -25 -7 -13 3 -26 1 -27 -4 -2 -5 -29 -10 -61 -11 -31 -1 -57 -5
-57 -9 0 -15 97 -8 153 11 89 31 98 44 110 158 18 165 16 198 -13 228 -34 37
-68 53 -126 60 -42 6 -55 3 -90 -20z"/>
<path d="M3216 318 c-10 -6 -42 -17 -70 -24 -47 -12 -71 -12 -164 2 -25 4 -32
2 -26 -7 5 -9 2 -10 -11 -5 -14 5 -16 4 -6 -8 21 -25 213 -42 279 -24 26 7 37
7 40 -1 6 -19 20 -12 24 12 2 13 10 22 20 22 25 0 46 23 27 29 -37 12 -96 14
-113 4z"/>
</g>
</svg>
