<?xml version="1.0" standalone="no"?>
<!DOCTYPE svg PUBLIC "-//W3C//DTD SVG 20010904//EN"
 "http://www.w3.org/TR/2001/REC-SVG-20010904/DTD/svg10.dtd">
<svg version="1.0" xmlns="http://www.w3.org/2000/svg"
 width="570.000000pt" height="855.000000pt" viewBox="0 0 570.000000 855.000000"
 preserveAspectRatio="xMidYMid meet">
<metadata>
Created by potrace 1.16, written by Peter Selinger 2001-2019
</metadata>
<g transform="translate(0.000000,855.000000) scale(0.100000,-0.100000)"
fill="#000000" stroke="none">
<path d="M0 8489 c0 -34 4 -58 9 -54 5 3 42 2 82 -1 50 -5 78 -13 91 -26 24
-24 41 -23 33 1 -5 18 -2 19 50 14 51 -5 55 -4 55 16 0 18 6 21 40 21 22 0 40
-4 40 -10 0 -5 18 -10 40 -10 25 0 40 5 40 13 0 8 17 12 50 13 28 1 52 3 54 5
2 2 6 21 10 42 l7 37 -301 0 -300 0 0 -61z"/>
<path d="M4716 8534 c-3 -8 -2 -13 3 -10 9 6 29 -14 46 -47 13 -27 35 -33 35
-10 0 15 3 15 19 -6 15 -20 24 -23 54 -17 24 4 46 2 64 -7 15 -8 55 -17 87
-21 33 -4 66 -12 74 -19 8 -6 27 -10 42 -9 16 2 31 -2 35 -7 3 -6 17 -8 30 -5
14 3 33 0 46 -10 20 -14 24 -13 50 5 26 18 28 18 37 3 10 -17 20 -19 148 -26
34 -2 72 -15 114 -36 96 -51 100 -47 100 109 l0 129 -489 0 c-433 0 -490 -2
-495 -16z"/>
<path d="M3325 7686 c-106 -29 -127 -43 -284 -185 -97 -87 -131 -120 -131
-126 0 -2 12 0 28 4 15 4 32 7 37 5 6 -1 22 -5 36 -8 48 -10 62 -98 28 -175
-18 -44 -20 -63 -16 -212 3 -114 10 -184 22 -229 10 -36 19 -67 21 -69 1 -2
23 5 48 14 54 21 192 17 245 -6 l34 -15 -51 -33 -51 -33 -77 16 c-42 9 -91 16
-109 16 -29 0 -32 -3 -32 -27 0 -20 1 -23 8 -10 8 14 14 14 56 2 25 -8 50 -18
55 -23 13 -13 0 -36 -31 -55 -38 -23 -62 -21 -68 3 -10 38 -21 20 -28 -46 -4
-37 -16 -92 -27 -123 -26 -73 -37 -144 -43 -266 -3 -55 -10 -101 -15 -103 -5
-2 -6 -11 -3 -20 3 -9 3 -14 -1 -10 -5 4 -20 -5 -34 -19 -21 -21 -31 -24 -66
-20 -22 3 -42 11 -44 16 -2 6 -10 11 -18 11 -8 0 -14 5 -14 11 0 6 -9 8 -22 4
-18 -5 -20 -4 -8 4 11 8 12 11 2 11 -7 0 -11 4 -8 9 3 4 -6 13 -19 19 -14 7
-25 18 -25 27 0 8 -4 15 -9 15 -6 0 -11 17 -13 38 -5 62 -29 -126 -35 -276
l-6 -133 -56 -36 c-173 -111 -471 -229 -726 -288 -245 -56 -398 -96 -474 -124
-153 -56 -259 -143 -314 -261 -38 -79 -45 -177 -28 -363 14 -151 2 -268 -33
-342 -31 -62 -98 -131 -154 -157 -23 -11 -45 -24 -48 -29 -10 -16 65 -9 123
11 32 11 61 20 65 20 4 0 10 -17 13 -37 17 -96 58 -231 91 -293 56 -108 167
-230 189 -209 3 3 -8 30 -24 60 -63 118 -83 292 -52 444 37 180 88 278 226
431 114 127 370 319 454 341 38 10 23 -25 -37 -90 -181 -196 -329 -439 -396
-652 -71 -226 -82 -321 -56 -517 27 -211 58 -276 177 -373 54 -44 83 -56 83
-34 0 6 -17 45 -37 87 l-38 76 1 165 c1 162 2 169 38 291 62 204 171 417 310
600 129 170 157 182 83 33 -61 -121 -141 -358 -162 -477 -25 -148 -9 -309 47
-466 22 -63 47 -142 55 -175 35 -140 78 -256 135 -359 74 -136 86 -152 106
-133 11 12 12 25 1 77 -12 63 -11 124 11 545 13 263 45 423 124 619 35 85 80
175 72 141 -51 -203 -73 -310 -87 -434 -13 -122 -8 -205 27 -410 13 -82 28
-195 33 -252 l9 -104 -39 -82 c-39 -86 -38 -107 7 -79 37 25 89 111 123 203
35 94 54 134 123 254 47 84 174 392 234 572 16 48 30 84 32 79 1 -5 -18 -100
-42 -213 -36 -161 -54 -221 -85 -284 -108 -218 -134 -449 -80 -710 11 -55 24
-154 28 -220 7 -99 12 -129 34 -171 32 -63 85 -101 183 -129 l75 -22 45 -78
c52 -92 63 -125 41 -125 -9 0 -32 -16 -53 -35 -20 -19 -45 -35 -55 -35 -22 0
-23 4 -9 31 9 16 7 19 -9 19 -13 0 -25 -13 -38 -42 -17 -38 -26 -45 -120 -89
-92 -43 -104 -53 -124 -90 -17 -35 -19 -46 -10 -67 7 -13 10 -25 9 -27 -7 -4
-249 -37 -252 -34 -2 2 -11 19 -21 38 -9 18 -37 53 -61 77 -38 37 -55 45 -117
58 -275 58 -340 60 -408 18 -24 -16 -65 -52 -89 -80 l-45 -50 -125 -3 c-69 -2
-213 1 -321 5 l-195 9 -84 -28 c-109 -36 -170 -93 -196 -181 -21 -73 -14 -152
17 -195 23 -32 148 -99 186 -99 10 0 25 -5 33 -10 13 -8 13 -10 -2 -10 -9 0
-23 -7 -32 -15 -8 -8 -25 -14 -38 -13 -19 3 -23 -1 -22 -22 1 -14 5 -35 9 -47
9 -28 -11 -31 -55 -8 -20 10 -42 13 -70 9 -27 -4 -40 -3 -40 5 0 6 -4 11 -10
11 -13 0 -13 -12 0 -45 8 -22 12 -24 29 -14 20 13 98 3 187 -22 24 -7 49 -9
60 -4 10 4 22 8 26 7 4 -1 5 5 2 12 -4 11 8 16 49 21 31 4 61 4 67 0 19 -12
129 -32 124 -23 -6 9 -1 10 91 8 38 -1 75 -6 81 -11 6 -5 18 -7 27 -3 8 3 18
0 22 -5 24 -40 263 -77 635 -101 96 -6 236 -15 310 -21 81 -6 308 -8 565 -5
587 7 912 35 1355 118 63 12 118 26 122 32 8 12 -49 48 -107 67 l-40 13 44 8
c84 15 195 102 227 177 18 43 16 95 -14 306 -45 312 -88 510 -121 555 -47 64
-219 42 -409 -53 -60 -31 -73 -34 -88 -22 -10 7 -23 11 -30 8 -6 -2 -14 6 -17
17 -4 14 -10 19 -18 14 -7 -4 -10 -3 -6 3 4 6 0 16 -8 23 -8 7 -15 20 -15 29
0 17 -18 41 -31 41 -5 0 -6 -9 -4 -20 4 -23 -7 -25 -38 -8 -86 46 -220 15
-397 -91 -41 -24 -77 -48 -80 -52 -15 -22 -110 -5 -110 19 0 5 -16 23 -35 42
-32 31 -135 174 -135 187 0 3 -8 17 -19 31 -23 34 -47 118 -56 200 -5 48 -3
74 11 112 10 28 22 50 26 50 4 0 8 9 8 20 0 11 5 20 12 20 6 0 21 8 32 19 38
34 116 56 196 56 88 -1 157 -18 223 -57 26 -15 52 -28 57 -28 20 0 78 -62 130
-139 30 -44 57 -80 60 -81 4 0 4 15 2 34 -4 30 0 37 40 63 23 17 54 33 68 36
25 6 87 22 195 51 60 16 141 19 183 8 40 -12 80 -61 123 -150 l41 -87 19 44
c23 52 27 143 8 170 -182 249 -339 527 -393 697 -53 164 -64 212 -76 324 -6
63 -18 153 -26 200 -20 123 -18 207 10 318 14 53 32 137 41 186 17 94 32 131
62 157 102 89 131 209 76 318 -30 59 -58 91 -143 162 l-55 46 29 39 c16 21 31
41 33 44 2 2 15 -9 28 -25 33 -41 46 -24 47 60 l1 67 101 91 c169 154 310 297
292 297 -9 0 -16 4 -16 10 0 17 -70 24 -83 8 -7 -8 -52 -47 -100 -88 -51 -43
-86 -78 -83 -86 3 -8 0 -11 -10 -7 -7 3 -14 0 -14 -5 0 -6 -20 -25 -45 -43
-25 -18 -45 -37 -45 -43 0 -6 -9 -17 -20 -24 -15 -9 -20 -9 -20 0 0 6 -3 8 -7
5 -10 -10 -53 59 -53 85 0 13 18 42 40 67 31 33 45 42 63 39 19 -4 29 3 47 31
60 93 73 111 100 142 17 18 30 36 30 41 0 4 7 8 15 8 8 0 15 7 15 15 0 8 7 15
16 15 12 0 14 7 9 31 -5 24 -2 36 16 55 12 13 18 24 12 24 -6 0 -25 -16 -42
-35 -17 -19 -35 -35 -42 -35 -6 0 -24 -9 -41 -21 -16 -12 -32 -19 -34 -16 -3
3 0 58 7 123 20 203 0 346 -69 479 -23 45 -69 84 -122 105 -19 7 -48 25 -65
40 -34 31 -87 60 -110 60 -22 0 -18 16 10 38 27 21 54 19 105 -8 37 -20 110
-91 153 -150 22 -30 43 -57 47 -60 3 -3 33 -48 65 -100 111 -178 225 -330 247
-330 4 0 8 11 8 25 0 14 -5 25 -10 25 -6 0 -13 8 -17 18 -7 19 -54 82 -95 127
-15 17 -28 34 -28 38 0 5 -6 15 -12 22 -31 34 -38 45 -38 57 0 14 -29 55 -66
92 -11 12 -19 27 -16 34 2 7 -2 12 -10 12 -7 0 -24 18 -38 40 -14 22 -28 40
-32 40 -5 0 -8 7 -8 16 0 8 -4 12 -10 9 -5 -3 -10 0 -10 8 0 8 -9 22 -20 32
-11 10 -20 26 -20 37 0 10 -4 18 -9 18 -5 0 -7 8 -5 18 3 9 -3 33 -13 52 -12
23 -16 45 -12 65 14 64 9 191 -11 269 -11 43 -20 89 -20 102 0 39 -58 204
-105 299 -67 135 -93 161 -195 191 -104 30 -195 30 -305 0z m205 -341 c14 -17
46 -20 54 -6 4 5 22 5 43 0 21 -4 77 -11 126 -14 48 -4 87 -10 87 -13 0 -4
-48 -7 -108 -8 -143 -1 -339 -24 -353 -40 -9 -11 -2 -24 29 -56 70 -74 102
-112 108 -130 9 -29 82 -19 116 15 31 31 45 33 76 11 24 -17 27 -13 12 17 -16
28 -65 25 -104 -8 -28 -24 -31 -25 -34 -7 -1 10 3 53 10 94 12 69 15 75 37 75
23 0 37 -18 131 -175 4 -8 12 -11 16 -7 8 7 -35 107 -46 107 -10 0 -40 67 -33
74 11 11 82 6 93 -6 6 -7 20 -28 30 -45 21 -36 49 -48 30 -14 -5 11 -10 24
-10 30 0 18 35 12 58 -9 27 -25 31 -65 6 -56 -20 8 -64 -19 -63 -37 0 -9 2 -9
6 1 2 6 12 12 22 12 18 0 24 -26 25 -110 l1 -45 -75 -7 c-41 -5 -125 -17 -187
-28 -155 -28 -180 -27 -214 9 -15 16 -55 48 -88 70 -50 34 -61 47 -61 69 0 16
7 37 15 48 8 10 15 29 15 41 0 12 7 28 15 37 8 8 18 28 21 44 7 34 42 57 73
47 12 -4 21 -2 21 4 0 6 -6 11 -12 12 -26 1 28 16 63 17 22 1 42 -4 49 -13z
m43 -142 c-4 -38 -8 -80 -8 -95 0 -44 -33 -44 -52 -1 -8 20 -21 42 -29 50 -8
8 -14 22 -14 31 0 14 -2 14 -9 3 -7 -11 -11 -10 -19 5 -7 13 -6 26 4 46 13 26
19 28 75 28 l60 0 -8 -67z m-318 -1353 c14 -7 25 -16 25 -20 0 -4 20 -7 45 -7
25 -1 42 3 40 8 -3 4 4 27 16 51 12 23 27 58 34 77 l12 36 7 -32 c7 -29 10
-31 32 -23 15 6 24 6 24 0 0 -6 5 -9 12 -7 17 3 16 -26 -1 -39 -22 -17 -6 -31
54 -49 30 -8 55 -20 55 -25 0 -5 7 -7 15 -4 12 5 15 -4 15 -48 0 -47 4 -59 30
-87 37 -38 67 -41 76 -7 6 26 44 67 44 48 0 -6 -4 -14 -10 -17 -5 -3 -10 -11
-10 -16 0 -6 5 -7 11 -3 25 15 -11 -33 -42 -56 -18 -14 -38 -31 -46 -38 -7 -7
-13 -11 -13 -9 0 2 -19 1 -42 -4 -32 -5 -47 -4 -59 7 -9 8 -24 12 -34 8 -17
-7 -17 -6 0 24 21 35 20 39 -16 45 -14 3 -47 12 -72 21 -59 20 -74 14 -82 -35
-9 -52 12 -86 57 -92 33 -4 33 -4 -4 -5 -41 -2 -41 -2 -134 86 -42 41 -70 79
-93 127 -47 98 -57 235 -13 165 17 -28 34 -25 26 5 -3 14 -2 33 2 42 6 12 10
-3 12 -48 2 -58 6 -68 27 -79z m-140 -522 c5 -20 3 -28 -5 -28 -7 0 -10 -7 -7
-14 4 -9 1 -13 -6 -11 -7 3 -23 -18 -38 -47 -31 -63 -49 -73 -49 -26 0 41 -13
25 -36 -49 -11 -35 -21 -50 -30 -46 -18 7 -12 187 8 228 8 17 24 50 36 75 l23
45 -5 -35 c-3 -19 -8 -51 -12 -70 -10 -52 9 -26 32 43 17 55 19 57 25 30 4
-15 12 -39 18 -53 l11 -25 -5 27 c-3 14 -2 41 2 59 6 33 7 33 18 -21 7 -30 15
-67 20 -82z m-1365 -231 c0 -4 -23 -19 -50 -35 -171 -93 -331 -218 -411 -322
-30 -38 -58 -69 -63 -70 -4 0 -6 44 -4 98 3 79 9 106 30 147 49 94 117 143
243 174 79 19 255 25 255 8z m-247 -3485 c16 -17 33 -53 44 -94 15 -58 16 -74
5 -115 -28 -103 -103 -130 -246 -86 -31 10 -76 80 -76 121 0 93 99 176 241
201 3 1 17 -11 32 -27z m543 -352 c19 -8 29 -8 34 0 7 11 47 7 95 -8 30 -10
30 -10 4 -11 -35 -1 -46 -16 -61 -80 -11 -49 -13 -52 -37 -46 -13 3 -47 21
-75 40 -28 18 -77 46 -109 61 l-58 28 38 12 c49 15 134 17 169 4z"/>
<path d="M2682 7144 c-15 -31 -15 -35 -1 -31 6 1 17 -9 26 -23 12 -20 12 -21
0 -7 -25 30 -29 18 -5 -15 19 -27 23 -46 23 -104 0 -61 3 -74 27 -102 14 -17
28 -37 31 -44 6 -18 34 18 42 55 4 15 13 41 22 58 10 20 13 42 9 65 -6 31 -10
34 -41 34 -19 0 -35 5 -35 10 0 6 -6 10 -14 10 -14 0 -46 57 -46 83 0 8 -6 20
-13 26 -11 8 -16 5 -25 -15z"/>
<path d="M883 336 c-49 -31 -51 -34 -35 -51 16 -16 16 -17 -6 -5 -22 11 -23
10 -12 -9 13 -25 7 -27 -14 -6 -13 13 -16 11 -26 -20 -6 -19 -9 -39 -5 -45 4
-6 1 -9 -7 -8 -17 4 -23 -103 -8 -154 l11 -38 246 0 246 0 -19 21 c-21 23 -25
81 -10 160 l8 46 -49 17 c-85 31 -197 79 -223 96 -14 9 -30 19 -35 23 -6 3
-34 -9 -62 -27z"/>
<path d="M4430 254 c-30 -7 -77 -19 -105 -27 -27 -9 -104 -25 -170 -36 -66
-12 -140 -26 -165 -31 -25 -5 -83 -15 -130 -21 -47 -6 -96 -13 -110 -15 -47
-7 -225 -23 -320 -29 -52 -3 -124 -11 -160 -18 -137 -25 -1115 -9 -1363 23
-40 5 -127 14 -194 21 -68 7 -123 16 -123 21 0 4 -4 8 -9 8 -8 0 -35 -139 -28
-146 2 -2 695 -3 1540 -2 l1537 3 -20 40 c-11 22 -40 63 -65 92 -40 45 -43 53
-28 61 15 9 14 12 -8 39 -24 29 -25 29 -79 17z"/>
</g>
</svg>
