<?xml version="1.0" standalone="no"?>
<!DOCTYPE svg PUBLIC "-//W3C//DTD SVG 20010904//EN"
 "http://www.w3.org/TR/2001/REC-SVG-20010904/DTD/svg10.dtd">
<svg version="1.0" xmlns="http://www.w3.org/2000/svg"
 width="450.000000pt" height="450.000000pt" viewBox="0 0 450.000000 450.000000"
 preserveAspectRatio="xMidYMid meet">
<metadata>
Created by potrace 1.16, written by Peter Selinger 2001-2019
</metadata>
<g transform="translate(0.000000,450.000000) scale(0.100000,-0.100000)"
fill="#000000" stroke="none">
<path d="M3205 4365 c-82 -22 -178 -61 -227 -91 -60 -38 -152 -148 -145 -174
4 -15 -5 -24 -41 -41 -45 -22 -46 -22 -91 -5 -25 10 -63 24 -84 32 -37 14
-170 24 -180 14 -3 -3 -1 -23 5 -45 9 -32 23 -49 73 -87 34 -25 89 -60 123
-77 50 -25 59 -34 55 -51 -3 -11 -7 -20 -9 -20 -6 0 -174 97 -204 118 -22 15
-21 12 8 -25 47 -60 101 -112 134 -129 15 -8 28 -18 28 -22 -1 -12 -33 -48
-55 -61 -19 -11 -18 -12 5 -8 14 2 33 8 43 12 24 10 21 -6 -8 -49 -30 -45 -24
-46 17 -3 22 22 29 26 24 12 -4 -11 -10 -43 -13 -71 l-5 -50 -42 6 c-22 3 -52
12 -64 19 -29 16 -37 9 -23 -17 6 -12 11 -44 11 -72 0 -40 3 -51 14 -47 14 5
26 -48 26 -114 0 -43 -30 -39 -31 4 -1 32 -1 32 -11 -8 -5 -22 -12 -85 -15
-139 l-5 -99 46 5 46 6 11 -41 c6 -22 14 -47 19 -56 4 -9 15 -32 24 -51 12
-26 15 -29 12 -10 -5 24 -4 24 9 6 21 -28 18 -85 -5 -123 -20 -34 -37 -39
-106 -35 -26 2 -32 -2 -36 -20 -2 -13 -5 -129 -6 -258 -3 -225 -21 -687 -42
-1025 -6 -88 -10 -173 -10 -190 l0 -30 105 0 105 0 11 33 c6 19 31 63 55 99
39 58 43 68 30 82 -33 38 -37 59 -20 93 27 52 26 105 -2 133 -15 15 -24 19
-24 11 0 -20 -39 -66 -56 -66 -25 0 -26 27 -2 53 13 13 33 41 46 62 l22 37
-34 101 c-19 56 -38 131 -42 166 -7 61 -6 64 12 56 51 -21 169 -22 294 -2 21
3 30 -163 26 -458 -4 -225 -5 -231 -31 -290 -36 -80 -78 -196 -72 -201 2 -2
36 2 76 11 40 8 87 15 104 15 31 0 33 -3 50 -60 80 -269 78 -585 -4 -768 -27
-60 -59 -168 -59 -198 0 -10 7 -13 23 -10 12 3 43 8 69 11 57 7 78 26 78 68 0
18 11 55 24 83 18 40 25 76 31 160 3 60 10 150 15 199 20 194 30 324 31 418 1
57 5 97 11 97 6 0 54 -18 109 -40 54 -22 116 -43 138 -46 l39 -6 1 -92 c1 -61
-7 -131 -24 -211 -13 -65 -22 -121 -20 -124 2 -2 18 2 35 9 l30 12 1 197 c0
108 0 224 0 259 1 49 -3 67 -17 76 -16 12 -16 16 5 60 21 43 23 64 29 313 4
148 2 421 -4 608 -5 187 -8 349 -6 361 2 14 -5 28 -23 42 -15 12 -24 25 -21
30 6 11 -53 84 -63 77 -5 -2 -17 6 -28 18 -51 55 -87 173 -62 203 7 9 18 26
24 38 6 11 18 20 26 19 11 -1 74 -22 87 -29 4 -3 -70 -107 -81 -115 -20 -14
25 -98 86 -162 31 -33 68 -52 52 -27 -8 13 -7 371 1 433 6 43 5 49 -9 44 -10
-4 -17 0 -20 11 -4 16 -5 15 -6 0 0 -10 -5 -18 -9 -18 -5 0 -8 23 -8 50 0 49
11 65 22 35 11 -29 34 -16 34 18 0 28 -7 38 -37 58 -56 37 -73 79 -73 177 0
79 10 122 29 122 11 0 9 -19 -4 -40 -7 -12 -6 -13 6 -3 8 6 15 23 17 36 1 24
-1 25 -38 20 -39 -6 -108 12 -180 45 -37 17 -50 29 -50 49 0 15 58 0 121 -33
26 -13 77 -31 113 -40 54 -13 67 -21 72 -40 8 -31 34 -19 34 16 0 25 -4 28
-47 35 -26 4 -70 18 -98 32 -66 34 -185 149 -185 179 0 23 -31 41 -50 29 -5
-3 -10 -2 -10 3 0 10 60 38 72 35 8 -3 28 87 28 124 l0 27 28 -25 c32 -29 108
-79 120 -79 5 0 17 -9 27 -20 28 -31 35 -24 35 31 0 72 -11 89 -97 157 -24 19
-68 72 -100 120 -94 144 -95 145 -198 117z m11 -488 c14 5 54 -51 54 -77 0
-25 -87 -21 -107 5 -15 19 -15 19 -8 -5 7 -23 7 -24 -10 -10 -17 14 -18 13
-11 -4 7 -19 6 -19 -14 -1 -15 14 -20 15 -20 4 -1 -8 -7 -3 -15 11 -13 22 -14
23 -15 5 l-1 -20 -9 20 -9 20 -1 -20 c-2 -17 -3 -16 -10 5 -8 25 -8 25 -9 -4
-1 -28 -2 -29 -16 -10 -8 11 -15 14 -15 7 0 -7 -7 -13 -15 -13 -10 0 -15 11
-15 35 0 24 5 35 15 35 8 0 15 -6 15 -12 0 -9 3 -9 8 -2 9 13 52 13 52 -1 0
-5 4 -3 10 5 7 12 12 11 32 -5 17 -15 20 -16 9 -2 -15 20 -9 22 21 6 15 -8 19
-8 13 1 -4 7 1 13 14 17 12 3 21 10 21 16 0 8 3 8 11 0 6 -6 17 -9 25 -6z
m-333 -32 c-9 -37 -6 -106 7 -139 8 -21 6 -25 -13 -29 -18 -4 -17 -5 6 -6 15
0 27 -5 27 -9 0 -5 7 -17 16 -28 14 -18 15 -18 9 6 -6 25 -6 25 12 -2 18 -28
40 -39 30 -15 -3 6 -8 19 -11 27 -10 25 32 22 46 -3 11 -20 13 -18 24 33 l12
55 1 -63 c1 -59 3 -63 21 -57 11 4 20 2 20 -4 0 -6 -5 -11 -11 -11 -26 0 0
-23 30 -25 24 -2 31 1 27 11 -3 8 -1 14 4 14 6 0 10 5 10 10 0 5 -5 9 -11 7
-6 -1 -14 4 -16 11 -9 23 26 12 43 -13 14 -21 15 -31 5 -51 -15 -33 -14 -39 4
-24 12 10 15 10 15 -1 0 -28 -43 -100 -71 -116 -25 -15 -29 -23 -29 -60 l0
-42 -52 5 c-116 10 -123 14 -119 51 1 6 -15 21 -35 34 -35 21 -74 72 -74 97 0
6 10 12 23 13 l22 0 -21 9 c-12 5 -25 13 -28 19 -10 15 4 59 19 65 10 3 12 0
8 -11 -4 -10 -2 -14 5 -9 6 3 13 2 17 -4 3 -5 1 -10 -6 -10 -8 0 -8 -4 1 -15
14 -17 45 -21 35 -4 -4 6 0 9 10 7 10 -2 21 6 26 19 11 31 -14 48 -71 48 -35
0 -46 3 -42 13 2 7 11 11 18 8 9 -3 16 4 20 22 3 15 10 42 16 61 8 24 7 35 -1
40 -6 4 -9 16 -6 27 4 10 -2 6 -11 -11 -10 -16 -19 -25 -21 -18 -2 7 -11 9
-19 6 -20 -8 -18 20 7 61 17 29 26 35 50 33 27 -2 29 -4 22 -32z m430 -537
c22 -11 47 -66 47 -102 0 -33 10 -57 21 -50 17 10 9 -33 -8 -48 -19 -16 -67
-42 -106 -57 -23 -9 -24 -8 -19 38 3 36 -1 57 -17 87 -20 36 -21 37 -15 9 4
-25 3 -27 -6 -13 -14 23 -25 138 -13 138 16 0 51 -44 56 -70 3 -18 5 -15 6 12
1 28 -4 40 -19 48 -11 6 -18 16 -14 21 6 11 56 3 87 -13z m-527 -15 c4 -16 19
-49 35 -74 16 -25 29 -52 29 -60 -1 -17 -73 -99 -88 -99 -5 0 -15 7 -22 15
-10 12 -9 15 6 15 23 0 8 15 -24 25 -21 6 -23 4 -17 -15 l7 -21 -41 21 c-41
20 -50 33 -31 45 6 3 10 22 10 42 0 36 24 98 43 110 9 5 57 19 79 22 4 1 11
-11 14 -26z m233 -1 c36 2 73 7 82 12 13 6 17 -1 22 -34 3 -23 21 -65 40 -93
64 -97 59 -143 -17 -162 -39 -10 -49 -10 -53 1 -3 8 -14 14 -25 14 -15 0 -18
-5 -13 -21 5 -13 2 -25 -6 -29 -7 -5 -13 -17 -14 -27 -1 -10 -6 -36 -10 -57
-6 -32 -5 -38 6 -32 8 4 5 0 -6 -8 -13 -11 -19 -29 -20 -56 0 -35 -3 -42 -25
-46 -14 -3 -30 -7 -36 -9 -19 -6 -54 24 -54 45 0 11 6 25 14 32 9 9 11 20 5
36 -5 14 -5 21 0 18 11 -7 21 17 21 51 0 24 1 25 23 11 21 -14 22 -14 22 12 0
30 -20 56 -30 40 -3 -6 -1 -10 6 -10 7 0 10 -3 6 -6 -3 -4 -33 12 -67 34 l-60
41 32 37 c26 29 33 46 33 81 0 37 2 41 13 26 6 -9 13 -26 13 -37 1 -18 2 -18
6 -3 5 20 -35 109 -47 102 -4 -2 -8 8 -8 23 0 36 16 44 51 25 20 -10 50 -13
96 -11z m387 -887 c-6 -23 -3 -25 24 -25 57 0 30 -16 -45 -27 -77 -11 -96 -20
-269 -126 -91 -56 -176 -81 -276 -81 -112 0 -173 21 -230 79 -49 50 -47 59 4
20 18 -14 36 -25 40 -25 4 0 24 11 44 25 20 14 40 25 43 25 4 0 12 -20 19 -44
17 -61 34 -64 67 -13 15 23 29 44 31 47 2 3 22 -15 44 -40 47 -53 65 -48 88
23 8 26 19 47 23 47 4 0 24 -11 44 -25 46 -31 60 -21 69 51 3 30 7 54 8 54 0
0 24 -9 52 -19 l51 -20 62 23 c34 12 59 25 55 28 -3 4 3 4 14 1 15 -3 21 2 26
21 3 14 9 26 12 26 4 0 3 -11 0 -25z m-51 -159 c12 -96 -28 -323 -63 -359 -10
-10 -40 -20 -69 -23 -49 -6 -51 -8 -61 -48 l-11 -41 4 41 5 40 -50 13 c-86 22
-92 31 -91 144 0 53 3 102 6 107 4 6 30 22 58 36 29 15 73 41 98 59 55 39 139
85 156 85 7 0 14 -23 18 -54z"/>
<path d="M1606 4334 c-139 -81 -232 -170 -273 -262 -36 -82 -44 -113 -32 -128
7 -9 5 -19 -8 -34 -26 -32 -32 -37 -90 -73 -29 -18 -79 -50 -111 -72 -33 -22
-68 -45 -78 -51 -16 -10 -11 -13 37 -24 54 -12 57 -12 157 29 56 22 120 44
142 47 36 6 40 4 40 -14 0 -14 -8 -21 -30 -24 -23 -3 -27 -2 -19 8 6 7 17 10
25 7 8 -3 14 0 14 5 0 16 -43 5 -57 -14 -8 -10 -19 -14 -30 -10 -9 4 -14 4
-10 0 4 -5 -34 -28 -85 -52 -91 -43 -122 -48 -171 -27 -12 5 -16 3 -12 -6 5
-15 153 -79 180 -79 9 0 14 -4 10 -10 -3 -5 -15 -6 -28 -1 -12 5 -31 5 -42 1
-16 -7 -12 -9 23 -15 39 -7 42 -10 42 -39 0 -17 5 -38 10 -46 7 -11 10 -4 10
28 0 23 5 42 10 42 6 0 10 -15 10 -33 0 -18 7 -55 16 -81 13 -39 14 -56 6 -85
-10 -32 -10 -34 3 -17 14 18 19 46 16 86 0 8 6 2 14 -15 18 -39 18 -55 -1 -94
l-16 -32 -26 23 c-23 20 -22 18 5 -17 17 -22 33 -49 36 -60 4 -19 5 -18 6 2 0
12 -3 25 -9 28 -5 3 -10 12 -10 18 0 7 12 -1 25 -16 21 -23 25 -38 25 -90 0
-35 -7 -89 -15 -120 -18 -69 -19 -94 -4 -135 12 -36 35 -48 57 -30 23 19 68
124 90 210 l19 75 -23 39 c-25 44 -37 131 -17 127 7 -2 10 4 7 12 -10 26 -21
17 -43 -35 -12 -27 -26 -50 -31 -50 -15 0 -12 17 10 61 19 36 19 42 5 62 -20
28 -19 44 3 51 10 3 7 4 -8 3 -21 -2 -25 3 -27 30 -1 18 3 45 9 60 l12 28 4
-27 c2 -18 8 -25 18 -21 8 3 14 0 14 -6 0 -6 -6 -11 -12 -11 -9 0 -8 -4 2 -10
21 -13 39 -12 20 1 -12 9 -10 10 8 6 24 -6 46 23 24 31 -7 2 -12 8 -12 14 0 6
7 7 16 4 14 -5 15 -4 5 8 -7 9 -22 18 -32 21 -17 6 -19 14 -15 67 5 63 16 92
16 42 0 -35 30 -104 53 -123 10 -7 17 -10 17 -6 0 4 7 2 15 -5 8 -7 15 -8 15
-2 0 5 -6 15 -14 21 -8 7 -12 21 -9 32 5 19 7 18 25 -10 19 -30 29 -35 56 -32
6 1 12 -4 13 -11 1 -15 69 -75 69 -61 0 6 11 15 24 21 17 7 25 21 28 46 2 23
0 36 -7 36 -15 0 -85 60 -85 73 0 5 12 -2 26 -17 28 -27 55 -37 34 -11 -19 23
13 20 34 -3 9 -11 34 -24 56 -31 39 -11 50 -24 31 -35 -5 -4 -21 -2 -35 4 -22
8 -26 7 -26 -8 0 -9 -7 -29 -14 -44 -8 -16 -11 -28 -5 -28 17 0 -3 -84 -27
-110 -20 -22 -22 -30 -14 -64 7 -33 6 -39 -11 -43 -22 -6 -26 -43 -5 -43 8 0
18 5 21 10 14 23 31 7 42 -41 7 -29 24 -67 38 -85 l26 -34 -27 -25 c-15 -14
-30 -25 -35 -25 -22 0 -27 -116 -9 -219 14 -79 14 -81 -20 -81 -42 0 -57 35
-61 147 -4 83 -2 90 13 82 24 -13 27 -11 21 10 -3 13 -11 17 -24 14 -10 -3
-19 -1 -19 5 0 6 -8 13 -17 16 -13 4 -18 17 -19 44 -2 39 -27 91 -76 153 -33
43 -35 54 -10 40 10 -5 42 -13 70 -17 l52 -7 -1 29 c-1 17 -3 22 -6 11 -4 -15
-6 -16 -26 -2 -12 8 -32 15 -44 15 -13 0 -32 9 -42 19 -19 19 -54 41 -66 41
-10 0 6 -72 25 -110 18 -39 26 -150 10 -150 -5 0 -10 -5 -10 -12 0 -26 -90
-194 -110 -206 -20 -12 -25 -11 -47 10 -38 35 -53 77 -43 124 14 70 18 134 7
134 -5 0 -34 -12 -64 -26 -53 -27 -63 -27 -148 -9 l-30 7 0 -454 c0 -400 -24
-1088 -40 -1135 -6 -16 2 -16 72 2 82 21 158 19 210 -6 43 -21 45 -21 64 -3
18 17 20 26 14 89 -9 99 -34 240 -55 310 -26 89 -44 241 -36 308 l8 57 45 -50
c63 -70 108 -91 194 -91 l69 0 0 -70 c0 -38 -6 -111 -14 -162 -43 -280 -48
-336 -35 -387 11 -43 11 -52 -3 -67 -19 -22 -48 -77 -58 -112 -4 -14 -11 -34
-15 -43 -4 -11 0 -20 15 -28 18 -10 21 -9 14 1 -8 14 -13 49 -7 49 2 0 21 -9
41 -19 21 -11 54 -22 73 -26 30 -5 37 -12 46 -43 6 -20 28 -77 49 -127 20 -49
38 -104 39 -120 4 -57 21 -75 71 -75 37 0 51 6 75 29 16 16 34 31 41 34 7 2
-1 11 -18 20 -35 18 -37 27 -50 220 l-5 87 28 11 c40 16 188 16 251 0 29 -7
56 -11 59 -7 4 3 5 255 4 558 -2 304 -4 752 -5 995 l-1 442 -31 6 c-22 4 -40
19 -63 50 -48 67 -54 67 -46 -2 l7 -59 -84 1 c-72 0 -83 2 -86 19 -3 12 0 16
8 11 7 -4 5 6 -4 24 -9 17 -19 31 -22 31 -2 0 0 -9 6 -19 7 -13 7 -20 0 -23
-14 -4 -43 -116 -36 -137 4 -9 -3 -6 -14 8 -12 14 -18 31 -15 40 4 9 11 37 16
64 6 27 15 45 21 41 6 -4 5 3 -2 16 -6 12 -9 24 -6 28 3 3 6 0 6 -7 0 -7 4
-10 10 -6 6 4 6 15 0 30 -14 36 11 33 38 -5 13 -16 28 -30 35 -30 9 0 9 2 0 8
-16 10 -33 57 -33 89 0 25 1 26 56 19 52 -6 57 -4 84 23 24 24 39 29 90 33 68
5 82 14 74 46 -5 15 -14 22 -32 22 -14 0 -83 27 -154 60 -71 33 -165 69 -208
80 -93 24 -269 43 -346 38 -38 -2 -54 1 -54 9 0 28 43 36 174 30 177 -8 270
-34 452 -125 55 -28 118 -54 140 -58 l39 -7 -20 23 c-27 30 -180 157 -239 198
-27 18 -46 38 -43 45 3 7 -1 24 -9 38 -16 28 -18 42 -5 34 18 -10 22 15 12 67
-5 29 -13 61 -16 71 -7 16 -5 16 26 -2 19 -11 72 -27 117 -37 72 -15 85 -21
93 -43 6 -16 6 -28 -1 -35 -5 -5 -9 -33 -9 -61 1 -40 3 -44 8 -20 8 38 30 74
37 59 3 -6 11 -20 19 -30 14 -18 14 -18 15 7 0 15 -7 32 -15 39 -17 14 -45 72
-65 133 -13 42 -65 82 -137 106 -22 7 -90 53 -152 102 -68 54 -121 89 -134 88
-12 0 -49 -16 -81 -35z m-256 -2021 c24 -2 44 -4 46 -6 1 -1 -2 -21 -8 -43
-10 -36 -9 -44 8 -62 16 -18 81 -52 98 -52 15 0 -22 60 -39 63 -15 3 -14 5 7
6 22 1 28 -5 38 -34 16 -47 41 -45 75 6 l27 41 35 -33 35 -34 27 33 c32 37 37
38 71 12 33 -26 47 -25 88 7 l35 26 34 -36 c18 -20 42 -37 53 -37 11 0 20 -4
20 -9 0 -5 14 -14 32 -20 55 -19 26 -20 -47 -1 -99 26 -239 26 -341 -1 -88
-23 -170 -22 -220 4 -16 8 -40 34 -54 57 -44 73 -73 102 -125 126 -44 20 -47
23 -22 23 16 1 37 -4 48 -9 15 -9 19 -7 20 7 1 12 3 9 8 -7 6 -21 13 -25 51
-27z m548 -199 c38 -6 40 -19 17 -108 -21 -79 -23 -81 -54 -52 -14 13 -37 29
-51 34 -37 14 -156 15 -181 2 -30 -16 -33 -8 -19 49 10 44 16 51 47 62 74 24
142 28 241 13z"/>
<path d="M1036 3248 c3 -90 7 -168 9 -175 6 -18 87 -26 136 -13 l44 13 -46 13
c-25 8 -53 22 -62 32 -16 17 -15 18 16 20 56 3 71 7 87 22 15 14 15 17 -2 42
-23 34 -23 41 1 28 53 -28 29 12 -49 79 -55 48 -60 50 -54 27 9 -37 -23 -35
-36 2 -16 43 -33 72 -42 72 -4 0 -5 -73 -2 -162z"/>
<path d="M1181 503 c0 -13 -12 -30 -25 -38 -32 -21 -45 -50 -15 -35 29 16 43
1 86 -88 35 -72 36 -75 18 -88 -10 -8 -15 -14 -10 -14 5 0 4 -5 -3 -12 -9 -9
-15 -9 -24 0 -15 15 -48 16 -48 2 0 -5 -5 -10 -10 -10 -20 0 -45 41 -67 108
l-21 67 5 -65 c9 -109 53 -170 121 -170 76 0 103 78 58 168 -24 49 -52 129
-59 172 -4 22 -4 23 -6 3z"/>
<path d="M1924 454 c-10 -32 -10 -34 9 -28 18 6 19 3 14 -27 -3 -19 -11 -61
-16 -94 -8 -49 -16 -65 -43 -88 -36 -30 -63 -34 -92 -12 -21 16 -25 70 -8 103
5 9 13 43 16 74 7 51 10 57 37 67 38 13 37 17 -6 17 -34 0 -34 0 -40 -55 -3
-31 -15 -79 -26 -108 -34 -87 -28 -138 21 -167 40 -23 82 -14 114 25 14 16 27
44 30 62 22 142 25 223 10 250 -8 13 -11 9 -20 -19z"/>
</g>
</svg>
