<?xml version="1.0" standalone="no"?>
<!DOCTYPE svg PUBLIC "-//W3C//DTD SVG 20010904//EN"
 "http://www.w3.org/TR/2001/REC-SVG-20010904/DTD/svg10.dtd">
<svg version="1.0" xmlns="http://www.w3.org/2000/svg"
 width="1000.000000pt" height="1492.000000pt" viewBox="0 0 1000.000000 1492.000000"
 preserveAspectRatio="xMidYMid meet">
<metadata>
Created by potrace 1.16, written by Peter Selinger 2001-2019
</metadata>
<g transform="translate(0.000000,1492.000000) scale(0.100000,-0.100000)"
fill="#000000" stroke="none">
<path d="M3320 14222 c-5 -20 -10 -44 -10 -53 0 -8 -8 -24 -18 -35 -10 -10
-34 -44 -55 -75 -20 -30 -59 -79 -87 -108 -27 -29 -50 -55 -50 -58 0 -3 18 -3
39 1 58 9 70 1 69 -46 -1 -79 30 -71 142 35 55 53 160 195 160 218 0 25 -27 4
-44 -35 -20 -45 -181 -224 -192 -213 -4 3 7 17 23 31 17 14 50 51 74 83 24 32
52 67 63 79 10 12 18 26 17 31 -1 8 -6 10 -41 12 -14 1 -21 11 -26 39 -3 20
-15 44 -26 52 -16 13 -17 21 -9 42 8 20 7 28 -4 32 -10 3 -18 -7 -25 -32z"/>
<path d="M6877 14123 c-4 -3 -7 -22 -7 -41 0 -33 -1 -34 -34 -28 -24 5 -37 2
-46 -9 -7 -9 -10 -18 -6 -22 3 -3 6 -1 6 5 0 7 7 12 15 12 8 0 15 -4 15 -9 0
-5 6 -16 13 -23 7 -7 28 -35 46 -63 19 -27 54 -71 80 -97 25 -27 40 -48 34
-48 -5 0 -32 24 -57 53 -26 28 -63 69 -82 90 -19 20 -34 41 -34 46 0 5 -7 12
-16 15 -31 12 32 -82 109 -163 36 -37 110 -91 126 -91 20 0 31 38 24 86 -5 39
-17 62 -61 114 -82 99 -83 100 -102 141 -9 22 -20 36 -23 32z"/>
<path d="M8446 14054 c-9 -22 -7 -36 3 -30 4 3 13 -5 19 -18 8 -18 7 -28 -3
-43 -14 -17 -14 -17 -15 4 0 28 -18 40 -27 17 -4 -12 3 -23 23 -38 16 -11 42
-34 58 -51 16 -16 34 -30 40 -30 6 -1 10 -7 8 -15 -3 -12 14 -30 31 -30 4 0 7
10 7 22 0 12 6 29 13 37 18 21 41 106 32 120 -13 22 -24 10 -21 -24 1 -23 -2
-35 -10 -35 -7 0 -14 -13 -16 -30 -2 -23 -6 -27 -17 -21 -12 8 -12 13 2 35 9
14 17 34 17 45 0 17 -5 20 -30 15 -21 -5 -31 -2 -34 7 -15 51 -16 52 -31 39
-12 -10 -16 -8 -25 14 -11 30 -16 32 -24 10z"/>
<path d="M1816 13965 c-3 -9 -2 -14 2 -11 4 2 15 -16 24 -42 10 -26 40 -73 68
-104 30 -34 46 -58 37 -58 -30 0 -126 127 -109 145 4 5 -1 5 -11 2 -11 -4 -16
-3 -11 4 3 6 -5 22 -17 36 l-24 25 -5 -34 c-4 -28 -10 -33 -35 -36 -16 -2 -34
-7 -38 -12 -5 -4 12 -40 38 -80 49 -73 155 -170 187 -170 20 0 39 30 36 57 -3
37 3 51 23 56 19 5 14 13 -45 72 -36 36 -69 77 -72 90 -3 14 -10 25 -16 25 -5
0 -7 3 -4 8 2 4 -2 15 -9 25 -11 16 -13 16 -19 2z"/>
<path d="M2015 13690 c-10 -11 -14 -26 -11 -38 9 -27 -13 -71 -39 -78 -27 -7
-61 -62 -47 -76 7 -7 12 -3 17 11 7 22 42 47 52 37 3 -3 1 -25 -5 -49 -17 -64
-25 -257 -13 -292 7 -23 9 -5 8 80 -1 98 1 114 21 145 12 19 22 43 22 52 0 42
24 122 41 139 15 15 17 24 10 37 -5 9 -13 16 -18 15 -4 -1 -7 4 -5 12 4 23
-14 26 -33 5z"/>
<path d="M7130 13543 c0 -5 -9 -49 -20 -100 -24 -115 -28 -396 -5 -387 7 3 20
27 29 54 18 55 21 84 7 75 -24 -14 -30 118 -11 226 15 82 19 139 9 139 -5 0
-9 -3 -9 -7z"/>
<path d="M3200 13411 c0 -5 5 -22 11 -37 8 -23 21 -224 14 -224 -12 0 -44 41
-48 60 -4 23 -4 23 -6 -4 -1 -26 10 -71 40 -172 5 -17 7 -40 3 -50 -5 -18 -5
-18 6 -1 6 9 14 50 17 90 3 39 12 82 19 94 9 14 14 51 14 96 0 78 -17 148 -30
127 -6 -9 -10 -6 -15 9 -6 21 -25 30 -25 12z"/>
<path d="M8320 13276 c0 -108 -9 -152 -37 -173 -13 -10 -17 -37 -20 -145 l-3
-133 21 43 c30 64 67 242 63 307 -1 17 -2 69 -3 118 0 50 -5 87 -11 87 -6 0
-10 -41 -10 -104z"/>
<path d="M7286 13139 c-11 -10 -28 -19 -38 -19 -10 0 -18 -6 -18 -12 0 -7 -14
-26 -30 -41 -18 -18 -26 -35 -23 -45 6 -14 7 -14 12 1 7 19 100 81 109 72 3
-3 0 -11 -6 -17 -7 -7 -12 -25 -12 -40 0 -23 4 -28 26 -28 19 0 25 -5 22 -17
-2 -10 -13 -19 -25 -21 -19 -3 -20 -5 -7 -31 40 -81 100 -92 146 -26 26 35 28
46 24 96 -3 31 -8 63 -12 72 -7 20 18 33 44 21 9 -4 20 -7 24 -6 4 1 13 -8 19
-21 6 -12 14 -24 16 -27 2 -2 21 16 43 40 45 51 45 62 1 29 -28 -21 -34 -21
-73 -9 -60 18 -98 34 -98 41 0 3 -7 6 -15 6 -8 0 -15 -4 -15 -8 0 -13 -54 -17
-74 -4 -18 11 -24 10 -40 -6z"/>
<path d="M2868 13123 c-20 -5 -25 -23 -7 -23 6 0 8 -11 4 -28 -5 -23 0 -32 24
-50 17 -12 43 -22 59 -22 38 0 52 -17 46 -54 l-6 -31 21 32 c15 23 20 46 18
83 -1 27 -5 50 -9 50 -5 0 -8 5 -8 10 0 16 17 12 76 -16 31 -14 57 -24 60 -21
3 3 -15 21 -39 41 -44 36 -45 36 -133 35 -49 -1 -97 -3 -106 -6z"/>
<path d="M7972 13112 c-12 -9 -27 -34 -33 -55 -9 -34 -8 -40 13 -57 23 -19 38
-24 70 -21 26 3 40 -33 26 -63 -6 -14 -15 -26 -20 -26 -4 0 -8 -6 -8 -12 0 -7
16 4 36 24 l35 38 -4 79 c-5 71 -3 79 11 74 37 -14 102 -65 102 -80 0 -13 3
-14 11 -6 15 15 -12 60 -59 96 -30 23 -45 27 -96 27 -42 0 -68 -6 -84 -18z"/>
<path d="M2155 13100 c-4 -12 -1 -28 6 -37 11 -13 9 -19 -16 -42 -35 -31 -69
-80 -61 -88 3 -3 19 8 36 25 17 17 39 34 50 37 11 4 20 11 20 16 0 5 5 9 11 9
7 0 9 -11 6 -28 -3 -15 -3 -33 1 -39 10 -16 69 -26 77 -14 14 23 46 10 68 -26
l22 -38 3 42 c2 23 -4 63 -13 89 -12 37 -13 49 -3 55 22 14 -42 22 -80 11 -86
-26 -102 -21 -102 29 0 25 -17 24 -25 -1z"/>
</g>
</svg>
